STARTFONT 2.1
COMMENT
COMMENT Converted from OpenType font "notosans_regular.ttf" by "otf2bdf 3.0".
COMMENT
FONT -FreeType-Noto Sans-Medium-R-Normal--22-160-100-100-P-112-ISO10646-1
SIZE 16 100 100
FONTBOUNDINGBOX 76 39 -14 -9
STARTPROPERTIES 19
FOUNDRY "FreeType"
FAMILY_NAME "Noto Sans"
WEIGHT_NAME "Medium"
SLANT "R"
SETWIDTH_NAME "Normal"
ADD_STYLE_NAME ""
PIXEL_SIZE 22
POINT_SIZE 160
RESOLUTION_X 100
RESOLUTION_Y 100
SPACING "P"
AVERAGE_WIDTH 112
CHARSET_REGISTRY "ISO10646"
CHARSET_ENCODING "1"
FONT_ASCENT 23
FONT_DESCENT 6
COPYRIGHT "Copyright 2015-2021 Google LLC. All Rights Reserved."
_OTF_FONTFILE "notosans_regular.ttf"
_OTF_PSNAME "NotoSans-Regular"
ENDPROPERTIES
CHARS 3053
STARTCHAR 0000
ENCODING 0
SWIDTH 0 0
DWIDTH 0 0
BBX 0 0 0 0
BITMAP
ENDCHAR
STARTCHAR 000D
ENCODING 13
SWIDTH 225 0
DWIDTH 5 0
BBX 0 0 0 0
BITMAP
ENDCHAR
STARTCHAR 0020
ENCODING 32
SWIDTH 225 0
DWIDTH 5 0
BBX 0 0 0 0
BITMAP
ENDCHAR
STARTCHAR 0021
ENCODING 33
SWIDTH 225 0
DWIDTH 5 0
BBX 2 16 2 0
BITMAP
C0
C0
C0
C0
C0
C0
C0
C0
C0
C0
C0
C0
00
C0
C0
C0
ENDCHAR
STARTCHAR 0022
ENCODING 34
SWIDTH 405 0
DWIDTH 9 0
BBX 7 6 1 10
BITMAP
E6
46
44
44
44
44
ENDCHAR
STARTCHAR 0023
ENCODING 35
SWIDTH 630 0
DWIDTH 14 0
BBX 13 16 1 0
BITMAP
0C60
0C60
0C40
0840
08C0
FFF8
18C0
1880
1080
1180
FFF0
3180
3100
3100
2300
2300
ENDCHAR
STARTCHAR 0024
ENCODING 36
SWIDTH 540 0
DWIDTH 12 0
BBX 10 18 1 -1
BITMAP
0400
0400
1F80
7FC0
6400
C400
C400
7400
3E00
0F80
05C0
04C0
0440
84C0
FF80
7F00
0400
0400
ENDCHAR
STARTCHAR 0025
ENCODING 37
SWIDTH 810 0
DWIDTH 18 0
BBX 16 16 1 0
BITMAP
7808
6C18
C430
C630
C660
C660
C6CC
C49E
7DB3
3931
0321
0621
0621
0C33
0C33
181E
ENDCHAR
STARTCHAR 0026
ENCODING 38
SWIDTH 720 0
DWIDTH 16 0
BBX 15 16 1 0
BITMAP
1F00
3B80
31C0
30C0
3180
3380
1F00
1C00
3E0C
638C
C1D8
C0F8
C070
E078
7FDC
3F8E
ENDCHAR
STARTCHAR 0027
ENCODING 39
SWIDTH 225 0
DWIDTH 5 0
BBX 3 6 1 10
BITMAP
E0
40
40
40
40
40
ENDCHAR
STARTCHAR 0028
ENCODING 40
SWIDTH 270 0
DWIDTH 6 0
BBX 5 20 1 -4
BITMAP
18
30
30
60
60
C0
C0
C0
C0
C0
C0
C0
C0
C0
60
60
60
30
30
18
ENDCHAR
STARTCHAR 0029
ENCODING 41
SWIDTH 270 0
DWIDTH 6 0
BBX 5 20 1 -4
BITMAP
C0
60
60
30
30
30
30
18
18
18
18
18
18
30
30
30
60
60
C0
C0
ENDCHAR
STARTCHAR 002A
ENCODING 42
SWIDTH 540 0
DWIDTH 12 0
BBX 10 10 1 7
BITMAP
0C00
0C00
0C00
8C40
FFC0
1E00
1E00
1300
3300
3100
ENDCHAR
STARTCHAR 002B
ENCODING 43
SWIDTH 540 0
DWIDTH 12 0
BBX 11 11 1 2
BITMAP
0400
0400
0400
0400
FFE0
FFE0
0400
0400
0400
0400
0400
ENDCHAR
STARTCHAR 002C
ENCODING 44
SWIDTH 225 0
DWIDTH 5 0
BBX 3 6 1 -3
BITMAP
60
60
60
C0
C0
C0
ENDCHAR
STARTCHAR 002D
ENCODING 45
SWIDTH 315 0
DWIDTH 7 0
BBX 5 2 1 5
BITMAP
F8
F8
ENDCHAR
STARTCHAR 002E
ENCODING 46
SWIDTH 225 0
DWIDTH 5 0
BBX 2 3 2 0
BITMAP
C0
C0
C0
ENDCHAR
STARTCHAR 002F
ENCODING 47
SWIDTH 360 0
DWIDTH 8 0
BBX 8 16 0 0
BITMAP
03
03
06
06
04
0C
0C
18
18
18
30
30
20
60
60
C0
ENDCHAR
STARTCHAR 0030
ENCODING 48
SWIDTH 540 0
DWIDTH 12 0
BBX 11 16 1 0
BITMAP
1F00
3F80
61C0
60C0
C0C0
C0C0
C060
C060
C060
C060
C040
C0C0
60C0
60C0
3B80
1F00
ENDCHAR
STARTCHAR 0031
ENCODING 49
SWIDTH 540 0
DWIDTH 12 0
BBX 6 16 2 0
BITMAP
0C
1C
7C
EC
0C
0C
0C
0C
0C
0C
0C
0C
0C
0C
0C
0C
ENDCHAR
STARTCHAR 0032
ENCODING 50
SWIDTH 540 0
DWIDTH 12 0
BBX 11 16 1 0
BITMAP
3F00
7F80
41C0
00C0
00C0
00C0
0180
0180
0300
0600
0C00
1800
3000
6000
FFE0
FFE0
ENDCHAR
STARTCHAR 0033
ENCODING 51
SWIDTH 540 0
DWIDTH 12 0
BBX 10 16 1 0
BITMAP
3F00
FF80
41C0
00C0
00C0
00C0
0380
3E00
3F80
00C0
00C0
00C0
00C0
00C0
E380
FF00
ENDCHAR
STARTCHAR 0034
ENCODING 52
SWIDTH 540 0
DWIDTH 12 0
BBX 12 16 0 0
BITMAP
00C0
01C0
03C0
02C0
06C0
0CC0
18C0
18C0
30C0
60C0
40C0
FFF0
00C0
00C0
00C0
00C0
ENDCHAR
STARTCHAR 0035
ENCODING 53
SWIDTH 540 0
DWIDTH 12 0
BBX 10 16 1 0
BITMAP
7F80
7F80
6000
6000
6000
6000
7E00
7F80
01C0
00C0
00C0
00C0
00C0
00C0
F780
7F00
ENDCHAR
STARTCHAR 0036
ENCODING 54
SWIDTH 540 0
DWIDTH 12 0
BBX 11 16 1 0
BITMAP
0F80
1F80
3000
6000
6000
6000
CF00
DFC0
E0C0
C060
C060
C060
6060
60C0
3BC0
1F00
ENDCHAR
STARTCHAR 0037
ENCODING 55
SWIDTH 540 0
DWIDTH 12 0
BBX 11 16 1 0
BITMAP
FFE0
FFE0
00C0
00C0
0180
0180
0300
0300
0700
0600
0600
0C00
0C00
1800
1800
3000
ENDCHAR
STARTCHAR 0038
ENCODING 56
SWIDTH 540 0
DWIDTH 12 0
BBX 11 16 1 0
BITMAP
1F00
7B80
60C0
60C0
60C0
60C0
3B80
1E00
3F80
61C0
C0C0
C060
C060
C0C0
71C0
3F80
ENDCHAR
STARTCHAR 0039
ENCODING 57
SWIDTH 540 0
DWIDTH 12 0
BBX 11 16 1 0
BITMAP
1F00
7F80
61C0
C0C0
C0C0
C040
C0E0
E0E0
7B40
3EC0
00C0
00C0
00C0
0180
4700
7E00
ENDCHAR
STARTCHAR 003A
ENCODING 58
SWIDTH 225 0
DWIDTH 5 0
BBX 2 12 2 0
BITMAP
C0
C0
C0
00
00
00
00
00
00
C0
C0
C0
ENDCHAR
STARTCHAR 003B
ENCODING 59
SWIDTH 225 0
DWIDTH 5 0
BBX 3 15 1 -3
BITMAP
60
60
60
00
00
00
00
00
00
60
60
E0
C0
C0
80
ENDCHAR
STARTCHAR 003C
ENCODING 60
SWIDTH 540 0
DWIDTH 12 0
BBX 11 10 1 4
BITMAP
0060
01C0
0700
1C00
7000
E000
3800
0F00
03C0
00E0
ENDCHAR
STARTCHAR 003D
ENCODING 61
SWIDTH 540 0
DWIDTH 12 0
BBX 10 6 1 5
BITMAP
FFC0
FFC0
0000
0000
0000
FFC0
ENDCHAR
STARTCHAR 003E
ENCODING 62
SWIDTH 540 0
DWIDTH 12 0
BBX 11 10 1 4
BITMAP
C000
7000
1C00
0700
01C0
00E0
0780
1E00
7000
C000
ENDCHAR
STARTCHAR 003F
ENCODING 63
SWIDTH 405 0
DWIDTH 9 0
BBX 9 16 0 0
BITMAP
7E00
FF00
0180
0180
0180
0180
0300
0600
0C00
1800
1800
1800
0000
1800
1800
1800
ENDCHAR
STARTCHAR 0040
ENCODING 64
SWIDTH 855 0
DWIDTH 19 0
BBX 18 18 1 -2
BITMAP
01F000
0FFC00
1C0700
300100
204180
63F880
4318C0
C618C0
C618C0
C418C0
C61880
C63980
43EF00
618600
600000
380000
1F7800
07F000
ENDCHAR
STARTCHAR 0041
ENCODING 65
SWIDTH 630 0
DWIDTH 14 0
BBX 14 16 0 0
BITMAP
0300
0380
0780
0780
0CC0
0CC0
0C40
1860
1860
1FF0
3FF0
3030
6018
6018
600C
C00C
ENDCHAR
STARTCHAR 0042
ENCODING 66
SWIDTH 630 0
DWIDTH 14 0
BBX 11 16 2 0
BITMAP
FF00
FFC0
C0C0
C060
C060
C0C0
C1C0
FF00
FFC0
C0E0
C060
C060
C060
C0E0
FFC0
FF80
ENDCHAR
STARTCHAR 0043
ENCODING 67
SWIDTH 630 0
DWIDTH 14 0
BBX 12 16 1 0
BITMAP
07F0
1FF0
3810
7000
6000
6000
E000
C000
C000
E000
6000
6000
7000
3800
1FF0
0FF0
ENDCHAR
STARTCHAR 0044
ENCODING 68
SWIDTH 720 0
DWIDTH 16 0
BBX 13 16 2 0
BITMAP
FF00
FFC0
C0E0
C070
C030
C038
C018
C018
C018
C018
C038
C030
C070
C0E0
FFC0
FF00
ENDCHAR
STARTCHAR 0045
ENCODING 69
SWIDTH 540 0
DWIDTH 12 0
BBX 9 16 2 0
BITMAP
FF80
FF80
C000
C000
C000
C000
C000
FF80
FF80
C000
C000
C000
C000
C000
FF80
FF80
ENDCHAR
STARTCHAR 0046
ENCODING 70
SWIDTH 495 0
DWIDTH 11 0
BBX 9 16 2 0
BITMAP
FF80
FF80
C000
C000
C000
C000
C000
C000
FF80
C000
C000
C000
C000
C000
C000
C000
ENDCHAR
STARTCHAR 0047
ENCODING 71
SWIDTH 720 0
DWIDTH 16 0
BBX 14 16 1 0
BITMAP
07F0
1FF8
3808
7000
6000
6000
E000
C000
C0FC
E00C
600C
600C
700C
380C
1FFC
0FF8
ENDCHAR
STARTCHAR 0048
ENCODING 72
SWIDTH 720 0
DWIDTH 16 0
BBX 12 16 2 0
BITMAP
C030
C030
C030
C030
C030
C030
C030
FFF0
FFF0
C030
C030
C030
C030
C030
C030
C030
ENDCHAR
STARTCHAR 0049
ENCODING 73
SWIDTH 315 0
DWIDTH 7 0
BBX 6 16 1 0
BITMAP
FC
78
30
30
30
30
30
30
30
30
30
30
30
30
70
FC
ENDCHAR
STARTCHAR 004A
ENCODING 74
SWIDTH 270 0
DWIDTH 6 0
BBX 6 20 -2 -4
BITMAP
0C
0C
0C
0C
0C
0C
0C
0C
0C
0C
0C
0C
0C
0C
0C
0C
0C
0C
F8
F0
ENDCHAR
STARTCHAR 004B
ENCODING 75
SWIDTH 585 0
DWIDTH 13 0
BBX 11 16 2 0
BITMAP
C060
C0C0
C180
C300
C700
CE00
DC00
DC00
FC00
E600
C700
C300
C180
C0C0
C0E0
C060
ENDCHAR
STARTCHAR 004C
ENCODING 76
SWIDTH 495 0
DWIDTH 11 0
BBX 9 16 2 0
BITMAP
C000
C000
C000
C000
C000
C000
C000
C000
C000
C000
C000
C000
C000
C000
FF80
FF80
ENDCHAR
STARTCHAR 004D
ENCODING 77
SWIDTH 900 0
DWIDTH 20 0
BBX 16 16 2 0
BITMAP
E007
F007
F00F
F00F
D81B
D81B
CC13
CC33
CC33
C663
C663
C663
C3C3
C3C3
C183
C183
ENDCHAR
STARTCHAR 004E
ENCODING 78
SWIDTH 720 0
DWIDTH 16 0
BBX 13 16 2 0
BITMAP
E018
E018
F018
F818
D818
CC18
CE18
C618
C318
C398
C198
C1D8
C0D8
C078
C078
C038
ENDCHAR
STARTCHAR 004F
ENCODING 79
SWIDTH 765 0
DWIDTH 17 0
BBX 15 16 1 0
BITMAP
0FE0
1FF8
3818
700C
600C
6006
E006
C006
C006
E006
6006
600C
700C
301C
1FF8
0FE0
ENDCHAR
STARTCHAR 0050
ENCODING 80
SWIDTH 585 0
DWIDTH 13 0
BBX 10 16 2 0
BITMAP
FE00
FF80
C1C0
C0C0
C0C0
C0C0
C0C0
C1C0
FF80
FE00
C000
C000
C000
C000
C000
C000
ENDCHAR
STARTCHAR 0051
ENCODING 81
SWIDTH 765 0
DWIDTH 17 0
BBX 15 20 1 -4
BITMAP
0FE0
1FF8
3818
700C
600C
6006
E006
C006
C006
E006
6006
600C
700C
301C
1FF8
0FE0
0060
0070
0038
001C
ENDCHAR
STARTCHAR 0052
ENCODING 82
SWIDTH 585 0
DWIDTH 13 0
BBX 11 16 2 0
BITMAP
FE00
FF80
C1C0
C0C0
C0C0
C0C0
C0C0
C380
FF00
C600
C300
C180
C180
C0C0
C0E0
C060
ENDCHAR
STARTCHAR 0053
ENCODING 83
SWIDTH 540 0
DWIDTH 12 0
BBX 10 16 1 0
BITMAP
1F80
7FC0
6000
C000
C000
6000
7000
3E00
0F80
03C0
00C0
00C0
00C0
00C0
FF80
FF00
ENDCHAR
STARTCHAR 0054
ENCODING 84
SWIDTH 540 0
DWIDTH 12 0
BBX 12 16 0 0
BITMAP
FFF0
FFF0
0600
0600
0600
0600
0600
0600
0600
0600
0600
0600
0600
0600
0600
0600
ENDCHAR
STARTCHAR 0055
ENCODING 85
SWIDTH 720 0
DWIDTH 16 0
BBX 12 16 2 0
BITMAP
C030
C030
C030
C030
C030
C030
C030
C030
C030
C030
C030
C030
C030
6060
7FE0
1F80
ENDCHAR
STARTCHAR 0056
ENCODING 86
SWIDTH 585 0
DWIDTH 13 0
BBX 13 16 0 0
BITMAP
C018
E018
6030
6030
3030
3060
3060
1860
18C0
18C0
0CC0
0D80
0D80
0780
0700
0700
ENDCHAR
STARTCHAR 0057
ENCODING 87
SWIDTH 900 0
DWIDTH 20 0
BBX 20 16 0 0
BITMAP
C06030
607030
607030
60F060
60D860
30D860
319860
318CC0
318CC0
1B0CC0
1B0CC0
1B0780
0B0780
0E0780
0E0380
0E0300
ENDCHAR
STARTCHAR 0058
ENCODING 88
SWIDTH 585 0
DWIDTH 13 0
BBX 13 16 0 0
BITMAP
6030
6030
3060
18C0
18C0
0D80
0700
0700
0700
0D80
0D80
18C0
3060
3060
6030
E038
ENDCHAR
STARTCHAR 0059
ENCODING 89
SWIDTH 540 0
DWIDTH 12 0
BBX 12 16 0 0
BITMAP
C030
6030
6060
3060
30C0
18C0
1D80
0D80
0700
0600
0600
0600
0600
0600
0600
0600
ENDCHAR
STARTCHAR 005A
ENCODING 90
SWIDTH 540 0
DWIDTH 12 0
BBX 11 16 1 0
BITMAP
FFE0
FFE0
00C0
0180
0380
0300
0600
0E00
0C00
1800
3800
3000
6000
E000
FFE0
FFE0
ENDCHAR
STARTCHAR 005B
ENCODING 91
SWIDTH 315 0
DWIDTH 7 0
BBX 5 20 2 -4
BITMAP
F8
F8
C0
C0
C0
C0
C0
C0
C0
C0
C0
C0
C0
C0
C0
C0
C0
C0
F8
F8
ENDCHAR
STARTCHAR 005C
ENCODING 92
SWIDTH 360 0
DWIDTH 8 0
BBX 8 16 0 0
BITMAP
C0
60
60
60
30
30
18
18
18
0C
0C
0C
06
06
03
03
ENDCHAR
STARTCHAR 005D
ENCODING 93
SWIDTH 315 0
DWIDTH 7 0
BBX 5 20 1 -4
BITMAP
F8
F8
18
18
18
18
18
18
18
18
18
18
18
18
18
18
18
18
F8
F8
ENDCHAR
STARTCHAR 005E
ENCODING 94
SWIDTH 540 0
DWIDTH 12 0
BBX 11 10 1 6
BITMAP
0C00
0C00
1E00
1200
3300
3180
2180
60C0
40C0
C060
ENDCHAR
STARTCHAR 005F
ENCODING 95
SWIDTH 405 0
DWIDTH 9 0
BBX 10 1 0 -3
BITMAP
FFC0
ENDCHAR
STARTCHAR 0060
ENCODING 96
SWIDTH 270 0
DWIDTH 6 0
BBX 4 4 1 13
BITMAP
C0
60
30
10
ENDCHAR
STARTCHAR 0061
ENCODING 97
SWIDTH 540 0
DWIDTH 12 0
BBX 10 12 1 0
BITMAP
3F00
3B80
01C0
00C0
00C0
3FC0
70C0
C0C0
C0C0
C1C0
E7C0
7EC0
ENDCHAR
STARTCHAR 0062
ENCODING 98
SWIDTH 585 0
DWIDTH 13 0
BBX 10 17 2 0
BITMAP
C000
C000
C000
C000
C000
DF00
FF80
E0C0
C0C0
C0C0
C0C0
C0C0
C0C0
C0C0
E0C0
F380
9F00
ENDCHAR
STARTCHAR 0063
ENCODING 99
SWIDTH 450 0
DWIDTH 10 0
BBX 9 12 1 0
BITMAP
1F80
3F80
6000
6000
C000
C000
C000
C000
6000
6000
3B80
1F80
ENDCHAR
STARTCHAR 0064
ENCODING 100
SWIDTH 585 0
DWIDTH 13 0
BBX 11 17 1 0
BITMAP
0060
0060
0060
0060
0060
1F60
3BE0
60E0
60E0
C060
C060
C060
C060
E060
60E0
7BE0
3F60
ENDCHAR
STARTCHAR 0065
ENCODING 101
SWIDTH 540 0
DWIDTH 12 0
BBX 10 12 1 0
BITMAP
1F00
3B80
60C0
60C0
C0C0
FFC0
C000
C000
6000
6000
39C0
1FC0
ENDCHAR
STARTCHAR 0066
ENCODING 102
SWIDTH 315 0
DWIDTH 7 0
BBX 9 17 0 0
BITMAP
0F80
1F00
1800
3000
3000
7E00
FE00
3000
3000
3000
3000
3000
3000
3000
3000
3000
3000
ENDCHAR
STARTCHAR 0067
ENCODING 103
SWIDTH 585 0
DWIDTH 13 0
BBX 11 17 1 -5
BITMAP
1F60
3FE0
60E0
6060
C060
C060
C060
C060
6060
60E0
71E0
1F60
0060
0060
00C0
61C0
7F80
ENDCHAR
STARTCHAR 0068
ENCODING 104
SWIDTH 585 0
DWIDTH 13 0
BBX 10 17 2 0
BITMAP
C000
C000
C000
C000
C000
DF00
FF80
E0C0
C0C0
C0C0
C0C0
C0C0
C0C0
C0C0
C0C0
C0C0
C0C0
ENDCHAR
STARTCHAR 0069
ENCODING 105
SWIDTH 225 0
DWIDTH 5 0
BBX 2 16 2 0
BITMAP
C0
C0
00
00
C0
C0
C0
C0
C0
C0
C0
C0
C0
C0
C0
C0
ENDCHAR
STARTCHAR 006A
ENCODING 106
SWIDTH 225 0
DWIDTH 5 0
BBX 5 21 -1 -5
BITMAP
18
18
00
00
18
18
18
18
18
18
18
18
18
18
18
18
18
18
18
38
F0
ENDCHAR
STARTCHAR 006B
ENCODING 107
SWIDTH 495 0
DWIDTH 11 0
BBX 9 17 2 0
BITMAP
C000
C000
C000
C000
C000
C180
C300
C600
CC00
D800
F800
FC00
CC00
C600
C700
C380
C180
ENDCHAR
STARTCHAR 006C
ENCODING 108
SWIDTH 225 0
DWIDTH 5 0
BBX 2 17 2 0
BITMAP
C0
C0
C0
C0
C0
C0
C0
C0
C0
C0
C0
C0
C0
C0
C0
C0
C0
ENDCHAR
STARTCHAR 006D
ENCODING 109
SWIDTH 900 0
DWIDTH 20 0
BBX 17 12 2 0
BITMAP
DF3E00
FFFF00
E1C180
C1C180
C18180
C18180
C18180
C18180
C18180
C18180
C18180
C18180
ENDCHAR
STARTCHAR 006E
ENCODING 110
SWIDTH 585 0
DWIDTH 13 0
BBX 10 12 2 0
BITMAP
DF00
FF80
E0C0
C0C0
C0C0
C0C0
C0C0
C0C0
C0C0
C0C0
C0C0
C0C0
ENDCHAR
STARTCHAR 006F
ENCODING 111
SWIDTH 585 0
DWIDTH 13 0
BBX 11 12 1 0
BITMAP
1F00
3FC0
60C0
6060
C060
C060
C060
C060
6060
60E0
39C0
1F80
ENDCHAR
STARTCHAR 0070
ENCODING 112
SWIDTH 585 0
DWIDTH 13 0
BBX 10 17 2 -5
BITMAP
DF00
FF80
E1C0
C0C0
C0C0
C0C0
C0C0
C0C0
C0C0
E0C0
F380
DF00
C000
C000
C000
C000
C000
ENDCHAR
STARTCHAR 0071
ENCODING 113
SWIDTH 585 0
DWIDTH 13 0
BBX 11 17 1 -5
BITMAP
1F60
3BE0
60E0
60E0
C060
C060
C060
C060
E060
60E0
7BE0
3F60
0060
0060
0060
0060
0060
ENDCHAR
STARTCHAR 0072
ENCODING 114
SWIDTH 405 0
DWIDTH 9 0
BBX 7 12 2 0
BITMAP
DE
FE
E0
C0
C0
C0
C0
C0
C0
C0
C0
C0
ENDCHAR
STARTCHAR 0073
ENCODING 115
SWIDTH 450 0
DWIDTH 10 0
BBX 9 12 1 0
BITMAP
3F00
7700
C000
C000
E000
3C00
0F00
0300
0180
0180
E700
FE00
ENDCHAR
STARTCHAR 0074
ENCODING 116
SWIDTH 360 0
DWIDTH 8 0
BBX 8 15 0 0
BITMAP
10
30
30
7E
FE
30
30
30
30
30
30
30
30
39
1F
ENDCHAR
STARTCHAR 0075
ENCODING 117
SWIDTH 585 0
DWIDTH 13 0
BBX 10 12 2 0
BITMAP
C0C0
C0C0
C0C0
C0C0
C0C0
C0C0
C0C0
C0C0
C0C0
C1C0
F7C0
7EC0
ENDCHAR
STARTCHAR 0076
ENCODING 118
SWIDTH 495 0
DWIDTH 11 0
BBX 11 12 0 0
BITMAP
C060
6060
60C0
60C0
30C0
3180
3180
1900
1B00
0B00
0E00
0E00
ENDCHAR
STARTCHAR 0077
ENCODING 119
SWIDTH 765 0
DWIDTH 17 0
BBX 17 12 0 0
BITMAP
C0C180
61C180
61E180
616300
636300
332300
323200
363600
161600
1E1E00
1C1C00
1C1C00
ENDCHAR
STARTCHAR 0078
ENCODING 120
SWIDTH 495 0
DWIDTH 11 0
BBX 10 12 1 0
BITMAP
C0C0
6180
6300
3300
1E00
1C00
1C00
1E00
3300
6380
E180
C0C0
ENDCHAR
STARTCHAR 0079
ENCODING 121
SWIDTH 495 0
DWIDTH 11 0
BBX 11 17 0 -5
BITMAP
C060
6060
60C0
60C0
30C0
3180
1980
1980
1B00
0F00
0E00
0600
0600
0C00
0C00
1800
F000
ENDCHAR
STARTCHAR 007A
ENCODING 122
SWIDTH 450 0
DWIDTH 10 0
BBX 9 12 1 0
BITMAP
FF00
FF00
0300
0600
0C00
0C00
1800
3000
7000
6000
FF80
FF80
ENDCHAR
STARTCHAR 007B
ENCODING 123
SWIDTH 360 0
DWIDTH 8 0
BBX 7 20 1 -4
BITMAP
06
1E
38
30
30
30
30
30
30
E0
E0
30
30
30
30
30
30
18
1E
02
ENDCHAR
STARTCHAR 007C
ENCODING 124
SWIDTH 540 0
DWIDTH 12 0
BBX 2 22 5 -5
BITMAP
C0
C0
C0
C0
C0
C0
C0
C0
C0
C0
C0
C0
C0
C0
C0
C0
C0
C0
C0
C0
C0
C0
ENDCHAR
STARTCHAR 007D
ENCODING 125
SWIDTH 360 0
DWIDTH 8 0
BBX 7 19 1 -4
BITMAP
C0
E0
30
30
30
30
30
30
18
0E
1E
30
30
30
30
30
30
70
E0
ENDCHAR
STARTCHAR 007E
ENCODING 126
SWIDTH 540 0
DWIDTH 12 0
BBX 11 3 1 6
BITMAP
7C20
CFE0
0180
ENDCHAR
STARTCHAR 00A0
ENCODING 160
SWIDTH 225 0
DWIDTH 5 0
BBX 0 0 0 0
BITMAP
ENDCHAR
STARTCHAR 00A1
ENCODING 161
SWIDTH 225 0
DWIDTH 5 0
BBX 2 16 2 -4
BITMAP
C0
C0
C0
00
00
C0
C0
C0
C0
C0
C0
C0
C0
C0
C0
C0
ENDCHAR
STARTCHAR 00A2
ENCODING 162
SWIDTH 540 0
DWIDTH 12 0
BBX 9 16 2 0
BITMAP
0C00
0C00
3F80
7100
6000
C000
C000
C000
C000
C000
C000
6000
7F80
1F00
0C00
0C00
ENDCHAR
STARTCHAR 00A3
ENCODING 163
SWIDTH 540 0
DWIDTH 12 0
BBX 11 16 1 0
BITMAP
0FC0
1FC0
3000
3000
3000
3000
3000
FF00
FF00
3000
3000
3000
3000
6000
FFE0
FFE0
ENDCHAR
STARTCHAR 00A4
ENCODING 164
SWIDTH 540 0
DWIDTH 12 0
BBX 9 10 2 3
BITMAP
8080
FF80
6300
C100
C180
C180
C180
6300
FF80
8080
ENDCHAR
STARTCHAR 00A5
ENCODING 165
SWIDTH 540 0
DWIDTH 12 0
BBX 11 16 1 0
BITMAP
C060
C060
60C0
60C0
3180
3100
1B00
1A00
7FC0
7FC0
0C00
0C00
7FC0
0C00
0C00
0C00
ENDCHAR
STARTCHAR 00A6
ENCODING 166
SWIDTH 540 0
DWIDTH 12 0
BBX 2 22 5 -5
BITMAP
C0
C0
C0
C0
C0
C0
C0
C0
C0
00
00
00
00
00
C0
C0
C0
C0
C0
C0
C0
C0
ENDCHAR
STARTCHAR 00A7
ENCODING 167
SWIDTH 495 0
DWIDTH 11 0
BBX 9 17 1 0
BITMAP
3F00
7F00
4000
6000
7000
3E00
6700
4180
C180
6180
3B00
1E00
0380
0180
0180
E300
7E00
ENDCHAR
STARTCHAR 00A8
ENCODING 168
SWIDTH 540 0
DWIDTH 12 0
BBX 7 2 3 14
BITMAP
C6
C4
ENDCHAR
STARTCHAR 00A9
ENCODING 169
SWIDTH 810 0
DWIDTH 18 0
BBX 16 16 1 0
BITMAP
07E0
1C18
300C
61E2
47E3
C601
8C01
8C01
8C01
8C01
C401
4723
63E2
3004
1818
07F0
ENDCHAR
STARTCHAR 00AA
ENCODING 170
SWIDTH 315 0
DWIDTH 7 0
BBX 6 7 1 9
BITMAP
F8
0C
0C
7C
8C
8C
F4
ENDCHAR
STARTCHAR 00AB
ENCODING 171
SWIDTH 495 0
DWIDTH 11 0
BBX 9 9 1 1
BITMAP
1980
3300
6300
C600
CE00
6600
3300
1980
1000
ENDCHAR
STARTCHAR 00AC
ENCODING 172
SWIDTH 540 0
DWIDTH 12 0
BBX 11 6 1 3
BITMAP
FFE0
FFE0
0060
0060
0060
0060
ENDCHAR
STARTCHAR 00AD
ENCODING 173
SWIDTH 315 0
DWIDTH 7 0
BBX 5 2 1 5
BITMAP
F8
F8
ENDCHAR
STARTCHAR 00AE
ENCODING 174
SWIDTH 810 0
DWIDTH 18 0
BBX 16 16 1 0
BITMAP
07E0
1C18
300C
67C2
47E3
C631
8631
8661
87C1
86C1
C661
4633
6632
3004
1818
07F0
ENDCHAR
STARTCHAR 00AF
ENCODING 175
SWIDTH 495 0
DWIDTH 11 0
BBX 11 1 0 17
BITMAP
FFE0
ENDCHAR
STARTCHAR 00B0
ENCODING 176
SWIDTH 405 0
DWIDTH 9 0
BBX 7 7 1 9
BITMAP
3C
66
C2
C2
C2
7E
38
ENDCHAR
STARTCHAR 00B1
ENCODING 177
SWIDTH 540 0
DWIDTH 12 0
BBX 11 13 1 0
BITMAP
0400
0400
0400
0400
FFE0
FFE0
0400
0400
0400
0400
0000
FFE0
FFE0
ENDCHAR
STARTCHAR 00B2
ENCODING 178
SWIDTH 315 0
DWIDTH 7 0
BBX 6 10 1 9
BITMAP
78
CC
0C
0C
08
10
20
40
FC
FC
ENDCHAR
STARTCHAR 00B3
ENCODING 179
SWIDTH 315 0
DWIDTH 7 0
BBX 7 10 0 9
BITMAP
7C
66
06
06
3C
0E
06
06
CE
7C
ENDCHAR
STARTCHAR 00B4
ENCODING 180
SWIDTH 270 0
DWIDTH 6 0
BBX 4 4 1 13
BITMAP
30
60
C0
80
ENDCHAR
STARTCHAR 00B5
ENCODING 181
SWIDTH 585 0
DWIDTH 13 0
BBX 10 17 2 -5
BITMAP
C0C0
C0C0
C0C0
C0C0
C0C0
C0C0
C0C0
C0C0
C0C0
C1C0
F3C0
FEC0
C000
C000
C000
C000
C000
ENDCHAR
STARTCHAR 00B6
ENCODING 182
SWIDTH 630 0
DWIDTH 14 0
BBX 11 20 1 -3
BITMAP
1FE0
7F20
7F20
FF20
FF20
FF20
FF20
FF20
7F20
7F20
3F20
0320
0320
0320
0320
0320
0320
0320
0320
0320
ENDCHAR
STARTCHAR 00B7
ENCODING 183
SWIDTH 225 0
DWIDTH 5 0
BBX 2 3 2 6
BITMAP
C0
C0
C0
ENDCHAR
STARTCHAR 00B8
ENCODING 184
SWIDTH 225 0
DWIDTH 5 0
BBX 5 5 0 -5
BITMAP
20
70
18
18
F0
ENDCHAR
STARTCHAR 00B9
ENCODING 185
SWIDTH 315 0
DWIDTH 7 0
BBX 4 10 1 9
BITMAP
30
70
D0
10
10
10
10
10
10
10
ENDCHAR
STARTCHAR 00BA
ENCODING 186
SWIDTH 360 0
DWIDTH 8 0
BBX 7 7 1 9
BITMAP
78
CC
86
86
86
84
7C
ENDCHAR
STARTCHAR 00BB
ENCODING 187
SWIDTH 495 0
DWIDTH 11 0
BBX 9 9 1 1
BITMAP
CC00
6600
3300
3980
1980
3300
6700
C600
0400
ENDCHAR
STARTCHAR 00BC
ENCODING 188
SWIDTH 720 0
DWIDTH 16 0
BBX 15 16 1 0
BITMAP
3018
7010
D030
1060
1040
10C0
108C
118C
131C
123C
062C
044C
0CCC
18FE
100C
300C
ENDCHAR
STARTCHAR 00BD
ENCODING 189
SWIDTH 765 0
DWIDTH 17 0
BBX 15 16 1 0
BITMAP
3010
F030
B060
3040
30C0
3080
3198
337E
3202
3602
0C06
0C0C
1818
1030
3060
607E
ENDCHAR
STARTCHAR 00BE
ENCODING 190
SWIDTH 765 0
DWIDTH 17 0
BBX 17 16 0 0
BITMAP
7C0600
460400
060C00
061800
3C1000
0E3000
062300
066700
CEC700
788B00
019B00
011300
032300
063F80
040300
0C0300
ENDCHAR
STARTCHAR 00BF
ENCODING 191
SWIDTH 405 0
DWIDTH 9 0
BBX 8 16 1 -4
BITMAP
1C
1C
0C
00
00
08
08
18
30
60
C0
C0
80
C0
E7
7F
ENDCHAR
STARTCHAR 00C0
ENCODING 192
SWIDTH 630 0
DWIDTH 14 0
BBX 14 21 0 0
BITMAP
0E00
0600
0300
0180
0000
0300
0380
0780
0780
0CC0
0CC0
0C40
1860
1860
1FF0
3FF0
3030
6018
6018
600C
C00C
ENDCHAR
STARTCHAR 00C1
ENCODING 193
SWIDTH 630 0
DWIDTH 14 0
BBX 14 21 0 0
BITMAP
00C0
0180
0300
0200
0000
0300
0380
0780
0780
0CC0
0CC0
0C40
1860
1860
1FF0
3FF0
3030
6018
6018
600C
C00C
ENDCHAR
STARTCHAR 00C2
ENCODING 194
SWIDTH 630 0
DWIDTH 14 0
BBX 14 21 0 0
BITMAP
0300
0780
0CC0
1860
0000
0300
0380
0780
0780
0CC0
0CC0
0C40
1860
1860
1FF0
3FF0
3030
6018
6018
600C
C00C
ENDCHAR
STARTCHAR 00C3
ENCODING 195
SWIDTH 630 0
DWIDTH 14 0
BBX 14 20 0 0
BITMAP
0E20
1BE0
1080
0000
0300
0380
0780
0780
0CC0
0CC0
0C40
1860
1860
1FF0
3FF0
3030
6018
6018
600C
C00C
ENDCHAR
STARTCHAR 00C4
ENCODING 196
SWIDTH 630 0
DWIDTH 14 0
BBX 14 20 0 0
BITMAP
0CC0
0CC0
0000
0000
0300
0380
0780
0780
0CC0
0CC0
0C40
1860
1860
1FF0
3FF0
3030
6018
6018
600C
C00C
ENDCHAR
STARTCHAR 00C5
ENCODING 197
SWIDTH 630 0
DWIDTH 14 0
BBX 14 19 0 1
BITMAP
0780
04C0
0480
0780
0380
0780
0780
0CC0
0CC0
0C40
1860
1860
1FF0
3FF0
3030
6018
6018
600C
C00C
ENDCHAR
STARTCHAR 00C6
ENCODING 198
SWIDTH 855 0
DWIDTH 19 0
BBX 18 16 0 0
BITMAP
01FFC0
01FFC0
033000
033000
063000
063000
0E3000
0C3FC0
0C3FC0
1FF000
1FF000
303000
303000
603000
603FC0
C03FC0
ENDCHAR
STARTCHAR 00C7
ENCODING 199
SWIDTH 630 0
DWIDTH 14 0
BBX 12 21 1 -5
BITMAP
07F0
1FF0
3810
7000
6000
6000
E000
C000
C000
E000
6000
6000
7000
3800
1FF0
0FF0
0100
0300
0080
0080
0780
ENDCHAR
STARTCHAR 00C8
ENCODING 200
SWIDTH 540 0
DWIDTH 12 0
BBX 9 21 2 0
BITMAP
3000
1800
0C00
0400
0000
FF80
FF80
C000
C000
C000
C000
C000
FF80
FF80
C000
C000
C000
C000
C000
FF80
FF80
ENDCHAR
STARTCHAR 00C9
ENCODING 201
SWIDTH 540 0
DWIDTH 12 0
BBX 9 21 2 0
BITMAP
0700
0600
0C00
0800
0000
FF80
FF80
C000
C000
C000
C000
C000
FF80
FF80
C000
C000
C000
C000
C000
FF80
FF80
ENDCHAR
STARTCHAR 00CA
ENCODING 202
SWIDTH 540 0
DWIDTH 12 0
BBX 9 21 2 0
BITMAP
1C00
1E00
3300
4180
0000
FF80
FF80
C000
C000
C000
C000
C000
FF80
FF80
C000
C000
C000
C000
C000
FF80
FF80
ENDCHAR
STARTCHAR 00CB
ENCODING 203
SWIDTH 540 0
DWIDTH 12 0
BBX 9 20 2 0
BITMAP
3300
3300
0000
0000
FF80
FF80
C000
C000
C000
C000
C000
FF80
FF80
C000
C000
C000
C000
C000
FF80
FF80
ENDCHAR
STARTCHAR 00CC
ENCODING 204
SWIDTH 315 0
DWIDTH 7 0
BBX 6 21 1 0
BITMAP
C0
60
30
10
00
FC
78
30
30
30
30
30
30
30
30
30
30
30
30
70
FC
ENDCHAR
STARTCHAR 00CD
ENCODING 205
SWIDTH 315 0
DWIDTH 7 0
BBX 6 21 1 0
BITMAP
1C
18
30
20
00
FC
78
30
30
30
30
30
30
30
30
30
30
30
30
70
FC
ENDCHAR
STARTCHAR 00CE
ENCODING 206
SWIDTH 315 0
DWIDTH 7 0
BBX 8 21 0 0
BITMAP
38
3C
66
83
00
7E
3C
18
18
18
18
18
18
18
18
18
18
18
18
38
7E
ENDCHAR
STARTCHAR 00CF
ENCODING 207
SWIDTH 315 0
DWIDTH 7 0
BBX 6 20 1 0
BITMAP
CC
CC
00
00
FC
78
30
30
30
30
30
30
30
30
30
30
30
30
70
FC
ENDCHAR
STARTCHAR 00D0
ENCODING 208
SWIDTH 720 0
DWIDTH 16 0
BBX 14 16 1 0
BITMAP
7F80
7FE0
6070
6038
6018
601C
600C
FE0C
FE0C
600C
601C
6018
6038
6070
7FE0
7F80
ENDCHAR
STARTCHAR 00D1
ENCODING 209
SWIDTH 720 0
DWIDTH 16 0
BBX 13 20 2 0
BITMAP
1E40
13C0
3080
0000
E018
E018
F018
F818
D818
CC18
CE18
C618
C318
C398
C198
C1D8
C0D8
C078
C078
C038
ENDCHAR
STARTCHAR 00D2
ENCODING 210
SWIDTH 765 0
DWIDTH 17 0
BBX 15 21 1 0
BITMAP
0600
0300
0180
0080
0000
0FE0
1FF8
3818
700C
600C
6006
E006
C006
C006
E006
6006
600C
700C
301C
1FF8
0FE0
ENDCHAR
STARTCHAR 00D3
ENCODING 211
SWIDTH 765 0
DWIDTH 17 0
BBX 15 21 1 0
BITMAP
00E0
00C0
0180
0100
0000
0FE0
1FF8
3818
700C
600C
6006
E006
C006
C006
E006
6006
600C
700C
301C
1FF8
0FE0
ENDCHAR
STARTCHAR 00D4
ENCODING 212
SWIDTH 765 0
DWIDTH 17 0
BBX 15 21 1 0
BITMAP
0380
03C0
0660
0820
0000
0FE0
1FF8
3818
700C
600C
6006
E006
C006
C006
E006
6006
600C
700C
301C
1FF8
0FE0
ENDCHAR
STARTCHAR 00D5
ENCODING 213
SWIDTH 765 0
DWIDTH 17 0
BBX 15 20 1 0
BITMAP
0F30
09E0
0840
0000
0FE0
1FF8
3818
700C
600C
6006
E006
C006
C006
E006
6006
600C
700C
301C
1FF8
0FE0
ENDCHAR
STARTCHAR 00D6
ENCODING 214
SWIDTH 765 0
DWIDTH 17 0
BBX 15 20 1 0
BITMAP
0660
0660
0000
0000
0FE0
1FF8
3818
700C
600C
6006
E006
C006
C006
E006
6006
600C
700C
301C
1FF8
0FE0
ENDCHAR
STARTCHAR 00D7
ENCODING 215
SWIDTH 540 0
DWIDTH 12 0
BBX 9 10 2 3
BITMAP
8000
C180
6300
3600
1C00
1C00
3600
6300
C180
8080
ENDCHAR
STARTCHAR 00D8
ENCODING 216
SWIDTH 765 0
DWIDTH 17 0
BBX 15 17 1 0
BITMAP
0FEC
1FF8
3818
703C
606C
60C6
E0C6
C186
C306
E306
6606
6C0C
780C
381C
3FF8
6FE0
2000
ENDCHAR
STARTCHAR 00D9
ENCODING 217
SWIDTH 720 0
DWIDTH 16 0
BBX 12 21 2 0
BITMAP
1C00
0C00
0600
0300
0000
C030
C030
C030
C030
C030
C030
C030
C030
C030
C030
C030
C030
C030
6060
7FE0
1F80
ENDCHAR
STARTCHAR 00DA
ENCODING 218
SWIDTH 720 0
DWIDTH 16 0
BBX 12 21 2 0
BITMAP
0180
0300
0200
0400
0000
C030
C030
C030
C030
C030
C030
C030
C030
C030
C030
C030
C030
C030
6060
7FE0
1F80
ENDCHAR
STARTCHAR 00DB
ENCODING 219
SWIDTH 720 0
DWIDTH 16 0
BBX 12 21 2 0
BITMAP
0600
0F00
1980
30C0
0000
C030
C030
C030
C030
C030
C030
C030
C030
C030
C030
C030
C030
C030
6060
7FE0
1F80
ENDCHAR
STARTCHAR 00DC
ENCODING 220
SWIDTH 720 0
DWIDTH 16 0
BBX 12 20 2 0
BITMAP
1980
1980
0000
0000
C030
C030
C030
C030
C030
C030
C030
C030
C030
C030
C030
C030
C030
6060
7FE0
1F80
ENDCHAR
STARTCHAR 00DD
ENCODING 221
SWIDTH 540 0
DWIDTH 12 0
BBX 12 21 0 0
BITMAP
0180
0380
0300
0400
0000
C030
6030
6060
3060
30C0
18C0
1D80
0D80
0700
0600
0600
0600
0600
0600
0600
0600
ENDCHAR
STARTCHAR 00DE
ENCODING 222
SWIDTH 585 0
DWIDTH 13 0
BBX 10 16 2 0
BITMAP
C000
C000
C000
FF00
FF80
C1C0
C0C0
C0C0
C0C0
C0C0
C380
FF00
F800
C000
C000
C000
ENDCHAR
STARTCHAR 00DF
ENCODING 223
SWIDTH 630 0
DWIDTH 14 0
BBX 11 17 2 0
BITMAP
3F00
7F80
C1C0
C0C0
C180
C380
C600
C600
C600
C700
C380
C0C0
C060
C060
C060
CCE0
CFC0
ENDCHAR
STARTCHAR 00E0
ENCODING 224
SWIDTH 540 0
DWIDTH 12 0
BBX 10 17 1 0
BITMAP
1800
1C00
0C00
0600
0000
3F00
3B80
01C0
00C0
00C0
3FC0
70C0
C0C0
C0C0
C1C0
E7C0
7EC0
ENDCHAR
STARTCHAR 00E1
ENCODING 225
SWIDTH 540 0
DWIDTH 12 0
BBX 10 17 1 0
BITMAP
0300
0600
0600
0800
0000
3F00
3B80
01C0
00C0
00C0
3FC0
70C0
C0C0
C0C0
C1C0
E7C0
7EC0
ENDCHAR
STARTCHAR 00E2
ENCODING 226
SWIDTH 540 0
DWIDTH 12 0
BBX 10 17 1 0
BITMAP
0E00
1E00
3300
6080
0000
3F00
3B80
01C0
00C0
00C0
3FC0
70C0
C0C0
C0C0
C1C0
E7C0
7EC0
ENDCHAR
STARTCHAR 00E3
ENCODING 227
SWIDTH 540 0
DWIDTH 12 0
BBX 10 16 1 0
BITMAP
3C80
6F80
4000
0000
3F00
3B80
01C0
00C0
00C0
3FC0
70C0
C0C0
C0C0
C1C0
E7C0
7EC0
ENDCHAR
STARTCHAR 00E4
ENCODING 228
SWIDTH 540 0
DWIDTH 12 0
BBX 10 16 1 0
BITMAP
3300
3300
0000
0000
3F00
3B80
01C0
00C0
00C0
3FC0
70C0
C0C0
C0C0
C1C0
E7C0
7EC0
ENDCHAR
STARTCHAR 00E5
ENCODING 229
SWIDTH 540 0
DWIDTH 12 0
BBX 10 18 1 0
BITMAP
1E00
1300
1300
1E00
0400
0000
3F00
3B80
01C0
00C0
00C0
3FC0
70C0
C0C0
C0C0
C1C0
E7C0
7EC0
ENDCHAR
STARTCHAR 00E6
ENCODING 230
SWIDTH 855 0
DWIDTH 19 0
BBX 17 12 1 0
BITMAP
3F3E00
77F700
01C380
01C180
01C180
3FFF80
718000
C1C000
C1C000
C1C000
E77380
7E3F00
ENDCHAR
STARTCHAR 00E7
ENCODING 231
SWIDTH 450 0
DWIDTH 10 0
BBX 9 17 1 -5
BITMAP
1F80
3F80
6000
6000
C000
C000
C000
C000
6000
6000
3B80
1F80
0400
0C00
0200
0200
1E00
ENDCHAR
STARTCHAR 00E8
ENCODING 232
SWIDTH 540 0
DWIDTH 12 0
BBX 10 17 1 0
BITMAP
1800
1C00
0C00
0200
0000
1F00
3B80
60C0
60C0
C0C0
FFC0
C000
C000
6000
6000
39C0
1FC0
ENDCHAR
STARTCHAR 00E9
ENCODING 233
SWIDTH 540 0
DWIDTH 12 0
BBX 10 17 1 0
BITMAP
0300
0700
0600
0800
0000
1F00
3B80
60C0
60C0
C0C0
FFC0
C000
C000
6000
6000
39C0
1FC0
ENDCHAR
STARTCHAR 00EA
ENCODING 234
SWIDTH 540 0
DWIDTH 12 0
BBX 10 17 1 0
BITMAP
0E00
1E00
3300
2080
0000
1F00
3B80
60C0
60C0
C0C0
FFC0
C000
C000
6000
6000
39C0
1FC0
ENDCHAR
STARTCHAR 00EB
ENCODING 235
SWIDTH 540 0
DWIDTH 12 0
BBX 10 16 1 0
BITMAP
3300
3100
0000
0000
1F00
3B80
60C0
60C0
C0C0
FFC0
C000
C000
6000
6000
39C0
1FC0
ENDCHAR
STARTCHAR 00EC
ENCODING 236
SWIDTH 225 0
DWIDTH 5 0
BBX 4 17 0 0
BITMAP
E0
60
30
10
00
30
30
30
30
30
30
30
30
30
30
30
30
ENDCHAR
STARTCHAR 00ED
ENCODING 237
SWIDTH 225 0
DWIDTH 5 0
BBX 4 17 2 0
BITMAP
30
60
C0
80
00
C0
C0
C0
C0
C0
C0
C0
C0
C0
C0
C0
C0
ENDCHAR
STARTCHAR 00EE
ENCODING 238
SWIDTH 225 0
DWIDTH 5 0
BBX 8 17 -1 0
BITMAP
38
3C
66
83
00
18
18
18
18
18
18
18
18
18
18
18
18
ENDCHAR
STARTCHAR 00EF
ENCODING 239
SWIDTH 225 0
DWIDTH 5 0
BBX 6 16 0 0
BITMAP
CC
CC
00
00
30
30
30
30
30
30
30
30
30
30
30
30
ENDCHAR
STARTCHAR 00F0
ENCODING 240
SWIDTH 585 0
DWIDTH 13 0
BBX 11 17 1 0
BITMAP
1880
1DC0
0700
1F80
1180
00C0
0440
3FE0
70E0
6060
C060
C060
C060
C060
60E0
39C0
1F80
ENDCHAR
STARTCHAR 00F1
ENCODING 241
SWIDTH 585 0
DWIDTH 13 0
BBX 10 16 2 0
BITMAP
3880
4F00
4200
0000
DF00
FF80
E0C0
C0C0
C0C0
C0C0
C0C0
C0C0
C0C0
C0C0
C0C0
C0C0
ENDCHAR
STARTCHAR 00F2
ENCODING 242
SWIDTH 585 0
DWIDTH 13 0
BBX 11 17 1 0
BITMAP
1800
0C00
0600
0200
0000
1F00
3FC0
60C0
6060
C060
C060
C060
C060
6060
60E0
39C0
1F80
ENDCHAR
STARTCHAR 00F3
ENCODING 243
SWIDTH 585 0
DWIDTH 13 0
BBX 11 17 1 0
BITMAP
0380
0300
0600
0400
0000
1F00
3FC0
60C0
6060
C060
C060
C060
C060
6060
60E0
39C0
1F80
ENDCHAR
STARTCHAR 00F4
ENCODING 244
SWIDTH 585 0
DWIDTH 13 0
BBX 11 17 1 0
BITMAP
0E00
0F00
1980
20C0
0000
1F00
3FC0
60C0
6060
C060
C060
C060
C060
6060
60E0
39C0
1F80
ENDCHAR
STARTCHAR 00F5
ENCODING 245
SWIDTH 585 0
DWIDTH 13 0
BBX 11 16 1 0
BITMAP
3CC0
2780
2100
0000
1F00
3FC0
60C0
6060
C060
C060
C060
C060
6060
60E0
39C0
1F80
ENDCHAR
STARTCHAR 00F6
ENCODING 246
SWIDTH 585 0
DWIDTH 13 0
BBX 11 16 1 0
BITMAP
1980
1980
0000
0000
1F00
3FC0
60C0
6060
C060
C060
C060
C060
6060
60E0
39C0
1F80
ENDCHAR
STARTCHAR 00F7
ENCODING 247
SWIDTH 540 0
DWIDTH 12 0
BBX 11 10 1 3
BITMAP
0C00
0E00
0400
0000
FFE0
FFE0
0000
0000
0E00
0C00
ENDCHAR
STARTCHAR 00F8
ENCODING 248
SWIDTH 585 0
DWIDTH 13 0
BBX 11 13 1 -1
BITMAP
0040
1F60
3FC0
61C0
61E0
C360
C660
CC60
CC60
7860
70E0
39C0
7F80
ENDCHAR
STARTCHAR 00F9
ENCODING 249
SWIDTH 585 0
DWIDTH 13 0
BBX 10 17 2 0
BITMAP
3800
1800
0C00
0400
0000
C0C0
C0C0
C0C0
C0C0
C0C0
C0C0
C0C0
C0C0
C0C0
C1C0
F7C0
7EC0
ENDCHAR
STARTCHAR 00FA
ENCODING 250
SWIDTH 585 0
DWIDTH 13 0
BBX 10 17 2 0
BITMAP
0300
0600
0C00
0800
0000
C0C0
C0C0
C0C0
C0C0
C0C0
C0C0
C0C0
C0C0
C0C0
C1C0
F7C0
7EC0
ENDCHAR
STARTCHAR 00FB
ENCODING 251
SWIDTH 585 0
DWIDTH 13 0
BBX 10 17 2 0
BITMAP
1C00
1E00
3300
4180
0000
C0C0
C0C0
C0C0
C0C0
C0C0
C0C0
C0C0
C0C0
C0C0
C1C0
F7C0
7EC0
ENDCHAR
STARTCHAR 00FC
ENCODING 252
SWIDTH 585 0
DWIDTH 13 0
BBX 10 16 2 0
BITMAP
3300
3300
0000
0000
C0C0
C0C0
C0C0
C0C0
C0C0
C0C0
C0C0
C0C0
C0C0
C1C0
F7C0
7EC0
ENDCHAR
STARTCHAR 00FD
ENCODING 253
SWIDTH 495 0
DWIDTH 11 0
BBX 11 22 0 -5
BITMAP
0380
0300
0600
0C00
0000
C060
6060
60C0
60C0
30C0
3180
1980
1980
1B00
0F00
0E00
0600
0600
0C00
0C00
1800
F000
ENDCHAR
STARTCHAR 00FE
ENCODING 254
SWIDTH 585 0
DWIDTH 13 0
BBX 10 22 2 -5
BITMAP
C000
C000
C000
C000
C000
DF00
FF80
E0C0
C0C0
C0C0
C0C0
C0C0
C0C0
C0C0
E0C0
F380
DF00
C000
C000
C000
C000
C000
ENDCHAR
STARTCHAR 00FF
ENCODING 255
SWIDTH 495 0
DWIDTH 11 0
BBX 11 21 0 -5
BITMAP
1980
1980
0000
0000
C060
6060
60C0
60C0
30C0
3180
1980
1980
1B00
0F00
0E00
0600
0600
0C00
0C00
1800
F000
ENDCHAR
STARTCHAR 0100
ENCODING 256
SWIDTH 630 0
DWIDTH 14 0
BBX 14 19 0 0
BITMAP
0FC0
0FC0
0000
0300
0380
0780
0780
0CC0
0CC0
0C40
1860
1860
1FF0
3FF0
3030
6018
6018
600C
C00C
ENDCHAR
STARTCHAR 0101
ENCODING 257
SWIDTH 540 0
DWIDTH 12 0
BBX 10 15 1 0
BITMAP
3F80
3F80
0000
3F00
3B80
01C0
00C0
00C0
3FC0
70C0
C0C0
C0C0
C1C0
E7C0
7EC0
ENDCHAR
STARTCHAR 0102
ENCODING 258
SWIDTH 630 0
DWIDTH 14 0
BBX 14 20 0 0
BITMAP
0840
0FC0
0300
0000
0300
0380
0780
0780
0CC0
0CC0
0C40
1860
1860
1FF0
3FF0
3030
6018
6018
600C
C00C
ENDCHAR
STARTCHAR 0103
ENCODING 259
SWIDTH 540 0
DWIDTH 12 0
BBX 10 16 1 0
BITMAP
2100
1F00
0400
0000
3F00
3B80
01C0
00C0
00C0
3FC0
70C0
C0C0
C0C0
C1C0
E7C0
7EC0
ENDCHAR
STARTCHAR 0104
ENCODING 260
SWIDTH 630 0
DWIDTH 14 0
BBX 14 21 0 -5
BITMAP
0300
0380
0780
0780
0CC0
0CC0
0C40
1860
1860
1FF0
3FF0
3030
6018
6018
600C
C00C
0008
0010
0010
0018
001C
ENDCHAR
STARTCHAR 0105
ENCODING 261
SWIDTH 540 0
DWIDTH 12 0
BBX 10 17 1 -5
BITMAP
3F00
3B80
01C0
00C0
00C0
3FC0
70C0
C0C0
C0C0
C1C0
E7C0
7EC0
0080
0100
0100
0180
01C0
ENDCHAR
STARTCHAR 0106
ENCODING 262
SWIDTH 630 0
DWIDTH 14 0
BBX 12 21 1 0
BITMAP
00E0
00C0
0180
0300
0000
07F0
1FF0
3810
7000
6000
6000
E000
C000
C000
E000
6000
6000
7000
3800
1FF0
0FF0
ENDCHAR
STARTCHAR 0107
ENCODING 263
SWIDTH 450 0
DWIDTH 10 0
BBX 9 17 1 0
BITMAP
0300
0700
0600
0800
0000
1F80
3F80
6000
6000
C000
C000
C000
C000
6000
6000
3B80
1F80
ENDCHAR
STARTCHAR 0108
ENCODING 264
SWIDTH 630 0
DWIDTH 14 0
BBX 12 21 1 0
BITMAP
0380
07C0
0CC0
0820
0000
07F0
1FF0
3810
7000
6000
6000
E000
C000
C000
E000
6000
6000
7000
3800
1FF0
0FF0
ENDCHAR
STARTCHAR 0109
ENCODING 265
SWIDTH 450 0
DWIDTH 10 0
BBX 9 17 1 0
BITMAP
0E00
1E00
3300
2080
0000
1F80
3F80
6000
6000
C000
C000
C000
C000
6000
6000
3B80
1F80
ENDCHAR
STARTCHAR 010A
ENCODING 266
SWIDTH 630 0
DWIDTH 14 0
BBX 12 20 1 0
BITMAP
0380
0300
0000
0000
07F0
1FF0
3810
7000
6000
6000
E000
C000
C000
E000
6000
6000
7000
3800
1FF0
0FF0
ENDCHAR
STARTCHAR 010B
ENCODING 267
SWIDTH 450 0
DWIDTH 10 0
BBX 9 16 1 0
BITMAP
0C00
0C00
0000
0000
1F80
3F80
6000
6000
C000
C000
C000
C000
6000
6000
3B80
1F80
ENDCHAR
STARTCHAR 010C
ENCODING 268
SWIDTH 630 0
DWIDTH 14 0
BBX 12 21 1 0
BITMAP
0C60
06C0
0380
0300
0000
07F0
1FF0
3810
7000
6000
6000
E000
C000
C000
E000
6000
6000
7000
3800
1FF0
0FF0
ENDCHAR
STARTCHAR 010D
ENCODING 269
SWIDTH 450 0
DWIDTH 10 0
BBX 9 17 1 0
BITMAP
3180
1B00
0E00
0C00
0000
1F80
3F80
6000
6000
C000
C000
C000
C000
6000
6000
3B80
1F80
ENDCHAR
STARTCHAR 010E
ENCODING 270
SWIDTH 720 0
DWIDTH 16 0
BBX 13 21 2 0
BITMAP
30C0
1980
0F00
0600
0000
FF00
FFC0
C0E0
C070
C030
C038
C018
C018
C018
C018
C038
C030
C070
C0E0
FFC0
FF00
ENDCHAR
STARTCHAR 010F
ENCODING 271
SWIDTH 585 0
DWIDTH 13 0
BBX 14 17 1 0
BITMAP
006C
006C
0068
0068
0060
1F60
3BE0
60E0
60E0
C060
C060
C060
C060
E060
60E0
7BE0
3F60
ENDCHAR
STARTCHAR 0110
ENCODING 272
SWIDTH 720 0
DWIDTH 16 0
BBX 14 16 1 0
BITMAP
7F80
7FE0
6070
6038
6018
601C
600C
FE0C
FE0C
600C
601C
6018
6038
6070
7FE0
7F80
ENDCHAR
STARTCHAR 0111
ENCODING 273
SWIDTH 585 0
DWIDTH 13 0
BBX 12 17 1 0
BITMAP
0060
0060
0FF0
0FF0
0060
1E60
3FE0
60E0
60E0
C060
C060
C060
C060
E060
60E0
7BE0
3F60
ENDCHAR
STARTCHAR 0112
ENCODING 274
SWIDTH 540 0
DWIDTH 12 0
BBX 9 19 2 0
BITMAP
7F00
7F00
0000
FF80
FF80
C000
C000
C000
C000
C000
FF80
FF80
C000
C000
C000
C000
C000
FF80
FF80
ENDCHAR
STARTCHAR 0113
ENCODING 275
SWIDTH 540 0
DWIDTH 12 0
BBX 10 15 1 0
BITMAP
3F80
3F80
0000
1F00
3B80
60C0
60C0
C0C0
FFC0
C000
C000
6000
6000
39C0
1FC0
ENDCHAR
STARTCHAR 0114
ENCODING 276
SWIDTH 540 0
DWIDTH 12 0
BBX 9 20 2 0
BITMAP
6100
3E00
0C00
0000
FF80
FF80
C000
C000
C000
C000
C000
FF80
FF80
C000
C000
C000
C000
C000
FF80
FF80
ENDCHAR
STARTCHAR 0115
ENCODING 277
SWIDTH 540 0
DWIDTH 12 0
BBX 10 16 1 0
BITMAP
2180
1F00
0400
0000
1F00
3B80
60C0
60C0
C0C0
FFC0
C000
C000
6000
6000
39C0
1FC0
ENDCHAR
STARTCHAR 0116
ENCODING 278
SWIDTH 540 0
DWIDTH 12 0
BBX 9 20 2 0
BITMAP
0C00
0C00
0000
0000
FF80
FF80
C000
C000
C000
C000
C000
FF80
FF80
C000
C000
C000
C000
C000
FF80
FF80
ENDCHAR
STARTCHAR 0117
ENCODING 279
SWIDTH 540 0
DWIDTH 12 0
BBX 10 16 1 0
BITMAP
0C00
0C00
0000
0000
1F00
3B80
60C0
60C0
C0C0
FFC0
C000
C000
6000
6000
39C0
1FC0
ENDCHAR
STARTCHAR 0118
ENCODING 280
SWIDTH 540 0
DWIDTH 12 0
BBX 9 21 2 -5
BITMAP
FF80
FF80
C000
C000
C000
C000
C000
FF80
FF80
C000
C000
C000
C000
C000
FF80
FF80
0300
0200
0600
0600
0380
ENDCHAR
STARTCHAR 0119
ENCODING 281
SWIDTH 540 0
DWIDTH 12 0
BBX 10 17 1 -5
BITMAP
1F00
3B80
60C0
60C0
C0C0
FFC0
C000
C000
6000
6000
39C0
1FC0
0180
0300
0300
0340
01C0
ENDCHAR
STARTCHAR 011A
ENCODING 282
SWIDTH 540 0
DWIDTH 12 0
BBX 9 21 2 0
BITMAP
6300
3600
1E00
0C00
0000
FF80
FF80
C000
C000
C000
C000
C000
FF80
FF80
C000
C000
C000
C000
C000
FF80
FF80
ENDCHAR
STARTCHAR 011B
ENCODING 283
SWIDTH 540 0
DWIDTH 12 0
BBX 10 17 1 0
BITMAP
3180
1B00
0E00
0C00
0000
1F00
3B80
60C0
60C0
C0C0
FFC0
C000
C000
6000
6000
39C0
1FC0
ENDCHAR
STARTCHAR 011C
ENCODING 284
SWIDTH 720 0
DWIDTH 16 0
BBX 14 21 1 0
BITMAP
0180
03C0
0660
0C30
0000
07F0
1FF8
3808
7000
6000
6000
E000
C000
C0FC
E00C
600C
600C
700C
380C
1FFC
0FF8
ENDCHAR
STARTCHAR 011D
ENCODING 285
SWIDTH 585 0
DWIDTH 13 0
BBX 11 22 1 -5
BITMAP
0E00
1F00
1980
2080
0000
1F60
3FE0
60E0
6060
C060
C060
C060
C060
6060
60E0
71E0
1F60
0060
0060
00C0
61C0
7F80
ENDCHAR
STARTCHAR 011E
ENCODING 286
SWIDTH 720 0
DWIDTH 16 0
BBX 14 20 1 0
BITMAP
0420
07E0
0180
0000
07F0
1FF8
3808
7000
6000
6000
E000
C000
C0FC
E00C
600C
600C
700C
380C
1FFC
0FF8
ENDCHAR
STARTCHAR 011F
ENCODING 287
SWIDTH 585 0
DWIDTH 13 0
BBX 11 21 1 -5
BITMAP
3180
1F00
0400
0000
1F60
3FE0
60E0
6060
C060
C060
C060
C060
6060
60E0
71E0
1F60
0060
0060
00C0
61C0
7F80
ENDCHAR
STARTCHAR 0120
ENCODING 288
SWIDTH 720 0
DWIDTH 16 0
BBX 14 20 1 0
BITMAP
0180
0180
0000
0000
07F0
1FF8
3808
7000
6000
6000
E000
C000
C0FC
E00C
600C
600C
700C
380C
1FFC
0FF8
ENDCHAR
STARTCHAR 0121
ENCODING 289
SWIDTH 585 0
DWIDTH 13 0
BBX 11 21 1 -5
BITMAP
0600
0600
0000
0000
1F60
3FE0
60E0
6060
C060
C060
C060
C060
6060
60E0
71E0
1F60
0060
0060
00C0
61C0
7F80
ENDCHAR
STARTCHAR 0122
ENCODING 290
SWIDTH 720 0
DWIDTH 16 0
BBX 14 21 1 -5
BITMAP
07F0
1FF8
3808
7000
6000
6000
E000
C000
C0FC
E00C
600C
600C
700C
380C
1FFC
0FF8
0000
0180
0180
0180
0100
ENDCHAR
STARTCHAR 0123
ENCODING 291
SWIDTH 585 0
DWIDTH 13 0
BBX 11 22 1 -5
BITMAP
0200
0600
0400
0C00
0000
1F60
3FE0
60E0
6060
C060
C060
C060
C060
6060
60E0
71E0
1F60
0060
0060
00C0
61C0
7F80
ENDCHAR
STARTCHAR 0124
ENCODING 292
SWIDTH 720 0
DWIDTH 16 0
BBX 12 21 2 0
BITMAP
0700
0F00
1980
30C0
0000
C030
C030
C030
C030
C030
C030
C030
FFF0
FFF0
C030
C030
C030
C030
C030
C030
C030
ENDCHAR
STARTCHAR 0125
ENCODING 293
SWIDTH 585 0
DWIDTH 13 0
BBX 13 22 -1 0
BITMAP
1800
3C00
6600
C300
0000
1800
1800
1800
1800
1800
1BE0
1FF0
1C18
1818
1818
1818
1818
1818
1818
1818
1818
1818
ENDCHAR
STARTCHAR 0126
ENCODING 294
SWIDTH 720 0
DWIDTH 16 0
BBX 16 16 0 0
BITMAP
300C
300C
300C
FFFF
300C
300C
300C
3FFC
3FFC
300C
300C
300C
300C
300C
300C
300C
ENDCHAR
STARTCHAR 0127
ENCODING 295
SWIDTH 585 0
DWIDTH 13 0
BBX 12 17 0 0
BITMAP
3000
3000
FF80
FF80
3000
3380
3FE0
3870
3030
3030
3030
3030
3030
3030
3030
3030
3030
ENDCHAR
STARTCHAR 0128
ENCODING 296
SWIDTH 315 0
DWIDTH 7 0
BBX 8 20 0 0
BITMAP
F3
9E
84
00
7E
3C
18
18
18
18
18
18
18
18
18
18
18
18
38
7E
ENDCHAR
STARTCHAR 0129
ENCODING 297
SWIDTH 225 0
DWIDTH 5 0
BBX 8 16 -1 0
BITMAP
71
9E
84
00
18
18
18
18
18
18
18
18
18
18
18
18
ENDCHAR
STARTCHAR 012A
ENCODING 298
SWIDTH 315 0
DWIDTH 7 0
BBX 7 19 0 0
BITMAP
FE
FE
00
7E
3C
18
18
18
18
18
18
18
18
18
18
18
18
38
7E
ENDCHAR
STARTCHAR 012B
ENCODING 299
SWIDTH 225 0
DWIDTH 5 0
BBX 6 15 0 0
BITMAP
FC
FC
00
30
30
30
30
30
30
30
30
30
30
30
30
ENDCHAR
STARTCHAR 012C
ENCODING 300
SWIDTH 315 0
DWIDTH 7 0
BBX 7 20 0 0
BITMAP
C2
7C
18
00
7E
3C
18
18
18
18
18
18
18
18
18
18
18
18
38
7E
ENDCHAR
STARTCHAR 012D
ENCODING 301
SWIDTH 225 0
DWIDTH 5 0
BBX 6 16 0 0
BITMAP
84
FC
20
00
30
30
30
30
30
30
30
30
30
30
30
30
ENDCHAR
STARTCHAR 012E
ENCODING 302
SWIDTH 315 0
DWIDTH 7 0
BBX 6 21 1 -5
BITMAP
FC
78
30
30
30
30
30
30
30
30
30
30
30
30
70
FC
18
30
30
34
1C
ENDCHAR
STARTCHAR 012F
ENCODING 303
SWIDTH 225 0
DWIDTH 5 0
BBX 3 21 1 -5
BITMAP
60
60
00
00
60
60
60
60
60
60
60
60
60
60
60
60
40
80
80
C0
E0
ENDCHAR
STARTCHAR 0130
ENCODING 304
SWIDTH 315 0
DWIDTH 7 0
BBX 6 20 1 0
BITMAP
30
30
00
00
FC
78
30
30
30
30
30
30
30
30
30
30
30
30
70
FC
ENDCHAR
STARTCHAR 0131
ENCODING 305
SWIDTH 225 0
DWIDTH 5 0
BBX 2 12 2 0
BITMAP
C0
C0
C0
C0
C0
C0
C0
C0
C0
C0
C0
C0
ENDCHAR
STARTCHAR 0132
ENCODING 306
SWIDTH 585 0
DWIDTH 13 0
BBX 11 20 1 -4
BITMAP
FC60
7860
3060
3060
3060
3060
3060
3060
3060
3060
3060
3060
3060
3060
7060
FC60
0060
00C0
07C0
0780
ENDCHAR
STARTCHAR 0133
ENCODING 307
SWIDTH 495 0
DWIDTH 11 0
BBX 8 21 2 -5
BITMAP
C3
C3
00
00
C3
C3
C3
C3
C3
C3
C3
C3
C3
C3
C3
C3
03
03
03
06
1E
ENDCHAR
STARTCHAR 0134
ENCODING 308
SWIDTH 270 0
DWIDTH 6 0
BBX 9 25 -2 -4
BITMAP
0C00
1E00
3300
6180
0000
0C00
0C00
0C00
0C00
0C00
0C00
0C00
0C00
0C00
0C00
0C00
0C00
0C00
0C00
0C00
0C00
0C00
0C00
F800
F000
ENDCHAR
STARTCHAR 0135
ENCODING 309
SWIDTH 225 0
DWIDTH 5 0
BBX 8 22 -1 -5
BITMAP
38
3C
66
83
00
18
18
18
18
18
18
18
18
18
18
18
18
18
18
18
38
F0
ENDCHAR
STARTCHAR 0136
ENCODING 310
SWIDTH 585 0
DWIDTH 13 0
BBX 11 21 2 -5
BITMAP
C060
C0C0
C180
C300
C700
CE00
DC00
DC00
FC00
E600
C700
C300
C180
C0C0
C0E0
C060
0000
0600
0400
0C00
0800
ENDCHAR
STARTCHAR 0137
ENCODING 311
SWIDTH 495 0
DWIDTH 11 0
BBX 9 22 2 -5
BITMAP
C000
C000
C000
C000
C000
C180
C300
C600
CC00
D800
F800
FC00
CC00
C600
C700
C380
C180
0000
1800
1800
1800
1000
ENDCHAR
STARTCHAR 0138
ENCODING 312
SWIDTH 495 0
DWIDTH 11 0
BBX 9 12 2 0
BITMAP
C180
C300
C600
CC00
DC00
F800
FC00
CC00
C600
C300
C380
C180
ENDCHAR
STARTCHAR 0139
ENCODING 313
SWIDTH 495 0
DWIDTH 11 0
BBX 9 21 2 0
BITMAP
3000
6000
4000
8000
0000
C000
C000
C000
C000
C000
C000
C000
C000
C000
C000
C000
C000
C000
C000
FF80
FF80
ENDCHAR
STARTCHAR 013A
ENCODING 314
SWIDTH 225 0
DWIDTH 5 0
BBX 4 22 2 0
BITMAP
30
60
C0
80
00
C0
C0
C0
C0
C0
C0
C0
C0
C0
C0
C0
C0
C0
C0
C0
C0
C0
ENDCHAR
STARTCHAR 013B
ENCODING 315
SWIDTH 495 0
DWIDTH 11 0
BBX 9 21 2 -5
BITMAP
C000
C000
C000
C000
C000
C000
C000
C000
C000
C000
C000
C000
C000
C000
FF80
FF80
0000
0C00
0C00
0800
1800
ENDCHAR
STARTCHAR 013C
ENCODING 316
SWIDTH 225 0
DWIDTH 5 0
BBX 3 22 1 -5
BITMAP
60
60
60
60
60
60
60
60
60
60
60
60
60
60
60
60
60
00
60
60
40
C0
ENDCHAR
STARTCHAR 013D
ENCODING 317
SWIDTH 495 0
DWIDTH 11 0
BBX 9 16 2 0
BITMAP
C180
C180
C100
C300
C000
C000
C000
C000
C000
C000
C000
C000
C000
C000
FF80
FF80
ENDCHAR
STARTCHAR 013E
ENCODING 318
SWIDTH 225 0
DWIDTH 5 0
BBX 5 17 2 0
BITMAP
C8
D8
D8
D0
C0
C0
C0
C0
C0
C0
C0
C0
C0
C0
C0
C0
C0
ENDCHAR
STARTCHAR 013F
ENCODING 319
SWIDTH 495 0
DWIDTH 11 0
BBX 9 16 2 0
BITMAP
C000
C000
C000
C000
C000
C000
C000
C700
C700
C000
C000
C000
C000
C000
FF80
FF80
ENDCHAR
STARTCHAR 0140
ENCODING 320
SWIDTH 225 0
DWIDTH 5 0
BBX 5 17 2 0
BITMAP
C0
C0
C0
C0
C0
C0
C0
D0
D8
D8
C0
C0
C0
C0
C0
C0
C0
ENDCHAR
STARTCHAR 0141
ENCODING 321
SWIDTH 495 0
DWIDTH 11 0
BBX 10 16 1 0
BITMAP
6000
6000
6000
6000
6000
6000
6600
7C00
7800
E000
E000
6000
6000
6000
7FC0
7FC0
ENDCHAR
STARTCHAR 0142
ENCODING 322
SWIDTH 225 0
DWIDTH 5 0
BBX 6 17 0 0
BITMAP
30
30
30
30
30
30
30
3C
38
70
F0
30
30
30
30
30
30
ENDCHAR
STARTCHAR 0143
ENCODING 323
SWIDTH 720 0
DWIDTH 16 0
BBX 13 21 2 0
BITMAP
01C0
0180
0300
0600
0000
E018
E018
F018
F818
D818
CC18
CE18
C618
C318
C398
C198
C1D8
C0D8
C078
C078
C038
ENDCHAR
STARTCHAR 0144
ENCODING 324
SWIDTH 585 0
DWIDTH 13 0
BBX 10 17 2 0
BITMAP
0300
0600
0C00
0800
0000
DF00
FF80
E0C0
C0C0
C0C0
C0C0
C0C0
C0C0
C0C0
C0C0
C0C0
C0C0
ENDCHAR
STARTCHAR 0145
ENCODING 325
SWIDTH 720 0
DWIDTH 16 0
BBX 13 21 2 -5
BITMAP
E018
E018
F018
F818
D818
CC18
CE18
C618
C318
C398
C198
C1D8
C0D8
C078
C078
C038
0000
0300
0300
0600
0400
ENDCHAR
STARTCHAR 0146
ENCODING 326
SWIDTH 585 0
DWIDTH 13 0
BBX 10 17 2 -5
BITMAP
DF00
FF80
E0C0
C0C0
C0C0
C0C0
C0C0
C0C0
C0C0
C0C0
C0C0
C0C0
0000
0C00
0C00
0800
1800
ENDCHAR
STARTCHAR 0147
ENCODING 327
SWIDTH 720 0
DWIDTH 16 0
BBX 13 21 2 0
BITMAP
18C0
0D80
0700
0600
0000
E018
E018
F018
F818
D818
CC18
CE18
C618
C318
C398
C198
C1D8
C0D8
C078
C078
C038
ENDCHAR
STARTCHAR 0148
ENCODING 328
SWIDTH 585 0
DWIDTH 13 0
BBX 10 17 2 0
BITMAP
6100
3600
1E00
0C00
0000
DF00
FF80
E0C0
C0C0
C0C0
C0C0
C0C0
C0C0
C0C0
C0C0
C0C0
C0C0
ENDCHAR
STARTCHAR 0149
ENCODING 329
SWIDTH 675 0
DWIDTH 15 0
BBX 14 16 0 0
BITMAP
6000
6000
6000
4000
D9F0
9BF8
1C18
1C18
180C
180C
180C
180C
180C
180C
180C
180C
ENDCHAR
STARTCHAR 014A
ENCODING 330
SWIDTH 720 0
DWIDTH 16 0
BBX 13 20 2 -4
BITMAP
E018
E018
F018
F818
D818
CC18
CE18
C618
C318
C398
C198
C0D8
C0F8
C078
C038
C018
0018
0018
01F0
01E0
ENDCHAR
STARTCHAR 014B
ENCODING 331
SWIDTH 585 0
DWIDTH 13 0
BBX 10 17 2 -5
BITMAP
DF00
FF80
E0C0
C0C0
C0C0
C0C0
C0C0
C0C0
C0C0
C0C0
C0C0
C0C0
00C0
00C0
00C0
01C0
0780
ENDCHAR
STARTCHAR 014C
ENCODING 332
SWIDTH 765 0
DWIDTH 17 0
BBX 15 19 1 0
BITMAP
0FE0
0FE0
0000
0FE0
1FF8
3818
700C
600C
6006
E006
C006
C006
E006
6006
600C
700C
301C
1FF8
0FE0
ENDCHAR
STARTCHAR 014D
ENCODING 333
SWIDTH 585 0
DWIDTH 13 0
BBX 11 15 1 0
BITMAP
3F80
3F80
0000
1F00
3FC0
60C0
6060
C060
C060
C060
C060
6060
60E0
39C0
1F80
ENDCHAR
STARTCHAR 014E
ENCODING 334
SWIDTH 765 0
DWIDTH 17 0
BBX 15 20 1 0
BITMAP
0C20
07C0
0180
0000
0FE0
1FF8
3818
700C
600C
6006
E006
C006
C006
E006
6006
600C
700C
301C
1FF8
0FE0
ENDCHAR
STARTCHAR 014F
ENCODING 335
SWIDTH 585 0
DWIDTH 13 0
BBX 11 16 1 0
BITMAP
3080
1F00
0400
0000
1F00
3FC0
60C0
6060
C060
C060
C060
C060
6060
60E0
39C0
1F80
ENDCHAR
STARTCHAR 0150
ENCODING 336
SWIDTH 765 0
DWIDTH 17 0
BBX 15 21 1 0
BITMAP
0760
0660
0CC0
0880
0000
0FE0
1FF8
3818
700C
600C
6006
E006
C006
C006
E006
6006
600C
700C
301C
1FF8
0FE0
ENDCHAR
STARTCHAR 0151
ENCODING 337
SWIDTH 585 0
DWIDTH 13 0
BBX 11 17 1 0
BITMAP
1DC0
1980
3300
2200
0000
1F00
3FC0
60C0
6060
C060
C060
C060
C060
6060
60E0
39C0
1F80
ENDCHAR
STARTCHAR 0152
ENCODING 338
SWIDTH 900 0
DWIDTH 20 0
BBX 18 16 1 0
BITMAP
0FFFC0
1FFFC0
383000
703000
603000
603000
E03000
C03FC0
C03FC0
E03000
603000
603000
703000
303000
1FFFC0
0FFFC0
ENDCHAR
STARTCHAR 0153
ENCODING 339
SWIDTH 945 0
DWIDTH 21 0
BBX 19 12 1 0
BITMAP
1F0F80
3FBFC0
60F0C0
606060
C06060
C07FE0
C06000
C06000
606000
60F000
399CC0
1F0FC0
ENDCHAR
STARTCHAR 0154
ENCODING 340
SWIDTH 585 0
DWIDTH 13 0
BBX 11 21 2 0
BITMAP
0300
0600
0C00
0800
0000
FE00
FF80
C1C0
C0C0
C0C0
C0C0
C0C0
C380
FF00
C600
C300
C180
C180
C0C0
C0E0
C060
ENDCHAR
STARTCHAR 0155
ENCODING 341
SWIDTH 405 0
DWIDTH 9 0
BBX 7 17 2 0
BITMAP
0C
1C
18
20
00
DE
FE
E0
C0
C0
C0
C0
C0
C0
C0
C0
C0
ENDCHAR
STARTCHAR 0156
ENCODING 342
SWIDTH 585 0
DWIDTH 13 0
BBX 11 21 2 -5
BITMAP
FE00
FF80
C1C0
C0C0
C0C0
C0C0
C0C0
C380
FF00
C600
C300
C180
C180
C0C0
C0E0
C060
0000
0600
0400
0C00
0800
ENDCHAR
STARTCHAR 0157
ENCODING 343
SWIDTH 405 0
DWIDTH 9 0
BBX 8 17 1 -5
BITMAP
6F
7F
70
60
60
60
60
60
60
60
60
60
00
60
60
40
C0
ENDCHAR
STARTCHAR 0158
ENCODING 344
SWIDTH 585 0
DWIDTH 13 0
BBX 11 21 2 0
BITMAP
6100
3700
1E00
0C00
0000
FE00
FF80
C1C0
C0C0
C0C0
C0C0
C0C0
C380
FF00
C600
C300
C180
C180
C0C0
C0E0
C060
ENDCHAR
STARTCHAR 0159
ENCODING 345
SWIDTH 405 0
DWIDTH 9 0
BBX 7 17 2 0
BITMAP
C6
6C
38
30
00
DE
FE
E0
C0
C0
C0
C0
C0
C0
C0
C0
C0
ENDCHAR
STARTCHAR 015A
ENCODING 346
SWIDTH 540 0
DWIDTH 12 0
BBX 10 21 1 0
BITMAP
0300
0700
0600
0C00
0000
1F80
7FC0
6000
C000
C000
6000
7000
3E00
0F80
03C0
00C0
00C0
00C0
00C0
FF80
FF00
ENDCHAR
STARTCHAR 015B
ENCODING 347
SWIDTH 450 0
DWIDTH 10 0
BBX 9 17 1 0
BITMAP
0600
0E00
0C00
1000
0000
3F00
7700
C000
C000
E000
3C00
0F00
0300
0180
0180
E700
FE00
ENDCHAR
STARTCHAR 015C
ENCODING 348
SWIDTH 540 0
DWIDTH 12 0
BBX 10 21 1 0
BITMAP
0E00
1E00
3300
2080
0000
1F80
7FC0
6000
C000
C000
6000
7000
3E00
0F80
03C0
00C0
00C0
00C0
00C0
FF80
FF00
ENDCHAR
STARTCHAR 015D
ENCODING 349
SWIDTH 450 0
DWIDTH 10 0
BBX 9 17 1 0
BITMAP
1C00
3C00
6600
4100
0000
3F00
7700
C000
C000
E000
3C00
0F00
0300
0180
0180
E700
FE00
ENDCHAR
STARTCHAR 015E
ENCODING 350
SWIDTH 540 0
DWIDTH 12 0
BBX 10 21 1 -5
BITMAP
1F80
7FC0
6000
C000
C000
6000
7000
3E00
0F80
03C0
00C0
00C0
00C0
00C0
FF80
FF00
0800
0C00
0600
0600
1C00
ENDCHAR
STARTCHAR 015F
ENCODING 351
SWIDTH 450 0
DWIDTH 10 0
BBX 9 17 1 -5
BITMAP
3F00
7700
C000
C000
E000
3C00
0F00
0300
0180
0180
E700
FE00
0800
1C00
0400
0400
3C00
ENDCHAR
STARTCHAR 0160
ENCODING 352
SWIDTH 540 0
DWIDTH 12 0
BBX 10 21 1 0
BITMAP
3180
1B00
0E00
0C00
0000
1F80
7FC0
6000
C000
C000
6000
7000
3E00
0F80
03C0
00C0
00C0
00C0
00C0
FF80
FF00
ENDCHAR
STARTCHAR 0161
ENCODING 353
SWIDTH 450 0
DWIDTH 10 0
BBX 9 17 1 0
BITMAP
6300
3600
1C00
1800
0000
3F00
7700
C000
C000
E000
3C00
0F00
0300
0180
0180
E700
FE00
ENDCHAR
STARTCHAR 0162
ENCODING 354
SWIDTH 540 0
DWIDTH 12 0
BBX 12 21 0 -5
BITMAP
FFF0
FFF0
0600
0600
0600
0600
0600
0600
0600
0600
0600
0600
0600
0600
0600
0600
0200
0600
0100
0100
0F00
ENDCHAR
STARTCHAR 0163
ENCODING 355
SWIDTH 360 0
DWIDTH 8 0
BBX 8 20 0 -5
BITMAP
10
30
30
7E
FE
30
30
30
30
30
30
30
30
39
1F
08
0C
06
06
1C
ENDCHAR
STARTCHAR 0164
ENCODING 356
SWIDTH 540 0
DWIDTH 12 0
BBX 12 21 0 0
BITMAP
10C0
0D80
0F00
0600
0000
FFF0
FFF0
0600
0600
0600
0600
0600
0600
0600
0600
0600
0600
0600
0600
0600
0600
ENDCHAR
STARTCHAR 0165
ENCODING 357
SWIDTH 360 0
DWIDTH 8 0
BBX 10 17 0 0
BITMAP
00C0
00C0
10C0
3080
3000
7E00
FE00
3000
3000
3000
3000
3000
3000
3000
3000
3900
1F00
ENDCHAR
STARTCHAR 0166
ENCODING 358
SWIDTH 540 0
DWIDTH 12 0
BBX 12 16 0 0
BITMAP
FFF0
FFF0
0600
0600
0600
0600
0600
3FC0
3FC0
0600
0600
0600
0600
0600
0600
0600
ENDCHAR
STARTCHAR 0167
ENCODING 359
SWIDTH 360 0
DWIDTH 8 0
BBX 8 15 0 0
BITMAP
10
30
30
7E
FE
30
30
7E
7E
30
30
30
30
39
1F
ENDCHAR
STARTCHAR 0168
ENCODING 360
SWIDTH 720 0
DWIDTH 16 0
BBX 12 20 2 0
BITMAP
1E40
37C0
2100
0000
C030
C030
C030
C030
C030
C030
C030
C030
C030
C030
C030
C030
C030
6060
7FE0
1F80
ENDCHAR
STARTCHAR 0169
ENCODING 361
SWIDTH 585 0
DWIDTH 13 0
BBX 10 16 2 0
BITMAP
3880
4F00
4200
0000
C0C0
C0C0
C0C0
C0C0
C0C0
C0C0
C0C0
C0C0
C0C0
C1C0
F7C0
7EC0
ENDCHAR
STARTCHAR 016A
ENCODING 362
SWIDTH 720 0
DWIDTH 16 0
BBX 12 19 2 0
BITMAP
1F80
1F80
0000
C030
C030
C030
C030
C030
C030
C030
C030
C030
C030
C030
C030
C030
6060
7FE0
1F80
ENDCHAR
STARTCHAR 016B
ENCODING 363
SWIDTH 585 0
DWIDTH 13 0
BBX 10 15 2 0
BITMAP
3F00
3F00
0000
C0C0
C0C0
C0C0
C0C0
C0C0
C0C0
C0C0
C0C0
C0C0
C1C0
F7C0
7EC0
ENDCHAR
STARTCHAR 016C
ENCODING 364
SWIDTH 720 0
DWIDTH 16 0
BBX 12 20 2 0
BITMAP
1080
1F80
0600
0000
C030
C030
C030
C030
C030
C030
C030
C030
C030
C030
C030
C030
C030
6060
7FE0
1F80
ENDCHAR
STARTCHAR 016D
ENCODING 365
SWIDTH 585 0
DWIDTH 13 0
BBX 10 16 2 0
BITMAP
2100
3F00
0800
0000
C0C0
C0C0
C0C0
C0C0
C0C0
C0C0
C0C0
C0C0
C0C0
C1C0
F7C0
7EC0
ENDCHAR
STARTCHAR 016E
ENCODING 366
SWIDTH 720 0
DWIDTH 16 0
BBX 12 22 2 0
BITMAP
0F00
0900
0980
0F00
0600
0000
C030
C030
C030
C030
C030
C030
C030
C030
C030
C030
C030
C030
C030
6060
7FE0
1F80
ENDCHAR
STARTCHAR 016F
ENCODING 367
SWIDTH 585 0
DWIDTH 13 0
BBX 10 18 2 0
BITMAP
1E00
3200
3200
1E00
0800
0000
C0C0
C0C0
C0C0
C0C0
C0C0
C0C0
C0C0
C0C0
C0C0
C1C0
F7C0
7EC0
ENDCHAR
STARTCHAR 0170
ENCODING 368
SWIDTH 720 0
DWIDTH 16 0
BBX 12 21 2 0
BITMAP
0CC0
1980
1100
2200
0000
C030
C030
C030
C030
C030
C030
C030
C030
C030
C030
C030
C030
C030
6060
7FE0
1F80
ENDCHAR
STARTCHAR 0171
ENCODING 369
SWIDTH 585 0
DWIDTH 13 0
BBX 10 17 2 0
BITMAP
1B80
3300
6600
4400
0000
C0C0
C0C0
C0C0
C0C0
C0C0
C0C0
C0C0
C0C0
C0C0
C1C0
F7C0
7EC0
ENDCHAR
STARTCHAR 0172
ENCODING 370
SWIDTH 720 0
DWIDTH 16 0
BBX 12 21 2 -5
BITMAP
C030
C030
C030
C030
C030
C030
C030
C030
C030
C030
C030
C030
C030
6060
7FE0
1FC0
0080
0180
0100
0180
00C0
ENDCHAR
STARTCHAR 0173
ENCODING 371
SWIDTH 585 0
DWIDTH 13 0
BBX 10 17 2 -5
BITMAP
C0C0
C0C0
C0C0
C0C0
C0C0
C0C0
C0C0
C0C0
C0C0
C1C0
F7C0
7EC0
0180
0100
0300
0300
01C0
ENDCHAR
STARTCHAR 0174
ENCODING 372
SWIDTH 900 0
DWIDTH 20 0
BBX 20 21 0 0
BITMAP
007000
00F000
019800
010400
000000
C06030
607030
607030
60F060
60D860
30D860
319860
318CC0
318CC0
1B0CC0
1B0CC0
1B0780
0B0780
0E0780
0E0380
0E0300
ENDCHAR
STARTCHAR 0175
ENCODING 373
SWIDTH 765 0
DWIDTH 17 0
BBX 17 17 0 0
BITMAP
01C000
01E000
033000
041800
000000
C0C180
61C180
61E180
616300
636300
332300
323200
363600
161600
1E1E00
1C1C00
1C1C00
ENDCHAR
STARTCHAR 0176
ENCODING 374
SWIDTH 540 0
DWIDTH 12 0
BBX 12 21 0 0
BITMAP
0700
0F00
1980
1040
0000
C030
6030
6060
3060
30C0
18C0
1D80
0D80
0700
0600
0600
0600
0600
0600
0600
0600
ENDCHAR
STARTCHAR 0177
ENCODING 375
SWIDTH 495 0
DWIDTH 11 0
BBX 11 22 0 -5
BITMAP
0E00
0F00
1980
2080
0000
C060
6060
60C0
60C0
30C0
3180
1980
1980
1B00
0F00
0E00
0600
0600
0C00
0C00
1800
F000
ENDCHAR
STARTCHAR 0178
ENCODING 376
SWIDTH 540 0
DWIDTH 12 0
BBX 12 20 0 0
BITMAP
1980
1980
0000
0000
C030
6030
6060
3060
30C0
18C0
1D80
0D80
0700
0600
0600
0600
0600
0600
0600
0600
ENDCHAR
STARTCHAR 0179
ENCODING 377
SWIDTH 540 0
DWIDTH 12 0
BBX 11 21 1 0
BITMAP
0380
0300
0600
0C00
0000
FFE0
FFE0
00C0
0180
0380
0300
0600
0E00
0C00
1800
3800
3000
6000
E000
FFE0
FFE0
ENDCHAR
STARTCHAR 017A
ENCODING 378
SWIDTH 450 0
DWIDTH 10 0
BBX 9 17 1 0
BITMAP
0600
0C00
0C00
1000
0000
FF00
FF00
0300
0600
0C00
0C00
1800
3000
7000
6000
FF80
FF80
ENDCHAR
STARTCHAR 017B
ENCODING 379
SWIDTH 540 0
DWIDTH 12 0
BBX 11 20 1 0
BITMAP
0E00
0C00
0000
0000
FFE0
FFE0
00C0
0180
0380
0300
0600
0E00
0C00
1800
3800
3000
6000
E000
FFE0
FFE0
ENDCHAR
STARTCHAR 017C
ENCODING 380
SWIDTH 450 0
DWIDTH 10 0
BBX 9 16 1 0
BITMAP
1800
1800
0000
0000
FF00
FF00
0300
0600
0C00
0C00
1800
3000
7000
6000
FF80
FF80
ENDCHAR
STARTCHAR 017D
ENCODING 381
SWIDTH 540 0
DWIDTH 12 0
BBX 11 21 1 0
BITMAP
3180
1B00
0E00
0C00
0000
FFE0
FFE0
00C0
0180
0380
0300
0600
0E00
0C00
1800
3800
3000
6000
E000
FFE0
FFE0
ENDCHAR
STARTCHAR 017E
ENCODING 382
SWIDTH 450 0
DWIDTH 10 0
BBX 9 17 1 0
BITMAP
6300
3600
3C00
1800
0000
FF00
FF00
0300
0600
0C00
0C00
1800
3000
7000
6000
FF80
FF80
ENDCHAR
STARTCHAR 017F
ENCODING 383
SWIDTH 315 0
DWIDTH 7 0
BBX 6 17 2 0
BITMAP
3C
FC
C0
C0
C0
C0
C0
C0
C0
C0
C0
C0
C0
C0
C0
C0
C0
ENDCHAR
STARTCHAR 0180
ENCODING 384
SWIDTH 585 0
DWIDTH 13 0
BBX 12 17 0 0
BITMAP
3000
3000
FF80
FF80
3000
37C0
3FE0
3830
3030
3030
3030
3030
3030
3030
3830
3CE0
27C0
ENDCHAR
STARTCHAR 0181
ENCODING 385
SWIDTH 720 0
DWIDTH 16 0
BBX 15 16 0 0
BITMAP
7FF0
FFFC
CC0C
CC0C
0C0C
0C0C
0C1C
0FF0
0FFC
0C0E
0C06
0C06
0C06
0C0E
0FFC
0FF0
ENDCHAR
STARTCHAR 0182
ENCODING 386
SWIDTH 585 0
DWIDTH 13 0
BBX 11 16 2 0
BITMAP
FFC0
FFC0
C000
C000
C000
C000
C000
FF00
FFC0
C0C0
C0C0
C0E0
C0C0
C0C0
FF80
FF00
ENDCHAR
STARTCHAR 0183
ENCODING 387
SWIDTH 585 0
DWIDTH 13 0
BBX 10 17 2 0
BITMAP
FF80
FF80
C000
C000
C000
DF00
FF80
E0C0
C0C0
C0C0
C0C0
C0C0
C0C0
C0C0
E0C0
F380
9F00
ENDCHAR
STARTCHAR 0184
ENCODING 388
SWIDTH 630 0
DWIDTH 14 0
BBX 11 16 2 0
BITMAP
C000
C000
C000
C000
C000
C000
C000
FF80
FFC0
C0E0
C060
C060
C060
E0E0
7BC0
3F80
ENDCHAR
STARTCHAR 0185
ENCODING 389
SWIDTH 585 0
DWIDTH 13 0
BBX 10 17 2 0
BITMAP
C000
C000
C000
C000
C000
DF00
FF80
E1C0
C0C0
C0C0
C0C0
C0C0
C0C0
C0C0
E0C0
7380
3F00
ENDCHAR
STARTCHAR 0186
ENCODING 390
SWIDTH 630 0
DWIDTH 14 0
BBX 12 16 1 0
BITMAP
7F00
FF80
81C0
00E0
0060
0060
0070
0030
0030
0070
0060
0060
00E0
01C0
FF80
FF00
ENDCHAR
STARTCHAR 0187
ENCODING 391
SWIDTH 630 0
DWIDTH 14 0
BBX 14 19 1 0
BITMAP
001C
001C
0010
07F0
1FF0
3800
7000
6000
6000
E000
C000
C000
E000
6000
6000
7000
3800
1FF0
0FF0
ENDCHAR
STARTCHAR 0188
ENCODING 392
SWIDTH 495 0
DWIDTH 11 0
BBX 11 17 1 0
BITMAP
00E0
01E0
0180
0180
0180
1F80
3F80
6000
6000
C000
C000
C000
C000
6000
6000
3B80
1F80
ENDCHAR
STARTCHAR 0189
ENCODING 393
SWIDTH 720 0
DWIDTH 16 0
BBX 14 16 1 0
BITMAP
7F80
7FE0
6070
6038
6018
601C
600C
FE0C
FE0C
600C
601C
6018
6038
6070
7FE0
7F80
ENDCHAR
STARTCHAR 018A
ENCODING 394
SWIDTH 810 0
DWIDTH 18 0
BBX 17 16 0 0
BITMAP
7FF000
FFFC00
CC0E00
CC0700
0C0300
0C0300
0C0380
0C0180
0C0180
0C0380
0C0300
0C0300
0C0700
0C0E00
0FFC00
0FF000
ENDCHAR
STARTCHAR 018B
ENCODING 395
SWIDTH 585 0
DWIDTH 13 0
BBX 11 16 1 0
BITMAP
7FE0
7FE0
0060
0060
0060
0060
0060
1FE0
7FE0
6060
C060
C060
C060
6060
7FE0
1FE0
ENDCHAR
STARTCHAR 018C
ENCODING 396
SWIDTH 585 0
DWIDTH 13 0
BBX 11 17 1 0
BITMAP
7FE0
7FE0
0060
0060
0060
1F60
3BE0
60E0
60E0
C060
C060
C060
C060
E060
60E0
7BE0
3F60
ENDCHAR
STARTCHAR 018D
ENCODING 397
SWIDTH 585 0
DWIDTH 13 0
BBX 10 17 2 -5
BITMAP
3F00
7780
C1C0
C0C0
C0C0
80C0
C0C0
C0C0
6180
7300
1E00
0700
0300
0180
0300
FF00
7E00
ENDCHAR
STARTCHAR 018E
ENCODING 398
SWIDTH 540 0
DWIDTH 12 0
BBX 9 16 1 0
BITMAP
FF80
FF80
0180
0180
0180
0180
0180
7F80
7F80
0180
0180
0180
0180
0180
FF80
FF80
ENDCHAR
STARTCHAR 018F
ENCODING 399
SWIDTH 720 0
DWIDTH 16 0
BBX 14 16 1 0
BITMAP
3FC0
7FE0
0030
0018
0018
000C
000C
FFFC
FFFC
C00C
E00C
601C
6018
7038
3FF0
0FC0
ENDCHAR
STARTCHAR 0190
ENCODING 400
SWIDTH 585 0
DWIDTH 13 0
BBX 11 16 1 0
BITMAP
1F80
3FE0
7000
6000
6000
6000
3800
0F80
3F80
6000
C000
C000
C000
6000
78E0
3FE0
ENDCHAR
STARTCHAR 0191
ENCODING 401
SWIDTH 585 0
DWIDTH 13 0
BBX 13 21 0 -5
BITMAP
0FF8
0FF8
0C00
0C00
0C00
0C00
0C00
0FF0
0FF0
0C00
0C00
0C00
0C00
0C00
0C00
0C00
0C00
8C00
CC00
DC00
F800
ENDCHAR
STARTCHAR 0192
ENCODING 402
SWIDTH 405 0
DWIDTH 9 0
BBX 10 22 0 -5
BITMAP
03C0
07C0
0C00
0C00
0C00
3F80
3F80
0C00
0C00
0C00
0C00
0C00
0C00
0C00
0C00
0C00
0C00
0C00
0C00
8C00
DC00
F800
ENDCHAR
STARTCHAR 0193
ENCODING 403
SWIDTH 720 0
DWIDTH 16 0
BBX 16 19 1 0
BITMAP
000F
000F
0008
07F8
1FF8
3808
7000
6000
6000
E000
C000
C0FC
E00C
600C
600C
700C
380C
1FFC
0FF8
ENDCHAR
STARTCHAR 0194
ENCODING 404
SWIDTH 540 0
DWIDTH 12 0
BBX 13 21 0 -5
BITMAP
C038
6030
6030
6060
3060
3060
30C0
18C0
1980
0D80
0D80
0F00
0700
0600
0700
0F00
0D80
0D80
0D80
0D80
0F00
ENDCHAR
STARTCHAR 0195
ENCODING 405
SWIDTH 900 0
DWIDTH 20 0
BBX 17 17 2 0
BITMAP
C00000
C00000
C00000
C00000
C00000
DF0180
FF8180
E18180
C18180
C18180
C18180
C18180
C18180
C18180
C0C180
C0E700
C07E00
ENDCHAR
STARTCHAR 0196
ENCODING 406
SWIDTH 315 0
DWIDTH 7 0
BBX 6 16 2 0
BITMAP
C0
C0
C0
C0
C0
C0
C0
C0
C0
C0
C0
C0
C0
C0
FC
7C
ENDCHAR
STARTCHAR 0197
ENCODING 407
SWIDTH 315 0
DWIDTH 7 0
BBX 6 16 1 0
BITMAP
FC
78
30
30
30
30
30
FC
FC
30
30
30
30
30
70
FC
ENDCHAR
STARTCHAR 0198
ENCODING 408
SWIDTH 585 0
DWIDTH 13 0
BBX 11 16 2 0
BITMAP
C060
C0E0
C180
C300
C600
CE00
CC00
DC00
FC00
E600
C700
C380
C180
C0C0
C0E0
C060
ENDCHAR
STARTCHAR 0199
ENCODING 409
SWIDTH 495 0
DWIDTH 11 0
BBX 9 17 2 0
BITMAP
7000
F000
C000
C000
C000
C180
C300
C600
CC00
D800
F800
FC00
CC00
C600
C700
C380
C180
ENDCHAR
STARTCHAR 019A
ENCODING 410
SWIDTH 225 0
DWIDTH 5 0
BBX 5 17 0 0
BITMAP
30
30
30
30
30
30
30
30
F8
30
30
30
30
30
30
30
30
ENDCHAR
STARTCHAR 019B
ENCODING 411
SWIDTH 540 0
DWIDTH 12 0
BBX 12 17 0 0
BITMAP
7000
7900
0F80
3C00
0600
0600
0E00
0F00
0B00
1900
1980
3180
30C0
60C0
60C0
6060
C070
ENDCHAR
STARTCHAR 019C
ENCODING 412
SWIDTH 990 0
DWIDTH 22 0
BBX 19 16 2 0
BITMAP
C0C060
C0C060
C0C060
C0C060
C0C060
C0C060
C0C060
C0C060
C0C060
C0C060
C0C060
C0C060
C0C0E0
C1E0E0
7F7F60
3E3E60
ENDCHAR
STARTCHAR 019D
ENCODING 413
SWIDTH 720 0
DWIDTH 16 0
BBX 15 21 0 -5
BITMAP
3806
3806
3C06
3E06
3606
3306
3386
3186
30C6
30E6
3066
3076
3036
301E
301E
300E
3000
3000
3000
7000
E000
ENDCHAR
STARTCHAR 019E
ENCODING 414
SWIDTH 585 0
DWIDTH 13 0
BBX 10 17 2 -5
BITMAP
DF00
FF80
E1C0
C0C0
C0C0
C0C0
C0C0
C0C0
C0C0
C0C0
C0C0
C0C0
00C0
00C0
00C0
00C0
00C0
ENDCHAR
STARTCHAR 019F
ENCODING 415
SWIDTH 765 0
DWIDTH 17 0
BBX 15 16 1 0
BITMAP
0FE0
1FF8
3818
700C
600C
6006
E006
FFFE
FFFE
E006
6006
600C
700C
301C
1FF8
0FE0
ENDCHAR
STARTCHAR 01A0
ENCODING 416
SWIDTH 765 0
DWIDTH 17 0
BBX 17 17 1 0
BITMAP
000180
0FE180
1FFB00
381E00
700C00
600C00
600600
E00600
C00600
C00600
E00600
600600
600C00
700C00
301800
1FF800
0FE000
ENDCHAR
STARTCHAR 01A1
ENCODING 417
SWIDTH 585 0
DWIDTH 13 0
BBX 13 14 1 0
BITMAP
0018
0018
1F18
3FF0
60E0
6060
C060
C060
C060
C060
6060
60E0
39C0
1F80
ENDCHAR
STARTCHAR 01A2
ENCODING 418
SWIDTH 1035 0
DWIDTH 23 0
BBX 21 16 1 0
BITMAP
0FC3E0
1FF7F0
303838
701818
600C18
600C18
E00C18
C00C18
C00C18
E00C18
600C18
600C18
601818
303818
1FF018
0FE018
ENDCHAR
STARTCHAR 01A3
ENCODING 419
SWIDTH 810 0
DWIDTH 18 0
BBX 16 17 1 -5
BITMAP
1F3E
3FFE
60C3
60C3
C063
C063
C063
C063
60C3
60C3
3B83
1F03
0003
0003
0003
0003
0003
ENDCHAR
STARTCHAR 01A4
ENCODING 420
SWIDTH 675 0
DWIDTH 15 0
BBX 14 16 0 0
BITMAP
7FE0
FFF8
CC1C
CC0C
0C0C
0C0C
0C0C
0C18
0FF0
0FE0
0C00
0C00
0C00
0C00
0C00
0C00
ENDCHAR
STARTCHAR 01A5
ENCODING 421
SWIDTH 585 0
DWIDTH 13 0
BBX 10 22 2 -5
BITMAP
7000
F000
C000
C000
C000
DF00
FF80
E1C0
C0C0
C0C0
C0C0
C0C0
C0C0
C0C0
E0C0
F380
DF00
C000
C000
C000
C000
C000
ENDCHAR
STARTCHAR 01A6
ENCODING 422
SWIDTH 585 0
DWIDTH 13 0
BBX 11 18 2 -2
BITMAP
C000
C000
FC00
FF80
C1C0
C0C0
C0C0
C0C0
C0C0
C1C0
FF00
FE00
C300
C380
C180
C0C0
00C0
0060
ENDCHAR
STARTCHAR 01A7
ENCODING 423
SWIDTH 540 0
DWIDTH 12 0
BBX 10 16 1 0
BITMAP
3F00
7F80
00C0
00C0
00C0
00C0
0380
0F00
3C00
7000
E000
C000
C000
E000
7FC0
3FC0
ENDCHAR
STARTCHAR 01A8
ENCODING 424
SWIDTH 450 0
DWIDTH 10 0
BBX 8 12 1 0
BITMAP
7E
77
01
01
07
1E
78
E0
C0
C0
E3
7F
ENDCHAR
STARTCHAR 01A9
ENCODING 425
SWIDTH 540 0
DWIDTH 12 0
BBX 11 16 1 0
BITMAP
FFE0
FFE0
6000
7000
3800
1C00
0E00
0600
0600
0C00
1800
3000
7000
6000
FFE0
FFE0
ENDCHAR
STARTCHAR 01AA
ENCODING 426
SWIDTH 315 0
DWIDTH 7 0
BBX 9 22 0 -5
BITMAP
7000
F800
C800
F800
7800
0800
0800
0800
0800
0800
0800
0800
0800
0800
0800
0800
0800
0800
0800
0C00
0C00
0F80
ENDCHAR
STARTCHAR 01AB
ENCODING 427
SWIDTH 360 0
DWIDTH 8 0
BBX 8 20 0 -5
BITMAP
10
30
30
7E
FE
30
30
30
30
30
30
30
30
39
1F
03
03
03
06
0E
ENDCHAR
STARTCHAR 01AC
ENCODING 428
SWIDTH 540 0
DWIDTH 12 0
BBX 13 16 0 0
BITMAP
7FF8
FFF8
C300
C300
0300
0300
0300
0300
0300
0300
0300
0300
0300
0300
0300
0300
ENDCHAR
STARTCHAR 01AD
ENCODING 429
SWIDTH 360 0
DWIDTH 8 0
BBX 8 17 0 0
BITMAP
1E
3E
30
30
30
7E
FE
30
30
30
30
30
30
30
30
39
1F
ENDCHAR
STARTCHAR 01AE
ENCODING 430
SWIDTH 540 0
DWIDTH 12 0
BBX 12 21 0 -5
BITMAP
FFF0
FFF0
0600
0600
0600
0600
0600
0600
0600
0600
0600
0600
0600
0600
0600
0600
0600
0600
0600
0740
03C0
ENDCHAR
STARTCHAR 01AF
ENCODING 431
SWIDTH 765 0
DWIDTH 17 0
BBX 16 17 2 0
BITMAP
0003
C033
C032
C03E
C038
C030
C030
C030
C030
C030
C030
C030
C030
C030
6070
7FE0
1FC0
ENDCHAR
STARTCHAR 01B0
ENCODING 432
SWIDTH 630 0
DWIDTH 14 0
BBX 14 14 2 0
BITMAP
000C
0018
C0D8
C0F8
C0E0
C0C0
C0C0
C0C0
C0C0
C0C0
C0C0
C1C0
F7C0
7EC0
ENDCHAR
STARTCHAR 01B1
ENCODING 433
SWIDTH 765 0
DWIDTH 17 0
BBX 16 16 1 0
BITMAP
FC7F
FC7F
1830
3018
300C
600C
6006
6006
C006
C006
E006
600E
600C
301C
3FF8
0FE0
ENDCHAR
STARTCHAR 01B2
ENCODING 434
SWIDTH 720 0
DWIDTH 16 0
BBX 12 16 2 0
BITMAP
C1E0
C1F0
C030
C030
C030
C030
C030
C030
C030
C030
C030
C030
C030
6060
7FE0
1F80
ENDCHAR
STARTCHAR 01B3
ENCODING 435
SWIDTH 540 0
DWIDTH 12 0
BBX 13 16 0 0
BITMAP
C038
6078
6060
30C0
30C0
1980
1D80
0F00
0700
0600
0600
0600
0600
0600
0600
0600
ENDCHAR
STARTCHAR 01B4
ENCODING 436
SWIDTH 540 0
DWIDTH 12 0
BBX 12 17 0 -5
BITMAP
C070
6060
60C0
60C0
30C0
3180
1980
1900
1B00
0F00
0E00
0600
0600
0C00
0C00
1800
F000
ENDCHAR
STARTCHAR 01B5
ENCODING 437
SWIDTH 540 0
DWIDTH 12 0
BBX 11 16 1 0
BITMAP
FFE0
FFE0
00C0
0180
0380
0300
0600
7FC0
7FC0
1800
3800
3000
6000
E000
FFE0
FFE0
ENDCHAR
STARTCHAR 01B6
ENCODING 438
SWIDTH 450 0
DWIDTH 10 0
BBX 9 12 1 0
BITMAP
FF00
FF00
0300
0600
0C00
FF00
FF00
3000
7000
6000
FF80
FF80
ENDCHAR
STARTCHAR 01B7
ENCODING 439
SWIDTH 540 0
DWIDTH 12 0
BBX 11 16 1 0
BITMAP
FFC0
FFC0
0180
0300
0600
0C00
1800
3F00
3FC0
00C0
0060
0060
0060
00C0
E3C0
FF00
ENDCHAR
STARTCHAR 01B8
ENCODING 440
SWIDTH 540 0
DWIDTH 12 0
BBX 11 16 1 0
BITMAP
7FE0
7FE0
3000
1800
0C00
0600
0F00
3F00
7000
E000
C000
C000
E000
6000
78E0
1FE0
ENDCHAR
STARTCHAR 01B9
ENCODING 441
SWIDTH 495 0
DWIDTH 11 0
BBX 10 17 1 -5
BITMAP
FF80
FF80
6000
3000
1800
0C00
0600
1F00
7C00
E000
C000
C000
C000
C000
E000
70C0
3FC0
ENDCHAR
STARTCHAR 01BA
ENCODING 442
SWIDTH 495 0
DWIDTH 11 0
BBX 9 17 1 -5
BITMAP
FF00
FF00
0600
0C00
1800
3C00
3F00
0380
0180
0180
0180
0300
7F00
F800
8000
C200
FE00
ENDCHAR
STARTCHAR 01BB
ENCODING 443
SWIDTH 540 0
DWIDTH 12 0
BBX 11 17 1 0
BITMAP
3E00
7F00
4180
0180
0180
0180
0180
0300
7FC0
0600
0C00
1800
3800
3000
6000
FFE0
FFE0
ENDCHAR
STARTCHAR 01BC
ENCODING 444
SWIDTH 540 0
DWIDTH 12 0
BBX 11 16 1 0
BITMAP
FFC0
FFC0
3000
3000
3000
3000
3E00
3F80
01C0
00E0
0060
0060
00E0
00C0
E380
FF00
ENDCHAR
STARTCHAR 01BD
ENCODING 445
SWIDTH 450 0
DWIDTH 10 0
BBX 9 12 1 0
BITMAP
FF00
FF00
2000
2000
3C00
3F00
0380
0180
0180
0180
C700
FE00
ENDCHAR
STARTCHAR 01BE
ENCODING 446
SWIDTH 450 0
DWIDTH 10 0
BBX 8 15 1 0
BITMAP
10
30
30
FE
FE
30
30
30
3C
1E
07
03
03
C7
FE
ENDCHAR
STARTCHAR 01BF
ENCODING 447
SWIDTH 585 0
DWIDTH 13 0
BBX 10 17 2 -5
BITMAP
DF00
FF80
E1C0
C0C0
C0C0
C0C0
C0C0
C180
C180
C700
DE00
F800
C000
C000
C000
C000
C000
ENDCHAR
STARTCHAR 01C0
ENCODING 448
SWIDTH 315 0
DWIDTH 7 0
BBX 2 17 3 0
BITMAP
C0
C0
C0
C0
C0
C0
C0
C0
C0
C0
C0
C0
C0
C0
C0
C0
C0
ENDCHAR
STARTCHAR 01C1
ENCODING 449
SWIDTH 540 0
DWIDTH 12 0
BBX 6 17 3 0
BITMAP
C4
C4
C4
C4
C4
C4
C4
C4
C4
C4
C4
C4
C4
C4
C4
C4
C4
ENDCHAR
STARTCHAR 01C2
ENCODING 450
SWIDTH 495 0
DWIDTH 11 0
BBX 9 17 1 0
BITMAP
0C00
0C00
0C00
0C00
0C00
0C00
FF80
0C00
0C00
FF80
FF80
0C00
0C00
0C00
0C00
0C00
0C00
ENDCHAR
STARTCHAR 01C3
ENCODING 451
SWIDTH 225 0
DWIDTH 5 0
BBX 2 16 2 0
BITMAP
C0
C0
C0
C0
C0
C0
C0
C0
C0
C0
C0
C0
00
C0
C0
C0
ENDCHAR
STARTCHAR 01C4
ENCODING 452
SWIDTH 1260 0
DWIDTH 28 0
BBX 26 21 2 0
BITMAP
00006300
00003600
00001C00
00001800
00000000
FF01FFC0
FFC1FFC0
C0E00180
C0700300
C0300700
C0380600
C0180C00
C0181C00
C0181800
C0183000
C0387000
C0306000
C070C000
C0E1C000
FFC1FFC0
FF01FFC0
ENDCHAR
STARTCHAR 01C5
ENCODING 453
SWIDTH 1170 0
DWIDTH 26 0
BBX 24 17 2 0
BITMAP
0000C6
FF006C
FFC038
C0E030
C07000
C031FF
C039FF
C01806
C0180C
C0181C
C01818
C03830
C03060
C07060
C0E0C0
FFC1FF
FF01FF
ENDCHAR
STARTCHAR 01C6
ENCODING 454
SWIDTH 1080 0
DWIDTH 24 0
BBX 22 17 1 0
BITMAP
006308
0061B0
0060F0
006060
006000
1F63FC
3BE3FC
60E018
60E018
C06030
C06060
C060E0
C060C0
E06180
60E300
7BE3FC
3F63FC
ENDCHAR
STARTCHAR 01C7
ENCODING 455
SWIDTH 765 0
DWIDTH 17 0
BBX 14 20 2 -4
BITMAP
C00C
C00C
C00C
C00C
C00C
C00C
C00C
C00C
C00C
C00C
C00C
C00C
C00C
C00C
FF8C
FF8C
000C
0018
00F8
00F0
ENDCHAR
STARTCHAR 01C8
ENCODING 456
SWIDTH 765 0
DWIDTH 17 0
BBX 14 21 2 -5
BITMAP
C01C
C01C
C000
C000
C008
C008
C008
C008
C008
C008
C008
C008
C008
C008
FF88
FF88
0008
0008
0018
0018
00F8
ENDCHAR
STARTCHAR 01C9
ENCODING 457
SWIDTH 495 0
DWIDTH 11 0
BBX 8 22 2 -5
BITMAP
C0
C3
C3
C0
C0
C3
C3
C3
C3
C3
C3
C3
C3
C3
C3
C3
C3
03
03
03
06
1E
ENDCHAR
STARTCHAR 01CA
ENCODING 458
SWIDTH 990 0
DWIDTH 22 0
BBX 19 20 2 -4
BITMAP
E01860
E01860
F01860
F81860
D81860
CC1860
CE1860
C61860
C31860
C39860
C19860
C1D860
C0D860
C07860
C07860
C03860
000060
000060
0007C0
000780
ENDCHAR
STARTCHAR 01CB
ENCODING 459
SWIDTH 990 0
DWIDTH 22 0
BBX 19 21 2 -5
BITMAP
E01860
E01860
F01800
F81800
D81860
CC1860
CE1860
C61860
C31860
C39860
C19860
C1D860
C0D860
C07860
C07860
C03860
000060
000060
000060
0000C0
0003C0
ENDCHAR
STARTCHAR 01CC
ENCODING 460
SWIDTH 855 0
DWIDTH 19 0
BBX 16 21 2 -5
BITMAP
0003
0003
0000
0000
DF03
FF83
E0C3
C0C3
C0C3
C0C3
C0C3
C0C3
C0C3
C0C3
C0C3
C0C3
0003
0003
0003
0006
001E
ENDCHAR
STARTCHAR 01CD
ENCODING 461
SWIDTH 630 0
DWIDTH 14 0
BBX 14 21 0 0
BITMAP
1860
0CC0
0780
0300
0000
0300
0380
0780
0780
0CC0
0CC0
0C40
1860
1860
1FF0
3FF0
3030
6018
6018
600C
C00C
ENDCHAR
STARTCHAR 01CE
ENCODING 462
SWIDTH 540 0
DWIDTH 12 0
BBX 10 17 1 0
BITMAP
3180
1B00
1E00
0C00
0000
3F00
3B80
01C0
00C0
00C0
3FC0
70C0
C0C0
C0C0
C1C0
E7C0
7EC0
ENDCHAR
STARTCHAR 01CF
ENCODING 463
SWIDTH 315 0
DWIDTH 7 0
BBX 7 21 0 0
BITMAP
C6
6C
3C
18
00
7E
3C
18
18
18
18
18
18
18
18
18
18
18
18
38
7E
ENDCHAR
STARTCHAR 01D0
ENCODING 464
SWIDTH 225 0
DWIDTH 5 0
BBX 7 17 -1 0
BITMAP
C2
6C
3C
18
00
18
18
18
18
18
18
18
18
18
18
18
18
ENDCHAR
STARTCHAR 01D1
ENCODING 465
SWIDTH 765 0
DWIDTH 17 0
BBX 15 21 1 0
BITMAP
0C60
06C0
0380
0180
0000
0FE0
1FF8
3818
700C
600C
6006
E006
C006
C006
E006
6006
600C
700C
301C
1FF8
0FE0
ENDCHAR
STARTCHAR 01D2
ENCODING 466
SWIDTH 585 0
DWIDTH 13 0
BBX 11 17 1 0
BITMAP
3180
1B00
0E00
0600
0000
1F00
3FC0
60C0
6060
C060
C060
C060
C060
6060
60E0
39C0
1F80
ENDCHAR
STARTCHAR 01D3
ENCODING 467
SWIDTH 720 0
DWIDTH 16 0
BBX 12 21 2 0
BITMAP
10C0
1D80
0F00
0600
0000
C030
C030
C030
C030
C030
C030
C030
C030
C030
C030
C030
C030
C030
6060
7FE0
1F80
ENDCHAR
STARTCHAR 01D4
ENCODING 468
SWIDTH 585 0
DWIDTH 13 0
BBX 10 17 2 0
BITMAP
6100
3600
1E00
0C00
0000
C0C0
C0C0
C0C0
C0C0
C0C0
C0C0
C0C0
C0C0
C0C0
C1C0
F7C0
7EC0
ENDCHAR
STARTCHAR 01D5
ENCODING 469
SWIDTH 720 0
DWIDTH 16 0
BBX 12 23 2 0
BITMAP
1F80
1F80
0000
0000
1980
1880
0000
C030
C030
C030
C030
C030
C030
C030
C030
C030
C030
C030
C030
C030
6060
7FE0
1F80
ENDCHAR
STARTCHAR 01D6
ENCODING 470
SWIDTH 585 0
DWIDTH 13 0
BBX 10 19 2 0
BITMAP
3F00
3F00
0000
2000
3300
2300
0000
C0C0
C0C0
C0C0
C0C0
C0C0
C0C0
C0C0
C0C0
C0C0
C1C0
F7C0
7EC0
ENDCHAR
STARTCHAR 01D7
ENCODING 471
SWIDTH 720 0
DWIDTH 16 0
BBX 12 23 2 0
BITMAP
0180
0300
0600
0000
1980
1880
0000
C030
C030
C030
C030
C030
C030
C030
C030
C030
C030
C030
C030
C030
6060
7FE0
1F80
ENDCHAR
STARTCHAR 01D8
ENCODING 472
SWIDTH 585 0
DWIDTH 13 0
BBX 10 19 2 0
BITMAP
0700
0600
0800
2000
3300
2300
0000
C0C0
C0C0
C0C0
C0C0
C0C0
C0C0
C0C0
C0C0
C0C0
C1C0
F7C0
7EC0
ENDCHAR
STARTCHAR 01D9
ENCODING 473
SWIDTH 720 0
DWIDTH 16 0
BBX 12 24 2 0
BITMAP
30C0
1980
0F00
0600
0000
1980
1880
0000
C030
C030
C030
C030
C030
C030
C030
C030
C030
C030
C030
C030
C030
6060
7FE0
1F80
ENDCHAR
STARTCHAR 01DA
ENCODING 474
SWIDTH 585 0
DWIDTH 13 0
BBX 10 20 2 0
BITMAP
6180
3300
1E00
0C00
2000
3300
2300
0000
C0C0
C0C0
C0C0
C0C0
C0C0
C0C0
C0C0
C0C0
C0C0
C1C0
F7C0
7EC0
ENDCHAR
STARTCHAR 01DB
ENCODING 475
SWIDTH 720 0
DWIDTH 16 0
BBX 12 23 2 0
BITMAP
1C00
0C00
0200
0000
1980
1880
0000
C030
C030
C030
C030
C030
C030
C030
C030
C030
C030
C030
C030
C030
6060
7FE0
1F80
ENDCHAR
STARTCHAR 01DC
ENCODING 476
SWIDTH 585 0
DWIDTH 13 0
BBX 10 19 2 0
BITMAP
3000
1800
0C00
2000
3300
2300
0000
C0C0
C0C0
C0C0
C0C0
C0C0
C0C0
C0C0
C0C0
C0C0
C1C0
F7C0
7EC0
ENDCHAR
STARTCHAR 01DD
ENCODING 477
SWIDTH 540 0
DWIDTH 12 0
BBX 10 12 1 0
BITMAP
7E00
7F80
01C0
00C0
00C0
00C0
FFC0
C0C0
C0C0
61C0
7380
3F00
ENDCHAR
STARTCHAR 01DE
ENCODING 478
SWIDTH 630 0
DWIDTH 14 0
BBX 14 23 0 0
BITMAP
0FC0
0FC0
0000
0000
0CC0
0CC0
0000
0300
0380
0780
0780
0CC0
0CC0
0C40
1860
1860
1FF0
3FF0
3030
6018
6018
600C
C00C
ENDCHAR
STARTCHAR 01DF
ENCODING 479
SWIDTH 540 0
DWIDTH 12 0
BBX 10 19 1 0
BITMAP
3F80
3F80
0000
0100
3300
1100
0000
3F00
3B80
01C0
00C0
00C0
3FC0
70C0
C0C0
C0C0
C1C0
E7C0
7EC0
ENDCHAR
STARTCHAR 01E0
ENCODING 480
SWIDTH 630 0
DWIDTH 14 0
BBX 14 22 0 0
BITMAP
0FC0
0000
0100
0300
0300
0000
0300
0380
0780
0780
0CC0
0CC0
0C40
1860
1860
1FF0
3FF0
3030
6018
6018
600C
C00C
ENDCHAR
STARTCHAR 01E1
ENCODING 481
SWIDTH 540 0
DWIDTH 12 0
BBX 10 19 1 0
BITMAP
3F80
3F80
0000
0C00
0C00
0000
0000
3F00
3B80
01C0
00C0
00C0
3FC0
70C0
C0C0
C0C0
C1C0
E7C0
7EC0
ENDCHAR
STARTCHAR 01E2
ENCODING 482
SWIDTH 855 0
DWIDTH 19 0
BBX 18 19 0 0
BITMAP
00FC00
00FC00
000000
01FFC0
01FFC0
033000
033000
063000
063000
0E3000
0C3FC0
0C3FC0
1FF000
1FF000
303000
303000
603000
603FC0
C03FC0
ENDCHAR
STARTCHAR 01E3
ENCODING 483
SWIDTH 855 0
DWIDTH 19 0
BBX 17 15 1 0
BITMAP
07F000
07F000
000000
3F3E00
77F700
01C380
01C180
01C180
3FFF80
718000
C1C000
C1C000
C1C000
E77380
7E3F00
ENDCHAR
STARTCHAR 01E4
ENCODING 484
SWIDTH 720 0
DWIDTH 16 0
BBX 15 16 1 0
BITMAP
07F0
1FF8
3808
3000
6000
6000
E000
C0FC
C0FC
E00C
600C
60FE
700C
380C
1FFC
0FF8
ENDCHAR
STARTCHAR 01E5
ENCODING 485
SWIDTH 585 0
DWIDTH 13 0
BBX 12 17 1 -5
BITMAP
1F60
7FE0
60E0
E060
C060
C060
C060
C060
60E0
70E0
3F60
0C60
0060
07F0
00E0
61C0
7F80
ENDCHAR
STARTCHAR 01E6
ENCODING 486
SWIDTH 720 0
DWIDTH 16 0
BBX 14 21 1 0
BITMAP
0C30
0660
03C0
0180
0000
07F0
1FF8
3808
7000
6000
6000
E000
C000
C0FC
E00C
600C
600C
700C
380C
1FFC
0FF8
ENDCHAR
STARTCHAR 01E7
ENCODING 487
SWIDTH 585 0
DWIDTH 13 0
BBX 11 22 1 -5
BITMAP
3180
1B00
0E00
0600
0000
1F60
3FE0
60E0
6060
C060
C060
C060
C060
6060
60E0
71E0
1F60
0060
0060
00C0
61C0
7F80
ENDCHAR
STARTCHAR 01E8
ENCODING 488
SWIDTH 585 0
DWIDTH 13 0
BBX 11 21 2 0
BITMAP
3180
1B00
0E00
0E00
0000
C060
C0C0
C180
C300
C700
CE00
DC00
DC00
FC00
E600
C700
C300
C180
C0C0
C0E0
C060
ENDCHAR
STARTCHAR 01E9
ENCODING 489
SWIDTH 495 0
DWIDTH 11 0
BBX 12 22 -1 0
BITMAP
C200
6C00
3C00
1800
0000
1800
1800
1800
1800
1800
1830
1860
18C0
1980
1B00
1F00
1F80
1980
18C0
18E0
1870
1830
ENDCHAR
STARTCHAR 01EA
ENCODING 490
SWIDTH 765 0
DWIDTH 17 0
BBX 15 21 1 -5
BITMAP
0FE0
1FF8
3818
700C
600C
6006
E006
C006
C006
E006
6006
600C
700C
301C
1FF8
0FE0
0180
0300
0300
0340
01C0
ENDCHAR
STARTCHAR 01EB
ENCODING 491
SWIDTH 585 0
DWIDTH 13 0
BBX 11 17 1 -5
BITMAP
1F00
3FC0
60C0
6060
C060
C060
C060
C060
6060
60E0
39C0
1F80
0600
0C00
0C00
0D00
0700
ENDCHAR
STARTCHAR 01EC
ENCODING 492
SWIDTH 765 0
DWIDTH 17 0
BBX 15 24 1 -5
BITMAP
0FE0
0FE0
0000
0FE0
1FF8
3818
700C
600C
6006
E006
C006
C006
E006
6006
600C
700C
301C
1FF8
0FE0
0180
0100
0300
0300
01C0
ENDCHAR
STARTCHAR 01ED
ENCODING 493
SWIDTH 585 0
DWIDTH 13 0
BBX 11 20 1 -5
BITMAP
3F80
3F80
0000
1F00
3FC0
60C0
6060
C060
C060
C060
C060
6060
60E0
39C0
1F80
0600
0C00
0C00
0D00
0700
ENDCHAR
STARTCHAR 01EE
ENCODING 494
SWIDTH 540 0
DWIDTH 12 0
BBX 11 21 1 0
BITMAP
2180
3B00
1E00
0C00
0000
FFC0
FFC0
0180
0300
0600
0C00
1800
3F00
3FC0
00C0
0060
0060
0060
00C0
E3C0
FF00
ENDCHAR
STARTCHAR 01EF
ENCODING 495
SWIDTH 495 0
DWIDTH 11 0
BBX 10 22 0 -5
BITMAP
3180
1B00
1E00
0C00
0000
7FC0
7FC0
0180
0300
0600
0C00
1800
1E00
0F80
01C0
00C0
00C0
00C0
00C0
00C0
C380
FF00
ENDCHAR
STARTCHAR 01F0
ENCODING 496
SWIDTH 225 0
DWIDTH 5 0
BBX 7 22 -1 -5
BITMAP
C2
6C
3C
18
00
18
18
18
18
18
18
18
18
18
18
18
18
18
18
18
38
F0
ENDCHAR
STARTCHAR 01F1
ENCODING 497
SWIDTH 1260 0
DWIDTH 28 0
BBX 26 16 2 0
BITMAP
FF01FFC0
FFC1FFC0
C0E00180
C0700300
C0300700
C0380600
C0180C00
C0181C00
C0181800
C0183000
C0387000
C0306000
C070C000
C0E1C000
FFC1FFC0
FF01FFC0
ENDCHAR
STARTCHAR 01F2
ENCODING 498
SWIDTH 1170 0
DWIDTH 26 0
BBX 24 16 2 0
BITMAP
FF0000
FFC000
C0E000
C07000
C031FF
C039FF
C01806
C0180C
C0181C
C01818
C03830
C03060
C07060
C0E0C0
FFC1FF
FF01FF
ENDCHAR
STARTCHAR 01F3
ENCODING 499
SWIDTH 1080 0
DWIDTH 24 0
BBX 22 17 1 0
BITMAP
006000
006000
006000
006000
006000
1F63FC
3BE3FC
60E018
60E018
C06030
C06060
C060E0
C060C0
E06180
60E300
7BE3FC
3F63FC
ENDCHAR
STARTCHAR 01F4
ENCODING 500
SWIDTH 720 0
DWIDTH 16 0
BBX 14 21 1 0
BITMAP
0060
00C0
0180
0100
0000
07F0
1FF8
3808
7000
6000
6000
E000
C000
C0FC
E00C
600C
600C
700C
380C
1FFC
0FF8
ENDCHAR
STARTCHAR 01F5
ENCODING 501
SWIDTH 585 0
DWIDTH 13 0
BBX 11 22 1 -5
BITMAP
0380
0300
0600
0C00
0000
1F60
3FE0
60E0
6060
C060
C060
C060
C060
6060
60E0
71E0
1F60
0060
0060
00C0
61C0
7F80
ENDCHAR
STARTCHAR 01F6
ENCODING 502
SWIDTH 900 0
DWIDTH 20 0
BBX 17 16 2 0
BITMAP
C06000
C06000
C06000
C06000
C06180
C06180
C06180
FFE180
FFE180
C06180
C06180
C06180
C06180
C06180
C07F00
C03E00
ENDCHAR
STARTCHAR 01F7
ENCODING 503
SWIDTH 630 0
DWIDTH 14 0
BBX 11 21 2 -5
BITMAP
CF80
DFC0
F060
E060
C060
C060
C060
C060
C060
C0C0
C0C0
C180
C300
CE00
FC00
F000
C000
C000
C000
C000
C000
ENDCHAR
STARTCHAR 01F8
ENCODING 504
SWIDTH 720 0
DWIDTH 16 0
BBX 13 21 2 0
BITMAP
0C00
0600
0200
0100
0000
E018
E018
F018
F818
D818
CC18
CE18
C618
C318
C398
C198
C1D8
C0D8
C078
C078
C038
ENDCHAR
STARTCHAR 01F9
ENCODING 505
SWIDTH 585 0
DWIDTH 13 0
BBX 10 17 2 0
BITMAP
3800
1800
0C00
0400
0000
DF00
FF80
E0C0
C0C0
C0C0
C0C0
C0C0
C0C0
C0C0
C0C0
C0C0
C0C0
ENDCHAR
STARTCHAR 01FA
ENCODING 506
SWIDTH 630 0
DWIDTH 14 0
BBX 14 21 0 0
BITMAP
01C0
0180
0200
0300
0480
04C0
0480
0300
0780
0680
0CC0
0CC0
0860
1860
1820
3FF0
3FF0
6018
6018
600C
C00C
ENDCHAR
STARTCHAR 01FB
ENCODING 507
SWIDTH 540 0
DWIDTH 12 0
BBX 10 21 1 0
BITMAP
0700
0C00
0000
0E00
1300
1100
1E00
0400
0000
3F00
3B80
01C0
00C0
00C0
3FC0
70C0
C0C0
C0C0
C1C0
E7C0
7EC0
ENDCHAR
STARTCHAR 01FC
ENCODING 508
SWIDTH 855 0
DWIDTH 19 0
BBX 18 21 0 0
BITMAP
000C00
001800
003000
002000
000000
01FFC0
01FFC0
033000
033000
063000
063000
0E3000
0C3FC0
0C3FC0
1FF000
1FF000
303000
303000
603000
603FC0
C03FC0
ENDCHAR
STARTCHAR 01FD
ENCODING 509
SWIDTH 855 0
DWIDTH 19 0
BBX 17 17 1 0
BITMAP
007000
006000
00C000
008000
000000
3F3E00
77F700
01C380
01C180
01C180
3FFF80
718000
C1C000
C1C000
C1C000
E77380
7E3F00
ENDCHAR
STARTCHAR 01FE
ENCODING 510
SWIDTH 765 0
DWIDTH 17 0
BBX 15 22 1 -1
BITMAP
00E0
00C0
0180
0100
0000
0FEC
1FF8
3818
703C
606C
60C6
E0C6
C186
C306
E306
6606
6C0C
780C
381C
3FF8
6FE0
2000
ENDCHAR
STARTCHAR 01FF
ENCODING 511
SWIDTH 585 0
DWIDTH 13 0
BBX 11 17 1 -1
BITMAP
0380
0300
0600
0400
0040
1F60
3FC0
61C0
61E0
C360
C660
CC60
CC60
7860
70E0
39C0
7F80
ENDCHAR
STARTCHAR 0200
ENCODING 512
SWIDTH 630 0
DWIDTH 14 0
BBX 14 21 0 0
BITMAP
3300
1980
0CC0
0440
0000
0300
0380
0780
0780
0CC0
0CC0
0C40
1860
1860
1FF0
3FF0
3030
6018
6018
600C
C00C
ENDCHAR
STARTCHAR 0201
ENCODING 513
SWIDTH 540 0
DWIDTH 12 0
BBX 10 17 1 0
BITMAP
EE00
6600
3300
1100
0000
3F00
3B80
01C0
00C0
00C0
3FC0
70C0
C0C0
C0C0
C1C0
E7C0
7EC0
ENDCHAR
STARTCHAR 0202
ENCODING 514
SWIDTH 630 0
DWIDTH 14 0
BBX 14 20 0 0
BITMAP
07C0
0840
0840
0000
0300
0380
0780
0780
0CC0
0CC0
0C40
1860
1860
1FF0
3FF0
3030
6018
6018
600C
C00C
ENDCHAR
STARTCHAR 0203
ENCODING 515
SWIDTH 540 0
DWIDTH 12 0
BBX 10 16 1 0
BITMAP
1F00
3100
2180
0000
3F00
3B80
01C0
00C0
00C0
3FC0
70C0
C0C0
C0C0
C1C0
E7C0
7EC0
ENDCHAR
STARTCHAR 0204
ENCODING 516
SWIDTH 540 0
DWIDTH 12 0
BBX 9 21 2 0
BITMAP
CC00
6600
2200
1100
0000
FF80
FF80
C000
C000
C000
C000
C000
FF80
FF80
C000
C000
C000
C000
C000
FF80
FF80
ENDCHAR
STARTCHAR 0205
ENCODING 517
SWIDTH 540 0
DWIDTH 12 0
BBX 10 17 1 0
BITMAP
6E00
6600
3300
1100
0000
1F00
3B80
60C0
60C0
C0C0
FFC0
C000
C000
6000
6000
39C0
1FC0
ENDCHAR
STARTCHAR 0206
ENCODING 518
SWIDTH 540 0
DWIDTH 12 0
BBX 9 20 2 0
BITMAP
3E00
2100
6100
0000
FF80
FF80
C000
C000
C000
C000
C000
FF80
FF80
C000
C000
C000
C000
C000
FF80
FF80
ENDCHAR
STARTCHAR 0207
ENCODING 519
SWIDTH 540 0
DWIDTH 12 0
BBX 10 16 1 0
BITMAP
1F00
3180
2080
0000
1F00
3B80
60C0
60C0
C0C0
FFC0
C000
C000
6000
6000
39C0
1FC0
ENDCHAR
STARTCHAR 0208
ENCODING 520
SWIDTH 315 0
DWIDTH 7 0
BBX 8 21 -1 0
BITMAP
CC
66
22
11
00
3F
1E
0C
0C
0C
0C
0C
0C
0C
0C
0C
0C
0C
0C
1C
3F
ENDCHAR
STARTCHAR 0209
ENCODING 521
SWIDTH 225 0
DWIDTH 5 0
BBX 8 17 -2 0
BITMAP
CC
66
22
11
00
0C
0C
0C
0C
0C
0C
0C
0C
0C
0C
0C
0C
ENDCHAR
STARTCHAR 020A
ENCODING 522
SWIDTH 315 0
DWIDTH 7 0
BBX 7 20 0 0
BITMAP
7C
42
C2
00
7E
3C
18
18
18
18
18
18
18
18
18
18
18
18
38
7E
ENDCHAR
STARTCHAR 020B
ENCODING 523
SWIDTH 225 0
DWIDTH 5 0
BBX 7 16 -1 0
BITMAP
7E
42
C2
00
18
18
18
18
18
18
18
18
18
18
18
18
ENDCHAR
STARTCHAR 020C
ENCODING 524
SWIDTH 765 0
DWIDTH 17 0
BBX 15 21 1 0
BITMAP
1980
0CC0
04C0
0260
0000
0FE0
1FF8
3818
700C
600C
6006
E006
C006
C006
E006
6006
600C
700C
301C
1FF8
0FE0
ENDCHAR
STARTCHAR 020D
ENCODING 525
SWIDTH 585 0
DWIDTH 13 0
BBX 11 17 1 0
BITMAP
6600
3300
1100
0880
0000
1F00
3FC0
60C0
6060
C060
C060
C060
C060
6060
60E0
39C0
1F80
ENDCHAR
STARTCHAR 020E
ENCODING 526
SWIDTH 765 0
DWIDTH 17 0
BBX 15 20 1 0
BITMAP
07C0
0C60
0820
0000
0FE0
1FF8
3818
700C
600C
6006
E006
C006
C006
E006
6006
600C
700C
301C
1FF8
0FE0
ENDCHAR
STARTCHAR 020F
ENCODING 527
SWIDTH 585 0
DWIDTH 13 0
BBX 11 16 1 0
BITMAP
1F00
3080
2080
0000
1F00
3FC0
60C0
6060
C060
C060
C060
C060
6060
60E0
39C0
1F80
ENDCHAR
STARTCHAR 0210
ENCODING 528
SWIDTH 585 0
DWIDTH 13 0
BBX 11 21 2 0
BITMAP
CC00
6600
2200
1100
0000
FE00
FF80
C1C0
C0C0
C0C0
C0C0
C0C0
C380
FF00
C600
C300
C180
C180
C0C0
C0E0
C060
ENDCHAR
STARTCHAR 0211
ENCODING 529
SWIDTH 405 0
DWIDTH 9 0
BBX 8 17 1 0
BITMAP
DC
CC
66
22
00
6F
7F
70
60
60
60
60
60
60
60
60
60
ENDCHAR
STARTCHAR 0212
ENCODING 530
SWIDTH 585 0
DWIDTH 13 0
BBX 11 20 2 0
BITMAP
3F00
2100
6100
0000
FE00
FF80
C1C0
C0C0
C0C0
C0C0
C0C0
C380
FF00
C600
C300
C180
C180
C0C0
C0E0
C060
ENDCHAR
STARTCHAR 0213
ENCODING 531
SWIDTH 405 0
DWIDTH 9 0
BBX 7 16 2 0
BITMAP
7C
C6
82
00
DE
FE
E0
C0
C0
C0
C0
C0
C0
C0
C0
C0
ENDCHAR
STARTCHAR 0214
ENCODING 532
SWIDTH 720 0
DWIDTH 16 0
BBX 12 21 2 0
BITMAP
7600
3300
1980
0880
0000
C030
C030
C030
C030
C030
C030
C030
C030
C030
C030
C030
C030
C030
6060
7FE0
1F80
ENDCHAR
STARTCHAR 0215
ENCODING 533
SWIDTH 585 0
DWIDTH 13 0
BBX 10 17 2 0
BITMAP
CC00
6600
2200
1100
0000
C0C0
C0C0
C0C0
C0C0
C0C0
C0C0
C0C0
C0C0
C0C0
C1C0
F7C0
7EC0
ENDCHAR
STARTCHAR 0216
ENCODING 534
SWIDTH 720 0
DWIDTH 16 0
BBX 12 20 2 0
BITMAP
0F80
1880
10C0
0000
C030
C030
C030
C030
C030
C030
C030
C030
C030
C030
C030
C030
C030
6060
7FE0
1F80
ENDCHAR
STARTCHAR 0217
ENCODING 535
SWIDTH 585 0
DWIDTH 13 0
BBX 10 16 2 0
BITMAP
3F00
2100
6100
0000
C0C0
C0C0
C0C0
C0C0
C0C0
C0C0
C0C0
C0C0
C0C0
C1C0
F7C0
7EC0
ENDCHAR
STARTCHAR 0218
ENCODING 536
SWIDTH 540 0
DWIDTH 12 0
BBX 10 21 1 -5
BITMAP
1F80
7FC0
6000
C000
C000
6000
7000
3E00
0F80
03C0
00C0
00C0
00C0
00C0
FF80
FF00
0000
0C00
0C00
0800
1800
ENDCHAR
STARTCHAR 0219
ENCODING 537
SWIDTH 450 0
DWIDTH 10 0
BBX 9 17 1 -5
BITMAP
3F00
7700
C000
C000
E000
3C00
0F00
0300
0180
0180
E700
FE00
0000
0C00
0800
1800
1000
ENDCHAR
STARTCHAR 021A
ENCODING 538
SWIDTH 540 0
DWIDTH 12 0
BBX 12 21 0 -5
BITMAP
FFF0
FFF0
0600
0600
0600
0600
0600
0600
0600
0600
0600
0600
0600
0600
0600
0600
0000
0300
0600
0600
0400
ENDCHAR
STARTCHAR 021B
ENCODING 539
SWIDTH 360 0
DWIDTH 8 0
BBX 8 20 0 -5
BITMAP
10
30
30
7E
FE
30
30
30
30
30
30
30
30
39
1F
00
0C
0C
08
18
ENDCHAR
STARTCHAR 021C
ENCODING 540
SWIDTH 540 0
DWIDTH 12 0
BBX 11 20 1 -4
BITMAP
3F00
FF80
00C0
00C0
00C0
00C0
0380
0F00
3F80
01C0
00C0
00E0
00E0
00C0
00C0
0180
0700
3E00
F800
C000
ENDCHAR
STARTCHAR 021D
ENCODING 541
SWIDTH 495 0
DWIDTH 11 0
BBX 9 17 1 -5
BITMAP
7E00
E700
0300
0180
0300
0300
0E00
3F00
0300
0180
0180
0180
0380
0700
1E00
F800
E000
ENDCHAR
STARTCHAR 021E
ENCODING 542
SWIDTH 720 0
DWIDTH 16 0
BBX 12 21 2 0
BITMAP
10C0
0D80
0F00
0600
0000
C030
C030
C030
C030
C030
C030
C030
FFF0
FFF0
C030
C030
C030
C030
C030
C030
C030
ENDCHAR
STARTCHAR 021F
ENCODING 543
SWIDTH 585 0
DWIDTH 13 0
BBX 13 22 -1 0
BITMAP
C200
6C00
3C00
1800
0000
1800
1800
1800
1800
1800
1BE0
1FF0
1C18
1818
1818
1818
1818
1818
1818
1818
1818
1818
ENDCHAR
STARTCHAR 0220
ENCODING 544
SWIDTH 720 0
DWIDTH 16 0
BBX 12 21 2 -5
BITMAP
CFC0
DFE0
F070
E030
C030
C030
C030
C030
C030
C030
C030
C030
C030
C030
C030
C030
0030
0030
0030
0030
0030
ENDCHAR
STARTCHAR 0221
ENCODING 545
SWIDTH 855 0
DWIDTH 19 0
BBX 18 19 1 -2
BITMAP
006000
006000
006000
006000
006000
1F6000
3BE000
60E000
60E000
C06000
C06000
C06000
C06780
E06DC0
60F8C0
7BBFC0
1F3F00
003000
003000
ENDCHAR
STARTCHAR 0222
ENCODING 546
SWIDTH 630 0
DWIDTH 14 0
BBX 13 16 1 0
BITMAP
6030
6030
6030
6030
3060
3DE0
1FC0
38E0
6030
E030
C018
C038
6030
6030
3FE0
1FC0
ENDCHAR
STARTCHAR 0223
ENCODING 547
SWIDTH 585 0
DWIDTH 13 0
BBX 11 17 1 0
BITMAP
60C0
60C0
60C0
60C0
60C0
70C0
3F80
3F80
60C0
E060
C060
C060
C060
C060
60E0
79C0
1F80
ENDCHAR
STARTCHAR 0224
ENCODING 548
SWIDTH 540 0
DWIDTH 12 0
BBX 11 20 1 -4
BITMAP
FFE0
FFE0
00C0
0180
0380
0300
0600
0E00
0C00
1800
3800
3000
6000
E000
FFE0
FFE0
0060
0060
0060
01C0
ENDCHAR
STARTCHAR 0225
ENCODING 549
SWIDTH 450 0
DWIDTH 10 0
BBX 9 16 1 -4
BITMAP
FF00
FF00
0300
0600
0C00
0C00
1800
3000
7000
6000
FF80
FF80
0180
0180
0300
0700
ENDCHAR
STARTCHAR 0226
ENCODING 550
SWIDTH 630 0
DWIDTH 14 0
BBX 14 20 0 0
BITMAP
0300
0300
0000
0000
0300
0380
0780
0780
0CC0
0CC0
0C40
1860
1860
1FF0
3FF0
3030
6018
6018
600C
C00C
ENDCHAR
STARTCHAR 0227
ENCODING 551
SWIDTH 540 0
DWIDTH 12 0
BBX 10 16 1 0
BITMAP
0C00
0C00
0000
0000
3F00
3B80
01C0
00C0
00C0
3FC0
70C0
C0C0
C0C0
C1C0
E7C0
7EC0
ENDCHAR
STARTCHAR 0228
ENCODING 552
SWIDTH 540 0
DWIDTH 12 0
BBX 9 21 2 -5
BITMAP
FF80
FF80
C000
C000
C000
C000
C000
FF80
FF80
C000
C000
C000
C000
C000
FF80
FF80
0800
0C00
0600
0600
1C00
ENDCHAR
STARTCHAR 0229
ENCODING 553
SWIDTH 540 0
DWIDTH 12 0
BBX 10 17 1 -5
BITMAP
1F00
3B80
60C0
60C0
C0C0
FFC0
C000
C000
6000
6000
39C0
1FC0
0400
0600
0300
0300
0E00
ENDCHAR
STARTCHAR 022A
ENCODING 554
SWIDTH 765 0
DWIDTH 17 0
BBX 15 23 1 0
BITMAP
0FE0
0FE0
0000
0400
0660
0440
0000
0FE0
1FF8
3818
700C
600C
6006
E006
C006
C006
E006
6006
600C
700C
301C
1FF8
0FE0
ENDCHAR
STARTCHAR 022B
ENCODING 555
SWIDTH 585 0
DWIDTH 13 0
BBX 11 19 1 0
BITMAP
3F80
3F80
0000
1100
1980
1100
0000
1F00
3FC0
60C0
6060
C060
C060
C060
C060
6060
60E0
39C0
1F80
ENDCHAR
STARTCHAR 022C
ENCODING 556
SWIDTH 765 0
DWIDTH 17 0
BBX 15 23 1 0
BITMAP
0FE0
0FE0
0000
0720
0FE0
0840
0000
0FE0
1FF8
3818
700C
600C
6006
E006
C006
C006
E006
6006
600C
700C
301C
1FF8
0FE0
ENDCHAR
STARTCHAR 022D
ENCODING 557
SWIDTH 585 0
DWIDTH 13 0
BBX 11 19 1 0
BITMAP
3F80
3F80
0000
1C80
3F80
2100
0000
1F00
3FC0
60C0
6060
C060
C060
C060
C060
6060
60E0
39C0
1F80
ENDCHAR
STARTCHAR 022E
ENCODING 558
SWIDTH 765 0
DWIDTH 17 0
BBX 15 20 1 0
BITMAP
0180
0180
0000
0000
0FE0
1FF8
3818
700C
600C
6006
E006
C006
C006
E006
6006
600C
700C
301C
1FF8
0FE0
ENDCHAR
STARTCHAR 022F
ENCODING 559
SWIDTH 585 0
DWIDTH 13 0
BBX 11 16 1 0
BITMAP
0600
0600
0000
0000
1F00
3FC0
60C0
6060
C060
C060
C060
C060
6060
60E0
39C0
1F80
ENDCHAR
STARTCHAR 0230
ENCODING 560
SWIDTH 765 0
DWIDTH 17 0
BBX 15 22 1 0
BITMAP
0FE0
0000
0100
0180
0180
0000
0FE0
1FF8
3818
700C
600C
6006
E006
C006
C006
E006
6006
600C
700C
301C
1FF8
0FE0
ENDCHAR
STARTCHAR 0231
ENCODING 561
SWIDTH 585 0
DWIDTH 13 0
BBX 11 19 1 0
BITMAP
3F80
3F80
0000
0600
0600
0400
0000
1F00
3FC0
60C0
6060
C060
C060
C060
C060
6060
60E0
39C0
1F80
ENDCHAR
STARTCHAR 0232
ENCODING 562
SWIDTH 540 0
DWIDTH 12 0
BBX 12 19 0 0
BITMAP
1FC0
1FC0
0000
C030
6030
6060
3060
30C0
18C0
1D80
0D80
0700
0600
0600
0600
0600
0600
0600
0600
ENDCHAR
STARTCHAR 0233
ENCODING 563
SWIDTH 495 0
DWIDTH 11 0
BBX 11 20 0 -5
BITMAP
3F80
3F80
0000
C060
6060
60C0
60C0
30C0
3180
1980
1980
1B00
0F00
0E00
0600
0600
0C00
0C00
1800
F000
ENDCHAR
STARTCHAR 0234
ENCODING 564
SWIDTH 360 0
DWIDTH 8 0
BBX 8 18 0 -1
BITMAP
30
30
30
30
30
30
30
30
30
30
30
30
3E
3B
73
73
DE
40
ENDCHAR
STARTCHAR 0235
ENCODING 565
SWIDTH 720 0
DWIDTH 16 0
BBX 14 13 2 -1
BITMAP
DF00
FF80
E0C0
C0C0
C0C0
C0C0
C0C0
C0F8
C0EC
C1C4
C1EC
C37C
0100
ENDCHAR
STARTCHAR 0236
ENCODING 566
SWIDTH 360 0
DWIDTH 8 0
BBX 8 16 0 -1
BITMAP
10
30
30
7E
FE
30
30
30
30
30
3F
3B
71
7B
5F
40
ENDCHAR
STARTCHAR 0237
ENCODING 567
SWIDTH 225 0
DWIDTH 5 0
BBX 5 17 -1 -5
BITMAP
18
18
18
18
18
18
18
18
18
18
18
18
18
18
18
38
F0
ENDCHAR
STARTCHAR 0238
ENCODING 568
SWIDTH 945 0
DWIDTH 21 0
BBX 19 17 1 0
BITMAP
006000
006000
006000
006000
006000
1F6F80
3BFFC0
60F0E0
606060
C06060
C06060
C06060
C06060
E0E060
60F060
7BB9C0
1F1F80
ENDCHAR
STARTCHAR 0239
ENCODING 569
SWIDTH 945 0
DWIDTH 21 0
BBX 19 17 1 -5
BITMAP
1F0F80
3B9FC0
60F0E0
60E060
C06060
C06060
C06060
C06060
E06060
60F0E0
7BF9C0
1F6F80
006000
006000
006000
006000
006000
ENDCHAR
STARTCHAR 023A
ENCODING 570
SWIDTH 630 0
DWIDTH 14 0
BBX 14 19 0 -2
BITMAP
0060
0360
03C0
07C0
07C0
0CC0
0DC0
0DC0
1960
1B60
1FF0
3FF0
3630
6418
6418
6C0C
C80C
0800
1800
ENDCHAR
STARTCHAR 023B
ENCODING 571
SWIDTH 630 0
DWIDTH 14 0
BBX 12 19 1 -2
BITMAP
0020
07F0
1FF0
3850
70C0
60C0
6080
E180
C180
C100
E300
6200
6200
7600
3C00
1FF0
0FF0
0800
0800
ENDCHAR
STARTCHAR 023C
ENCODING 572
SWIDTH 450 0
DWIDTH 10 0
BBX 10 22 1 -5
BITMAP
00C0
0080
0180
0100
0100
1F80
3F80
6200
6600
C400
CC00
CC00
C800
7800
7800
3B80
3F80
2000
2000
6000
4000
4000
ENDCHAR
STARTCHAR 023D
ENCODING 573
SWIDTH 495 0
DWIDTH 11 0
BBX 11 16 0 0
BITMAP
3000
3000
3000
3000
3000
3000
3000
FF00
FF00
3000
3000
3000
3000
3000
3FE0
3FE0
ENDCHAR
STARTCHAR 023E
ENCODING 574
SWIDTH 540 0
DWIDTH 12 0
BBX 12 19 0 -2
BITMAP
0020
FFF0
FFF0
06C0
06C0
0780
0780
0700
0700
0600
0600
0600
0E00
0E00
1E00
1600
3600
2000
6000
ENDCHAR
STARTCHAR 023F
ENCODING 575
SWIDTH 450 0
DWIDTH 10 0
BBX 9 17 1 -5
BITMAP
3F00
7700
C000
C000
E000
3C00
0F00
0300
0180
0180
E700
FE00
3000
1800
1800
0C00
0F80
ENDCHAR
STARTCHAR 0240
ENCODING 576
SWIDTH 450 0
DWIDTH 10 0
BBX 9 17 1 -5
BITMAP
FF00
FF00
0300
0600
0C00
0C00
1800
3000
7000
6000
C000
F000
1800
1800
1800
0C00
0780
ENDCHAR
STARTCHAR 0241
ENCODING 577
SWIDTH 405 0
DWIDTH 9 0
BBX 9 16 0 0
BITMAP
7E00
FF00
0380
0180
0180
0180
0380
0700
0E00
1C00
1800
1800
1800
1800
1800
1800
ENDCHAR
STARTCHAR 0242
ENCODING 578
SWIDTH 405 0
DWIDTH 9 0
BBX 9 12 0 0
BITMAP
7E00
FF00
0380
0180
0180
0180
0300
0700
0E00
1800
1800
1800
ENDCHAR
STARTCHAR 0243
ENCODING 579
SWIDTH 630 0
DWIDTH 14 0
BBX 13 16 0 0
BITMAP
3FC0
3FF0
3030
3018
3018
3030
3070
3FC0
3FF0
3038
FE18
FE18
3018
3038
3FF0
3FE0
ENDCHAR
STARTCHAR 0244
ENCODING 580
SWIDTH 720 0
DWIDTH 16 0
BBX 16 16 0 0
BITMAP
300C
300C
300C
300C
300C
300C
FFFF
FFFF
300C
300C
300C
300C
300C
1818
1FF8
07E0
ENDCHAR
STARTCHAR 0245
ENCODING 581
SWIDTH 585 0
DWIDTH 13 0
BBX 13 16 0 0
BITMAP
0300
0700
0780
0580
0D80
0CC0
18C0
1840
1860
3060
3020
3030
6030
6018
6018
C018
ENDCHAR
STARTCHAR 0246
ENCODING 582
SWIDTH 540 0
DWIDTH 12 0
BBX 9 19 2 -2
BITMAP
0100
FF80
FF80
C200
C200
C600
C600
C400
FF80
FF80
CC00
C800
C800
D800
D800
FF80
FF80
3000
3000
ENDCHAR
STARTCHAR 0247
ENCODING 583
SWIDTH 540 0
DWIDTH 12 0
BBX 10 22 1 -5
BITMAP
00C0
0080
0180
0100
0100
1F00
3B80
62C0
66C0
C4C0
FFC0
CC00
C800
6800
7800
39C0
3FC0
3000
2000
6000
6000
4000
ENDCHAR
STARTCHAR 0248
ENCODING 584
SWIDTH 270 0
DWIDTH 6 0
BBX 8 20 -2 -4
BITMAP
0C
0C
0C
0C
0C
0C
0C
3F
3F
0C
0C
0C
0C
0C
0C
0C
0C
0C
F8
F0
ENDCHAR
STARTCHAR 0249
ENCODING 585
SWIDTH 225 0
DWIDTH 5 0
BBX 7 21 -1 -5
BITMAP
18
18
00
00
18
18
18
18
18
7E
18
18
18
18
18
18
18
18
18
38
F0
ENDCHAR
STARTCHAR 024A
ENCODING 586
SWIDTH 765 0
DWIDTH 17 0
BBX 16 21 1 -5
BITMAP
0FCC
1FEC
303C
701C
600C
600C
E00C
C00C
C00C
E00C
600C
600C
601C
301C
1FEC
0FCC
000C
000C
000C
000E
0007
ENDCHAR
STARTCHAR 024B
ENCODING 587
SWIDTH 585 0
DWIDTH 13 0
BBX 13 17 1 -5
BITMAP
1F60
3BE0
60E0
60E0
C060
C060
C060
C060
E060
60E0
7BE0
3F60
0060
0060
0060
0060
0038
ENDCHAR
STARTCHAR 024C
ENCODING 588
SWIDTH 585 0
DWIDTH 13 0
BBX 13 16 0 0
BITMAP
3F80
3FE0
3070
3030
3030
3030
3030
30E0
FFC0
3180
30C0
3060
3060
3030
3038
3018
ENDCHAR
STARTCHAR 024D
ENCODING 589
SWIDTH 405 0
DWIDTH 9 0
BBX 9 12 0 0
BITMAP
3780
3F80
3800
3000
3000
FE00
3000
3000
3000
3000
3000
3000
ENDCHAR
STARTCHAR 024E
ENCODING 590
SWIDTH 540 0
DWIDTH 12 0
BBX 12 16 0 0
BITMAP
C030
6030
6060
FFF0
FFF0
18C0
1D80
0D80
0700
0600
0600
0600
0600
0600
0600
0600
ENDCHAR
STARTCHAR 024F
ENCODING 591
SWIDTH 495 0
DWIDTH 11 0
BBX 11 17 0 -5
BITMAP
C060
6060
60C0
60C0
FFE0
FFE0
1980
1980
1B00
0F00
0E00
0600
0600
0C00
0C00
1800
F000
ENDCHAR
STARTCHAR 0250
ENCODING 592
SWIDTH 540 0
DWIDTH 12 0
BBX 9 12 2 0
BITMAP
9F00
FB80
E180
C180
C180
C380
FE00
C000
C000
C000
E700
7E00
ENDCHAR
STARTCHAR 0251
ENCODING 593
SWIDTH 585 0
DWIDTH 13 0
BBX 12 12 1 0
BITMAP
1F60
3BE0
60E0
60E0
C060
C060
C060
C060
E060
60E0
7BE0
3F70
ENDCHAR
STARTCHAR 0252
ENCODING 594
SWIDTH 585 0
DWIDTH 13 0
BBX 12 12 0 0
BITMAP
E7C0
FEE0
3830
3030
3030
3030
3030
3030
3030
3830
3CE0
37C0
ENDCHAR
STARTCHAR 0253
ENCODING 595
SWIDTH 585 0
DWIDTH 13 0
BBX 10 17 2 0
BITMAP
7000
F000
C000
C000
C000
DF00
FF80
E0C0
C0C0
C0C0
C0C0
C0C0
C0C0
C0C0
E0C0
F380
9F00
ENDCHAR
STARTCHAR 0254
ENCODING 596
SWIDTH 450 0
DWIDTH 10 0
BBX 8 12 1 0
BITMAP
FC
FE
07
03
03
03
03
03
03
07
DE
FC
ENDCHAR
STARTCHAR 0255
ENCODING 597
SWIDTH 495 0
DWIDTH 11 0
BBX 10 13 1 -1
BITMAP
1F80
3F80
6000
6000
E000
C000
C700
FF80
78C0
60C0
79C0
DF80
C000
ENDCHAR
STARTCHAR 0256
ENCODING 598
SWIDTH 585 0
DWIDTH 13 0
BBX 13 22 1 -5
BITMAP
0060
0060
0060
0060
0060
1F60
3BE0
60E0
60E0
C060
C060
C060
C060
E060
60E0
7BE0
1F60
0060
0060
0060
0060
0038
ENDCHAR
STARTCHAR 0257
ENCODING 599
SWIDTH 585 0
DWIDTH 13 0
BBX 13 17 1 0
BITMAP
0038
0078
0060
0060
0060
1F60
3BE0
60E0
60E0
C060
C060
C060
C060
E060
60E0
7BE0
3F60
ENDCHAR
STARTCHAR 0258
ENCODING 600
SWIDTH 540 0
DWIDTH 12 0
BBX 10 12 1 0
BITMAP
3F00
7F80
61C0
C0C0
C0C0
FFC0
00C0
00C0
00C0
01C0
6780
7F00
ENDCHAR
STARTCHAR 0259
ENCODING 601
SWIDTH 540 0
DWIDTH 12 0
BBX 10 12 1 0
BITMAP
7E00
7F80
01C0
00C0
00C0
00C0
FFC0
C0C0
C0C0
61C0
7380
3F00
ENDCHAR
STARTCHAR 025A
ENCODING 602
SWIDTH 765 0
DWIDTH 17 0
BBX 16 12 1 0
BITMAP
7E00
7F80
01C0
00C0
00F8
0FD8
7ECF
E0CF
C0C0
61C0
7380
3F00
ENDCHAR
STARTCHAR 025B
ENCODING 603
SWIDTH 450 0
DWIDTH 10 0
BBX 9 12 1 0
BITMAP
3F00
7F80
C000
C000
6000
3E00
7E00
C000
C000
C000
F180
3F80
ENDCHAR
STARTCHAR 025C
ENCODING 604
SWIDTH 450 0
DWIDTH 10 0
BBX 9 12 1 0
BITMAP
FE00
FF00
0300
0100
0300
3E00
3F00
0180
0180
0180
C700
FE00
ENDCHAR
STARTCHAR 025D
ENCODING 605
SWIDTH 675 0
DWIDTH 15 0
BBX 14 12 1 0
BITMAP
FE00
FF20
03E0
01E0
0334
3E3C
3F00
0180
0180
0180
C700
FE00
ENDCHAR
STARTCHAR 025E
ENCODING 606
SWIDTH 585 0
DWIDTH 13 0
BBX 11 12 1 0
BITMAP
1F80
3FC0
6060
6060
C060
C780
C7C0
C060
6060
6060
39E0
1FC0
ENDCHAR
STARTCHAR 025F
ENCODING 607
SWIDTH 225 0
DWIDTH 5 0
BBX 7 17 -1 -5
BITMAP
18
18
18
18
18
7E
18
18
18
18
18
18
18
18
18
38
F0
ENDCHAR
STARTCHAR 0260
ENCODING 608
SWIDTH 585 0
DWIDTH 13 0
BBX 13 22 1 -5
BITMAP
0038
0078
0060
0060
0060
1F60
3FE0
60E0
60E0
C060
C060
C060
C060
E060
60E0
71E0
3F60
0060
0060
00C0
61C0
7F80
ENDCHAR
STARTCHAR 0261
ENCODING 609
SWIDTH 585 0
DWIDTH 13 0
BBX 11 17 1 -5
BITMAP
1F60
3FE0
60E0
6060
C060
C060
C060
C060
6060
60E0
71E0
1F60
0060
0060
00C0
61C0
7F80
ENDCHAR
STARTCHAR 0262
ENCODING 610
SWIDTH 540 0
DWIDTH 12 0
BBX 10 12 1 0
BITMAP
1FC0
3FC0
6000
6000
C000
C3C0
C3C0
C0C0
60C0
60C0
39C0
1FC0
ENDCHAR
STARTCHAR 0263
ENCODING 611
SWIDTH 495 0
DWIDTH 11 0
BBX 11 17 0 -5
BITMAP
C060
6060
60C0
30C0
3180
3180
1B00
1B00
0F00
0E00
0E00
0E00
1B00
1B00
1B00
1B00
0E00
ENDCHAR
STARTCHAR 0264
ENCODING 612
SWIDTH 495 0
DWIDTH 11 0
BBX 11 12 0 0
BITMAP
C060
60C0
3180
1980
1B00
0E00
0E00
0F00
1B00
1B00
1B00
0F00
ENDCHAR
STARTCHAR 0265
ENCODING 613
SWIDTH 585 0
DWIDTH 13 0
BBX 10 17 2 -5
BITMAP
C0C0
C0C0
C0C0
C0C0
C0C0
C0C0
C0C0
C0C0
C0C0
C1C0
F7C0
7EC0
00C0
00C0
00C0
00C0
00C0
ENDCHAR
STARTCHAR 0266
ENCODING 614
SWIDTH 585 0
DWIDTH 13 0
BBX 10 17 2 0
BITMAP
7000
F000
C000
C000
C000
DF00
FF80
E0C0
C0C0
C0C0
C0C0
C0C0
C0C0
C0C0
C0C0
C0C0
C0C0
ENDCHAR
STARTCHAR 0267
ENCODING 615
SWIDTH 585 0
DWIDTH 13 0
BBX 10 22 2 -5
BITMAP
7000
F000
C000
C000
C000
DF00
FF80
E0C0
C0C0
C0C0
C0C0
C0C0
C0C0
C0C0
C0C0
C0C0
C0C0
00C0
00C0
00C0
00C0
0380
ENDCHAR
STARTCHAR 0268
ENCODING 616
SWIDTH 225 0
DWIDTH 5 0
BBX 6 16 0 0
BITMAP
30
30
00
00
30
30
30
30
30
FC
30
30
30
30
30
30
ENDCHAR
STARTCHAR 0269
ENCODING 617
SWIDTH 315 0
DWIDTH 7 0
BBX 5 12 2 0
BITMAP
C0
C0
C0
C0
C0
C0
C0
C0
C0
C0
E8
78
ENDCHAR
STARTCHAR 026A
ENCODING 618
SWIDTH 315 0
DWIDTH 7 0
BBX 5 12 1 0
BITMAP
F8
70
30
30
30
30
30
30
30
30
70
F8
ENDCHAR
STARTCHAR 026B
ENCODING 619
SWIDTH 360 0
DWIDTH 8 0
BBX 8 17 0 0
BITMAP
18
18
18
18
18
18
18
79
FF
9E
18
18
18
18
18
18
18
ENDCHAR
STARTCHAR 026C
ENCODING 620
SWIDTH 315 0
DWIDTH 7 0
BBX 8 17 0 0
BITMAP
18
18
18
18
18
18
F8
D8
D8
FF
18
18
18
18
18
18
18
ENDCHAR
STARTCHAR 026D
ENCODING 621
SWIDTH 225 0
DWIDTH 5 0
BBX 5 22 2 -5
BITMAP
C0
C0
C0
C0
C0
C0
C0
C0
C0
C0
C0
C0
C0
C0
C0
C0
C0
C0
C0
C0
E0
78
ENDCHAR
STARTCHAR 026E
ENCODING 622
SWIDTH 630 0
DWIDTH 14 0
BBX 12 22 2 -5
BITMAP
C000
C000
C000
C000
C000
FFE0
FFE0
C0C0
C180
C380
C300
C600
CF80
C3E0
C060
C030
C030
0030
0030
0060
31E0
3F80
ENDCHAR
STARTCHAR 026F
ENCODING 623
SWIDTH 900 0
DWIDTH 20 0
BBX 17 12 2 0
BITMAP
C18180
C18180
C18180
C18180
C18180
C18180
C18180
C18180
C18180
C1C380
E6E780
7C7D80
ENDCHAR
STARTCHAR 0270
ENCODING 624
SWIDTH 900 0
DWIDTH 20 0
BBX 17 17 2 -5
BITMAP
C18180
C18180
C18180
C18180
C18180
C18180
C18180
C18180
C18180
C1C380
E6E780
7C7D80
000180
000180
000180
000180
000180
ENDCHAR
STARTCHAR 0271
ENCODING 625
SWIDTH 900 0
DWIDTH 20 0
BBX 17 17 2 -5
BITMAP
DF3E00
FFFF00
E1C180
C1C180
C18180
C18180
C18180
C18180
C18180
C18180
C18180
C18180
000180
000180
000180
000180
000700
ENDCHAR
STARTCHAR 0272
ENCODING 626
SWIDTH 585 0
DWIDTH 13 0
BBX 13 17 -1 -5
BITMAP
1BE0
1FF0
1C18
1818
1818
1818
1818
1818
1818
1818
1818
1818
1800
1800
1800
3800
F000
ENDCHAR
STARTCHAR 0273
ENCODING 627
SWIDTH 585 0
DWIDTH 13 0
BBX 12 17 2 -5
BITMAP
DF00
FF80
E0C0
C0C0
C0C0
C0C0
C0C0
C0C0
C0C0
C0C0
C0C0
C0C0
00C0
00C0
00C0
00C0
0070
ENDCHAR
STARTCHAR 0274
ENCODING 628
SWIDTH 630 0
DWIDTH 14 0
BBX 10 12 2 0
BITMAP
E0C0
E0C0
F0C0
F0C0
D8C0
CCC0
CCC0
C6C0
C3C0
C3C0
C1C0
C1C0
ENDCHAR
STARTCHAR 0275
ENCODING 629
SWIDTH 585 0
DWIDTH 13 0
BBX 11 12 1 0
BITMAP
1F00
3FC0
60C0
6060
C060
FFE0
FFE0
C060
6060
60E0
39C0
1F80
ENDCHAR
STARTCHAR 0276
ENCODING 630
SWIDTH 855 0
DWIDTH 19 0
BBX 17 12 1 0
BITMAP
1F7F80
3FFF80
60E000
606000
C06000
C07F80
C07F80
C06000
606000
60E000
39FF80
1F7F80
ENDCHAR
STARTCHAR 0277
ENCODING 631
SWIDTH 765 0
DWIDTH 17 0
BBX 15 12 1 0
BITMAP
0FE0
3EF8
301C
600C
6006
C186
C186
C186
C186
6386
77DC
3E78
ENDCHAR
STARTCHAR 0278
ENCODING 632
SWIDTH 720 0
DWIDTH 16 0
BBX 14 22 1 -5
BITMAP
0300
0300
0300
0300
0300
0FC0
3FF0
7338
6318
C30C
C30C
C30C
C30C
6318
6318
3F70
1FE0
0300
0300
0300
0300
0300
ENDCHAR
STARTCHAR 0279
ENCODING 633
SWIDTH 405 0
DWIDTH 9 0
BBX 7 12 0 0
BITMAP
06
06
06
06
06
06
06
06
06
0E
7A
F2
ENDCHAR
STARTCHAR 027A
ENCODING 634
SWIDTH 405 0
DWIDTH 9 0
BBX 7 17 0 0
BITMAP
06
06
06
06
06
06
06
06
06
06
06
06
06
06
0E
7A
F2
ENDCHAR
STARTCHAR 027B
ENCODING 635
SWIDTH 405 0
DWIDTH 9 0
BBX 10 17 0 -5
BITMAP
0600
0600
0600
0600
0600
0600
0600
0600
0600
0E00
7E00
F600
0600
0600
0600
0300
03C0
ENDCHAR
STARTCHAR 027C
ENCODING 636
SWIDTH 405 0
DWIDTH 9 0
BBX 7 17 2 -5
BITMAP
DE
FE
E0
C0
C0
C0
C0
C0
C0
C0
C0
C0
C0
C0
C0
C0
C0
ENDCHAR
STARTCHAR 027D
ENCODING 637
SWIDTH 405 0
DWIDTH 9 0
BBX 7 17 2 -5
BITMAP
DE
FE
E0
C0
C0
C0
C0
C0
C0
C0
C0
C0
C0
C0
C0
E0
78
ENDCHAR
STARTCHAR 027E
ENCODING 638
SWIDTH 315 0
DWIDTH 7 0
BBX 5 12 2 0
BITMAP
78
F8
C0
C0
C0
C0
C0
C0
C0
C0
C0
C0
ENDCHAR
STARTCHAR 027F
ENCODING 639
SWIDTH 315 0
DWIDTH 7 0
BBX 6 17 0 -5
BITMAP
F8
7C
0C
0C
0C
0C
0C
0C
0C
0C
0C
0C
0C
0C
0C
0C
0C
ENDCHAR
STARTCHAR 0280
ENCODING 640
SWIDTH 540 0
DWIDTH 12 0
BBX 10 12 2 0
BITMAP
FE00
FF80
C180
C080
C180
C380
FF00
C600
C300
C300
C180
C1C0
ENDCHAR
STARTCHAR 0281
ENCODING 641
SWIDTH 540 0
DWIDTH 12 0
BBX 10 12 2 0
BITMAP
C0C0
C180
C300
C300
C600
FF00
C780
C180
C080
C180
FF80
FF00
ENDCHAR
STARTCHAR 0282
ENCODING 642
SWIDTH 450 0
DWIDTH 10 0
BBX 9 16 1 -4
BITMAP
3F00
7700
C000
C000
E000
3C00
0F00
0300
0180
0180
E700
FE00
C000
C000
E000
7800
ENDCHAR
STARTCHAR 0283
ENCODING 643
SWIDTH 225 0
DWIDTH 5 0
BBX 7 22 -1 -5
BITMAP
0E
1E
18
18
18
18
18
18
18
18
18
18
18
18
18
18
18
18
18
18
38
F0
ENDCHAR
STARTCHAR 0284
ENCODING 644
SWIDTH 225 0
DWIDTH 5 0
BBX 7 22 -1 -5
BITMAP
0E
1E
18
18
18
18
18
18
18
18
7E
18
18
18
18
18
18
18
18
18
38
F0
ENDCHAR
STARTCHAR 0285
ENCODING 645
SWIDTH 225 0
DWIDTH 5 0
BBX 6 17 0 -5
BITMAP
E0
70
30
30
30
30
30
30
30
30
30
30
30
30
30
30
1C
ENDCHAR
STARTCHAR 0286
ENCODING 646
SWIDTH 225 0
DWIDTH 5 0
BBX 8 22 -2 -5
BITMAP
07
0F
0C
0C
0C
0C
0C
0C
0C
0C
0C
0C
0C
0C
0C
0C
0C
7F
FF
8C
DC
F8
ENDCHAR
STARTCHAR 0287
ENCODING 647
SWIDTH 360 0
DWIDTH 8 0
BBX 8 15 0 -3
BITMAP
F8
DC
0C
0C
0C
0C
0C
0C
0C
0C
7F
7F
0C
0C
08
ENDCHAR
STARTCHAR 0288
ENCODING 648
SWIDTH 360 0
DWIDTH 8 0
BBX 8 20 0 -5
BITMAP
10
30
30
7E
FE
30
30
30
30
30
30
30
30
30
30
30
30
30
39
1F
ENDCHAR
STARTCHAR 0289
ENCODING 649
SWIDTH 585 0
DWIDTH 13 0
BBX 14 12 0 0
BITMAP
3030
3030
3030
3030
3030
FFFC
3030
3030
3030
3070
3DF0
1FB0
ENDCHAR
STARTCHAR 028A
ENCODING 650
SWIDTH 585 0
DWIDTH 13 0
BBX 12 12 1 0
BITMAP
F9F0
F9F0
30C0
60C0
6060
C060
C060
C060
E060
60E0
39C0
1F80
ENDCHAR
STARTCHAR 028B
ENCODING 651
SWIDTH 585 0
DWIDTH 13 0
BBX 10 12 2 0
BITMAP
C780
C7C0
C0C0
C0C0
C0C0
C0C0
C0C0
C0C0
C0C0
C180
7380
3F00
ENDCHAR
STARTCHAR 028C
ENCODING 652
SWIDTH 495 0
DWIDTH 11 0
BBX 11 12 0 0
BITMAP
0E00
0E00
0B00
1B00
1B00
3180
3180
30C0
60C0
60C0
6060
C060
ENDCHAR
STARTCHAR 028D
ENCODING 653
SWIDTH 765 0
DWIDTH 17 0
BBX 17 12 0 0
BITMAP
1C0C00
1C1C00
1E1E00
161600
363600
323200
333300
236300
616300
61E180
61C180
C1C180
ENDCHAR
STARTCHAR 028E
ENCODING 654
SWIDTH 495 0
DWIDTH 11 0
BBX 11 17 0 0
BITMAP
01E0
0380
0300
0600
0600
0E00
0E00
0B00
1B00
1B00
3180
3180
30C0
60C0
60C0
6060
C060
ENDCHAR
STARTCHAR 028F
ENCODING 655
SWIDTH 450 0
DWIDTH 10 0
BBX 10 12 0 0
BITMAP
C0C0
60C0
7180
3300
1B00
1E00
0E00
0C00
0C00
0C00
0C00
0C00
ENDCHAR
STARTCHAR 0290
ENCODING 656
SWIDTH 450 0
DWIDTH 10 0
BBX 11 17 1 -5
BITMAP
FF00
FF00
0300
0600
0C00
0C00
1800
3000
7000
6000
FF80
FF80
0180
0180
0180
0180
01E0
ENDCHAR
STARTCHAR 0291
ENCODING 657
SWIDTH 540 0
DWIDTH 12 0
BBX 11 14 1 -2
BITMAP
FF00
FF00
0300
0600
0C00
0C00
1800
33C0
77E0
6C60
FFE0
FFC0
1800
1000
ENDCHAR
STARTCHAR 0292
ENCODING 658
SWIDTH 495 0
DWIDTH 11 0
BBX 10 17 0 -5
BITMAP
7FC0
7FC0
0180
0300
0600
0C00
1800
1E00
0F80
01C0
00C0
00C0
00C0
00C0
00C0
C380
FF00
ENDCHAR
STARTCHAR 0293
ENCODING 659
SWIDTH 495 0
DWIDTH 11 0
BBX 11 17 0 -5
BITMAP
7FC0
7FC0
0180
0300
0600
0C00
1800
1E00
0F80
01C0
00C0
10C0
FEC0
C7C0
81C0
E3E0
7F60
ENDCHAR
STARTCHAR 0294
ENCODING 660
SWIDTH 405 0
DWIDTH 9 0
BBX 9 17 0 0
BITMAP
3E00
FF00
0380
0180
0180
0180
0300
0700
0E00
1C00
1800
1800
1800
1800
1800
1800
1800
ENDCHAR
STARTCHAR 0295
ENCODING 661
SWIDTH 405 0
DWIDTH 9 0
BBX 8 17 1 0
BITMAP
3E
FF
C1
C0
C0
C0
C0
60
38
1C
0C
0C
0C
0C
0C
0C
0C
ENDCHAR
STARTCHAR 0296
ENCODING 662
SWIDTH 405 0
DWIDTH 9 0
BBX 8 17 1 0
BITMAP
30
30
30
30
30
30
30
30
3C
0E
06
03
03
03
03
CE
FC
ENDCHAR
STARTCHAR 0297
ENCODING 663
SWIDTH 450 0
DWIDTH 10 0
BBX 9 17 1 -5
BITMAP
1F80
3F80
7000
6000
6000
C000
C000
C000
C000
C000
C000
C000
6000
6000
6000
3980
1F80
ENDCHAR
STARTCHAR 0298
ENCODING 664
SWIDTH 765 0
DWIDTH 17 0
BBX 15 16 1 0
BITMAP
0FE0
1FF8
3818
700C
600C
6006
E006
C386
C386
E106
6006
600C
700C
301C
1FF8
0FE0
ENDCHAR
STARTCHAR 0299
ENCODING 665
SWIDTH 540 0
DWIDTH 12 0
BBX 10 12 2 0
BITMAP
FF00
FF80
C180
C180
C180
FF00
FF80
C0C0
C0C0
C0C0
FF80
FF00
ENDCHAR
STARTCHAR 029A
ENCODING 666
SWIDTH 585 0
DWIDTH 13 0
BBX 11 12 1 0
BITMAP
3F00
7FC0
C0C0
C060
6060
3C60
7C60
C060
C060
C0C0
73C0
3F00
ENDCHAR
STARTCHAR 029B
ENCODING 667
SWIDTH 540 0
DWIDTH 12 0
BBX 12 17 1 0
BITMAP
0070
00F0
00C0
00C0
00C0
1FC0
3FC0
6000
6000
C000
C3C0
C3C0
C0C0
60C0
60C0
39C0
1FC0
ENDCHAR
STARTCHAR 029C
ENCODING 668
SWIDTH 630 0
DWIDTH 14 0
BBX 10 12 2 0
BITMAP
C0C0
C0C0
C0C0
C0C0
C0C0
FFC0
FFC0
C0C0
C0C0
C0C0
C0C0
C0C0
ENDCHAR
STARTCHAR 029D
ENCODING 669
SWIDTH 225 0
DWIDTH 5 0
BBX 8 21 -2 -5
BITMAP
0C
0C
00
00
0C
0C
0C
0C
0C
0C
0C
0C
0C
0C
0C
0C
7F
FF
CC
DC
78
ENDCHAR
STARTCHAR 029E
ENCODING 670
SWIDTH 495 0
DWIDTH 11 0
BBX 9 17 1 -5
BITMAP
C180
E180
6180
3180
1980
1F80
0F80
0D80
1980
3180
6180
C180
0180
0180
0180
0180
0180
ENDCHAR
STARTCHAR 029F
ENCODING 671
SWIDTH 405 0
DWIDTH 9 0
BBX 7 12 2 0
BITMAP
C0
C0
C0
C0
C0
C0
C0
C0
C0
C0
FE
FE
ENDCHAR
STARTCHAR 02A0
ENCODING 672
SWIDTH 585 0
DWIDTH 13 0
BBX 13 22 1 -5
BITMAP
0038
0078
0060
0060
0060
1F60
3BE0
60E0
60E0
C060
C060
C060
C060
E060
60E0
7BE0
1F60
0060
0060
0060
0060
0060
ENDCHAR
STARTCHAR 02A1
ENCODING 673
SWIDTH 405 0
DWIDTH 9 0
BBX 9 17 0 0
BITMAP
3E00
FF00
0380
0180
0180
0180
0300
0700
0E00
1C00
1800
1800
7E00
1800
1800
1800
1800
ENDCHAR
STARTCHAR 02A2
ENCODING 674
SWIDTH 405 0
DWIDTH 9 0
BBX 8 17 1 0
BITMAP
3E
FF
C1
C0
C0
C0
C0
60
70
18
08
08
7F
08
08
08
08
ENDCHAR
STARTCHAR 02A3
ENCODING 675
SWIDTH 945 0
DWIDTH 21 0
BBX 19 17 1 0
BITMAP
006000
006000
006000
006000
006000
1F7FE0
3BFFE0
60E060
60E0C0
C06180
C06380
C06300
C06600
E06C00
60EC00
7BFFE0
3F7FE0
ENDCHAR
STARTCHAR 02A4
ENCODING 676
SWIDTH 945 0
DWIDTH 21 0
BBX 20 22 1 -5
BITMAP
006000
006000
006000
006000
006000
1F7FE0
3BFFE0
60E0E0
60E0C0
C06180
C06300
C06600
C06F80
E063E0
60E060
7BE030
3F6030
000030
000030
000060
0030E0
003FC0
ENDCHAR
STARTCHAR 02A5
ENCODING 677
SWIDTH 990 0
DWIDTH 22 0
BBX 22 19 1 -2
BITMAP
006000
006000
006000
006000
006000
1F7FE0
3BFFE0
60E060
60E0C0
C06180
C06380
C06300
C06678
E06CFC
60ED8C
7BFFF8
3F7FF8
000300
000200
ENDCHAR
STARTCHAR 02A6
ENCODING 678
SWIDTH 720 0
DWIDTH 16 0
BBX 16 15 0 0
BITMAP
1000
3000
3000
7FFE
FFEE
3180
3180
30E0
3078
301E
3007
3003
3003
3FFE
1FFC
ENDCHAR
STARTCHAR 02A7
ENCODING 679
SWIDTH 495 0
DWIDTH 11 0
BBX 12 22 0 -5
BITMAP
0070
00F0
10C0
3180
3180
7F80
FF80
3180
3180
3180
3180
3180
3180
3180
3180
3980
1F80
0180
0180
0180
0180
0780
ENDCHAR
STARTCHAR 02A8
ENCODING 680
SWIDTH 855 0
DWIDTH 19 0
BBX 18 15 0 0
BITMAP
100000
300000
300000
7E1F80
FE3F80
307000
306000
306000
306000
306700
307FC0
3078C0
3070C0
39F9C0
1F1F80
ENDCHAR
STARTCHAR 02A9
ENCODING 681
SWIDTH 855 0
DWIDTH 19 0
BBX 17 22 0 -5
BITMAP
0F8000
1F0000
180000
300000
300000
7F9F00
FFFF80
31C180
31C180
318180
318180
318180
318180
318180
318180
318180
318180
000180
000180
000180
000180
000700
ENDCHAR
STARTCHAR 02AA
ENCODING 682
SWIDTH 630 0
DWIDTH 14 0
BBX 12 17 2 0
BITMAP
C000
C000
C000
C000
C000
C7E0
CEE0
D800
D800
CE00
C780
C1E0
C060
C030
C030
F8E0
FFC0
ENDCHAR
STARTCHAR 02AB
ENCODING 683
SWIDTH 585 0
DWIDTH 13 0
BBX 11 17 2 0
BITMAP
C000
C000
C000
C000
C000
FFC0
FFC0
C0C0
C180
C300
C700
C600
CC00
D800
D800
FFE0
FFE0
ENDCHAR
STARTCHAR 02AC
ENCODING 684
SWIDTH 495 0
DWIDTH 11 0
BBX 11 16 0 0
BITMAP
C620
CE60
4A60
4A40
7B40
31C0
3180
3180
0000
C620
4E60
4A40
6B40
79C0
31C0
3180
ENDCHAR
STARTCHAR 02AD
ENCODING 685
SWIDTH 585 0
DWIDTH 13 0
BBX 9 16 2 0
BITMAP
FF80
FF80
C180
C180
C180
0000
0000
0000
0000
0000
0000
FF80
FF80
C180
C180
C180
ENDCHAR
STARTCHAR 02AE
ENCODING 686
SWIDTH 585 0
DWIDTH 13 0
BBX 12 17 0 -5
BITMAP
E030
7030
3030
3030
3030
3030
3030
3030
3030
3070
1CF0
0FB0
0030
0030
0030
0030
0030
ENDCHAR
STARTCHAR 02AF
ENCODING 687
SWIDTH 585 0
DWIDTH 13 0
BBX 14 17 0 -5
BITMAP
E030
7030
3030
3030
3030
3030
3030
3030
3030
3070
1CF0
0FB0
0030
0030
0030
0030
001C
ENDCHAR
STARTCHAR 02B0
ENCODING 688
SWIDTH 360 0
DWIDTH 8 0
BBX 7 11 1 6
BITMAP
80
80
80
98
E4
C6
C2
82
82
82
82
ENDCHAR
STARTCHAR 02B1
ENCODING 689
SWIDTH 360 0
DWIDTH 8 0
BBX 7 11 1 6
BITMAP
60
C0
80
98
E4
C6
C2
82
82
82
82
ENDCHAR
STARTCHAR 02B2
ENCODING 690
SWIDTH 135 0
DWIDTH 3 0
BBX 4 13 -1 3
BITMAP
30
00
20
20
20
20
20
20
20
20
20
20
E0
ENDCHAR
STARTCHAR 02B3
ENCODING 691
SWIDTH 225 0
DWIDTH 5 0
BBX 5 8 1 6
BITMAP
98
A0
C0
80
80
80
80
80
ENDCHAR
STARTCHAR 02B4
ENCODING 692
SWIDTH 225 0
DWIDTH 5 0
BBX 5 8 0 6
BITMAP
18
18
18
18
18
18
28
C8
ENDCHAR
STARTCHAR 02B5
ENCODING 693
SWIDTH 225 0
DWIDTH 5 0
BBX 6 11 0 3
BITMAP
18
18
18
18
18
18
28
D8
18
08
0C
ENDCHAR
STARTCHAR 02B6
ENCODING 694
SWIDTH 360 0
DWIDTH 8 0
BBX 7 8 1 6
BITMAP
86
84
88
F8
84
84
84
F8
ENDCHAR
STARTCHAR 02B7
ENCODING 695
SWIDTH 495 0
DWIDTH 11 0
BBX 11 8 0 6
BITMAP
8420
C620
4A60
4A40
6940
31C0
3180
3080
ENDCHAR
STARTCHAR 02B8
ENCODING 696
SWIDTH 315 0
DWIDTH 7 0
BBX 7 11 0 3
BITMAP
82
C2
46
64
2C
28
18
10
10
30
E0
ENDCHAR
STARTCHAR 02B9
ENCODING 697
SWIDTH 135 0
DWIDTH 3 0
BBX 4 6 0 10
BITMAP
70
60
60
60
40
C0
ENDCHAR
STARTCHAR 02BA
ENCODING 698
SWIDTH 315 0
DWIDTH 7 0
BBX 8 6 0 10
BITMAP
77
66
66
66
44
CC
ENDCHAR
STARTCHAR 02BB
ENCODING 699
SWIDTH 135 0
DWIDTH 3 0
BBX 4 6 0 10
BITMAP
30
20
60
60
60
E0
ENDCHAR
STARTCHAR 02BC
ENCODING 700
SWIDTH 135 0
DWIDTH 3 0
BBX 4 6 0 10
BITMAP
70
60
60
60
40
C0
ENDCHAR
STARTCHAR 02BD
ENCODING 701
SWIDTH 135 0
DWIDTH 3 0
BBX 4 6 0 10
BITMAP
E0
60
60
60
20
30
ENDCHAR
STARTCHAR 02BE
ENCODING 702
SWIDTH 135 0
DWIDTH 3 0
BBX 2 4 1 13
BITMAP
C0
40
40
C0
ENDCHAR
STARTCHAR 02BF
ENCODING 703
SWIDTH 135 0
DWIDTH 3 0
BBX 2 4 1 13
BITMAP
C0
80
80
C0
ENDCHAR
STARTCHAR 02C0
ENCODING 704
SWIDTH 270 0
DWIDTH 6 0
BBX 5 7 1 10
BITMAP
F0
18
18
18
30
40
40
ENDCHAR
STARTCHAR 02C1
ENCODING 705
SWIDTH 270 0
DWIDTH 6 0
BBX 6 7 0 10
BITMAP
3C
44
C0
40
70
18
18
ENDCHAR
STARTCHAR 02C2
ENCODING 706
SWIDTH 270 0
DWIDTH 6 0
BBX 5 5 1 12
BITMAP
18
60
80
60
18
ENDCHAR
STARTCHAR 02C3
ENCODING 707
SWIDTH 270 0
DWIDTH 6 0
BBX 5 5 1 12
BITMAP
C0
30
18
60
80
ENDCHAR
STARTCHAR 02C4
ENCODING 708
SWIDTH 270 0
DWIDTH 6 0
BBX 5 5 1 12
BITMAP
60
60
90
90
08
ENDCHAR
STARTCHAR 02C5
ENCODING 709
SWIDTH 270 0
DWIDTH 6 0
BBX 4 5 1 12
BITMAP
90
90
A0
60
20
ENDCHAR
STARTCHAR 02C6
ENCODING 710
SWIDTH 405 0
DWIDTH 9 0
BBX 7 4 1 13
BITMAP
38
3C
66
82
ENDCHAR
STARTCHAR 02C7
ENCODING 711
SWIDTH 405 0
DWIDTH 9 0
BBX 7 4 1 13
BITMAP
C6
6C
38
18
ENDCHAR
STARTCHAR 02C8
ENCODING 712
SWIDTH 135 0
DWIDTH 3 0
BBX 2 6 1 11
BITMAP
C0
C0
C0
C0
C0
C0
ENDCHAR
STARTCHAR 02C9
ENCODING 713
SWIDTH 360 0
DWIDTH 8 0
BBX 6 2 1 13
BITMAP
FC
FC
ENDCHAR
STARTCHAR 02CA
ENCODING 714
SWIDTH 270 0
DWIDTH 6 0
BBX 4 4 1 13
BITMAP
30
60
C0
80
ENDCHAR
STARTCHAR 02CB
ENCODING 715
SWIDTH 270 0
DWIDTH 6 0
BBX 4 4 1 13
BITMAP
C0
60
30
10
ENDCHAR
STARTCHAR 02CC
ENCODING 716
SWIDTH 135 0
DWIDTH 3 0
BBX 2 6 1 -5
BITMAP
C0
C0
C0
C0
C0
C0
ENDCHAR
STARTCHAR 02CD
ENCODING 717
SWIDTH 360 0
DWIDTH 8 0
BBX 6 1 1 -3
BITMAP
FC
ENDCHAR
STARTCHAR 02CE
ENCODING 718
SWIDTH 270 0
DWIDTH 6 0
BBX 4 4 1 -5
BITMAP
C0
60
30
10
ENDCHAR
STARTCHAR 02CF
ENCODING 719
SWIDTH 270 0
DWIDTH 6 0
BBX 4 4 1 -5
BITMAP
30
60
C0
80
ENDCHAR
STARTCHAR 02D0
ENCODING 720
SWIDTH 315 0
DWIDTH 7 0
BBX 3 12 2 0
BITMAP
E0
60
40
00
00
00
00
00
00
40
60
E0
ENDCHAR
STARTCHAR 02D1
ENCODING 721
SWIDTH 315 0
DWIDTH 7 0
BBX 3 3 2 9
BITMAP
E0
60
40
ENDCHAR
STARTCHAR 02D2
ENCODING 722
SWIDTH 180 0
DWIDTH 4 0
BBX 2 5 1 4
BITMAP
C0
40
40
C0
80
ENDCHAR
STARTCHAR 02D3
ENCODING 723
SWIDTH 180 0
DWIDTH 4 0
BBX 2 5 1 4
BITMAP
40
80
80
C0
40
ENDCHAR
STARTCHAR 02D4
ENCODING 724
SWIDTH 270 0
DWIDTH 6 0
BBX 4 4 1 5
BITMAP
60
60
F0
F0
ENDCHAR
STARTCHAR 02D5
ENCODING 725
SWIDTH 270 0
DWIDTH 6 0
BBX 4 4 1 5
BITMAP
F0
F0
60
60
ENDCHAR
STARTCHAR 02D6
ENCODING 726
SWIDTH 270 0
DWIDTH 6 0
BBX 4 5 1 4
BITMAP
60
60
F0
60
60
ENDCHAR
STARTCHAR 02D7
ENCODING 727
SWIDTH 270 0
DWIDTH 6 0
BBX 5 1 1 6
BITMAP
F8
ENDCHAR
STARTCHAR 02D8
ENCODING 728
SWIDTH 360 0
DWIDTH 8 0
BBX 7 3 1 13
BITMAP
86
7C
10
ENDCHAR
STARTCHAR 02D9
ENCODING 729
SWIDTH 180 0
DWIDTH 4 0
BBX 2 2 1 14
BITMAP
C0
C0
ENDCHAR
STARTCHAR 02DA
ENCODING 730
SWIDTH 270 0
DWIDTH 6 0
BBX 5 5 1 13
BITMAP
70
98
88
F0
20
ENDCHAR
STARTCHAR 02DB
ENCODING 731
SWIDTH 225 0
DWIDTH 5 0
BBX 4 5 1 -5
BITMAP
60
C0
80
D0
70
ENDCHAR
STARTCHAR 02DC
ENCODING 732
SWIDTH 405 0
DWIDTH 9 0
BBX 8 3 1 13
BITMAP
71
DE
84
ENDCHAR
STARTCHAR 02DD
ENCODING 733
SWIDTH 405 0
DWIDTH 9 0
BBX 8 4 1 13
BITMAP
37
66
CC
88
ENDCHAR
STARTCHAR 02DE
ENCODING 734
SWIDTH 225 0
DWIDTH 5 0
BBX 7 4 -2 5
BITMAP
F0
F0
3E
1E
ENDCHAR
STARTCHAR 02DF
ENCODING 735
SWIDTH 270 0
DWIDTH 6 0
BBX 4 4 1 13
BITMAP
D0
70
70
D0
ENDCHAR
STARTCHAR 02E0
ENCODING 736
SWIDTH 315 0
DWIDTH 7 0
BBX 7 11 0 3
BITMAP
82
C2
44
64
28
38
10
38
28
28
18
ENDCHAR
STARTCHAR 02E1
ENCODING 737
SWIDTH 135 0
DWIDTH 3 0
BBX 1 11 1 6
BITMAP
80
80
80
80
80
80
80
80
80
80
80
ENDCHAR
STARTCHAR 02E2
ENCODING 738
SWIDTH 270 0
DWIDTH 6 0
BBX 5 8 1 6
BITMAP
70
88
80
E0
38
08
08
F0
ENDCHAR
STARTCHAR 02E3
ENCODING 739
SWIDTH 315 0
DWIDTH 7 0
BBX 7 8 0 6
BITMAP
C2
64
2C
18
18
2C
66
C2
ENDCHAR
STARTCHAR 02E4
ENCODING 740
SWIDTH 270 0
DWIDTH 6 0
BBX 6 11 0 6
BITMAP
30
6C
C0
C0
40
30
10
10
10
10
10
ENDCHAR
STARTCHAR 02E5
ENCODING 741
SWIDTH 405 0
DWIDTH 9 0
BBX 6 15 2 0
BITMAP
FC
0C
0C
0C
0C
0C
0C
0C
0C
0C
0C
0C
0C
0C
0C
ENDCHAR
STARTCHAR 02E6
ENCODING 742
SWIDTH 405 0
DWIDTH 9 0
BBX 6 15 2 0
BITMAP
0C
0C
0C
FC
FC
0C
0C
0C
0C
0C
0C
0C
0C
0C
0C
ENDCHAR
STARTCHAR 02E7
ENCODING 743
SWIDTH 405 0
DWIDTH 9 0
BBX 6 15 2 0
BITMAP
0C
0C
0C
0C
0C
0C
FC
FC
0C
0C
0C
0C
0C
0C
0C
ENDCHAR
STARTCHAR 02E8
ENCODING 744
SWIDTH 405 0
DWIDTH 9 0
BBX 6 15 2 0
BITMAP
0C
0C
0C
0C
0C
0C
0C
0C
0C
0C
FC
0C
0C
0C
0C
ENDCHAR
STARTCHAR 02E9
ENCODING 745
SWIDTH 405 0
DWIDTH 9 0
BBX 6 15 2 0
BITMAP
0C
0C
0C
0C
0C
0C
0C
0C
0C
0C
0C
0C
0C
0C
FC
ENDCHAR
STARTCHAR 02EA
ENCODING 746
SWIDTH 405 0
DWIDTH 9 0
BBX 6 8 2 4
BITMAP
80
80
80
80
80
80
80
FC
ENDCHAR
STARTCHAR 02EB
ENCODING 747
SWIDTH 405 0
DWIDTH 9 0
BBX 6 8 2 4
BITMAP
80
80
80
80
FC
80
80
80
ENDCHAR
STARTCHAR 02EC
ENCODING 748
SWIDTH 405 0
DWIDTH 9 0
BBX 7 3 1 -4
BITMAP
C6
6C
38
ENDCHAR
STARTCHAR 02ED
ENCODING 749
SWIDTH 495 0
DWIDTH 11 0
BBX 9 5 1 13
BITMAP
FF80
FF80
0000
FF80
FF80
ENDCHAR
STARTCHAR 02EE
ENCODING 750
SWIDTH 315 0
DWIDTH 7 0
BBX 8 6 0 10
BITMAP
77
66
66
66
44
CC
ENDCHAR
STARTCHAR 02EF
ENCODING 751
SWIDTH 405 0
DWIDTH 9 0
BBX 7 5 1 -5
BITMAP
C2
46
6C
38
18
ENDCHAR
STARTCHAR 02F0
ENCODING 752
SWIDTH 405 0
DWIDTH 9 0
BBX 7 5 1 -5
BITMAP
10
38
38
6C
C6
ENDCHAR
STARTCHAR 02F1
ENCODING 753
SWIDTH 315 0
DWIDTH 7 0
BBX 5 5 1 -4
BITMAP
18
70
C0
78
08
ENDCHAR
STARTCHAR 02F2
ENCODING 754
SWIDTH 315 0
DWIDTH 7 0
BBX 5 5 1 -4
BITMAP
C0
78
18
70
C0
ENDCHAR
STARTCHAR 02F3
ENCODING 755
SWIDTH 315 0
DWIDTH 7 0
BBX 5 5 1 -6
BITMAP
30
58
88
C8
70
ENDCHAR
STARTCHAR 02F4
ENCODING 756
SWIDTH 270 0
DWIDTH 6 0
BBX 4 4 1 6
BITMAP
C0
60
30
10
ENDCHAR
STARTCHAR 02F5
ENCODING 757
SWIDTH 405 0
DWIDTH 9 0
BBX 8 4 1 6
BITMAP
CC
66
26
13
ENDCHAR
STARTCHAR 02F6
ENCODING 758
SWIDTH 405 0
DWIDTH 9 0
BBX 8 4 1 6
BITMAP
33
66
4C
88
ENDCHAR
STARTCHAR 02F7
ENCODING 759
SWIDTH 405 0
DWIDTH 9 0
BBX 8 3 1 -4
BITMAP
61
FB
8E
ENDCHAR
STARTCHAR 02F8
ENCODING 760
SWIDTH 225 0
DWIDTH 5 0
BBX 2 13 2 4
BITMAP
C0
C0
C0
00
00
00
00
00
00
00
C0
C0
C0
ENDCHAR
STARTCHAR 02F9
ENCODING 761
SWIDTH 270 0
DWIDTH 6 0
BBX 4 5 1 10
BITMAP
F0
80
80
80
80
ENDCHAR
STARTCHAR 02FA
ENCODING 762
SWIDTH 270 0
DWIDTH 6 0
BBX 4 5 1 10
BITMAP
F0
10
10
10
10
ENDCHAR
STARTCHAR 02FB
ENCODING 763
SWIDTH 270 0
DWIDTH 6 0
BBX 4 5 1 0
BITMAP
80
80
80
80
F0
ENDCHAR
STARTCHAR 02FC
ENCODING 764
SWIDTH 270 0
DWIDTH 6 0
BBX 4 5 1 0
BITMAP
10
10
10
10
F0
ENDCHAR
STARTCHAR 02FD
ENCODING 765
SWIDTH 495 0
DWIDTH 11 0
BBX 10 4 1 -5
BITMAP
8040
8040
FFC0
FFC0
ENDCHAR
STARTCHAR 02FE
ENCODING 766
SWIDTH 495 0
DWIDTH 11 0
BBX 10 4 1 -5
BITMAP
8000
8000
FFC0
FFC0
ENDCHAR
STARTCHAR 02FF
ENCODING 767
SWIDTH 495 0
DWIDTH 11 0
BBX 10 6 1 -4
BITMAP
1800
7000
FFC0
E000
3000
0800
ENDCHAR
STARTCHAR 0300
ENCODING 768
SWIDTH 0 0
DWIDTH 0 0
BBX 5 4 -11 13
BITMAP
E0
60
30
18
ENDCHAR
STARTCHAR 0301
ENCODING 769
SWIDTH 0 0
DWIDTH 0 0
BBX 4 4 -7 13
BITMAP
30
60
C0
80
ENDCHAR
STARTCHAR 0302
ENCODING 770
SWIDTH 0 0
DWIDTH 0 0
BBX 8 4 -4 13
BITMAP
18
3C
66
C3
ENDCHAR
STARTCHAR 0303
ENCODING 771
SWIDTH 0 0
DWIDTH 0 0
BBX 8 3 -11 13
BITMAP
79
DF
80
ENDCHAR
STARTCHAR 0304
ENCODING 772
SWIDTH 0 0
DWIDTH 0 0
BBX 6 2 -3 13
BITMAP
FC
FC
ENDCHAR
STARTCHAR 0305
ENCODING 773
SWIDTH 0 0
DWIDTH 0 0
BBX 10 2 -5 17
BITMAP
FFC0
FFC0
ENDCHAR
STARTCHAR 0306
ENCODING 774
SWIDTH 0 0
DWIDTH 0 0
BBX 6 3 -3 13
BITMAP
84
FC
20
ENDCHAR
STARTCHAR 0307
ENCODING 775
SWIDTH 0 0
DWIDTH 0 0
BBX 2 2 -1 14
BITMAP
C0
C0
ENDCHAR
STARTCHAR 0308
ENCODING 776
SWIDTH 0 0
DWIDTH 0 0
BBX 6 2 -3 14
BITMAP
CC
CC
ENDCHAR
STARTCHAR 0309
ENCODING 777
SWIDTH 0 0
DWIDTH 0 0
BBX 4 5 -8 13
BITMAP
E0
30
30
60
40
ENDCHAR
STARTCHAR 030A
ENCODING 778
SWIDTH 0 0
DWIDTH 0 0
BBX 4 4 -2 13
BITMAP
F0
90
90
F0
ENDCHAR
STARTCHAR 030B
ENCODING 779
SWIDTH 0 0
DWIDTH 0 0
BBX 8 4 -3 13
BITMAP
33
66
44
88
ENDCHAR
STARTCHAR 030C
ENCODING 780
SWIDTH 0 0
DWIDTH 0 0
BBX 8 4 -4 13
BITMAP
C3
66
3C
18
ENDCHAR
STARTCHAR 030D
ENCODING 781
SWIDTH 0 0
DWIDTH 0 0
BBX 2 4 -1 13
BITMAP
C0
C0
C0
C0
ENDCHAR
STARTCHAR 030E
ENCODING 782
SWIDTH 0 0
DWIDTH 0 0
BBX 6 4 -3 13
BITMAP
CC
CC
CC
CC
ENDCHAR
STARTCHAR 030F
ENCODING 783
SWIDTH 0 0
DWIDTH 0 0
BBX 7 4 -11 13
BITMAP
CC
CC
66
32
ENDCHAR
STARTCHAR 0310
ENCODING 784
SWIDTH 0 0
DWIDTH 0 0
BBX 6 6 -3 13
BITMAP
30
30
30
84
FC
20
ENDCHAR
STARTCHAR 0311
ENCODING 785
SWIDTH 0 0
DWIDTH 0 0
BBX 6 3 -3 13
BITMAP
FC
84
84
ENDCHAR
STARTCHAR 0312
ENCODING 786
SWIDTH 0 0
DWIDTH 0 0
BBX 4 6 -2 10
BITMAP
30
20
60
60
E0
E0
ENDCHAR
STARTCHAR 0313
ENCODING 787
SWIDTH 0 0
DWIDTH 0 0
BBX 4 6 -2 10
BITMAP
70
60
60
60
40
C0
ENDCHAR
STARTCHAR 0314
ENCODING 788
SWIDTH 0 0
DWIDTH 0 0
BBX 4 6 -2 10
BITMAP
E0
60
60
60
20
30
ENDCHAR
STARTCHAR 0315
ENCODING 789
SWIDTH 0 0
DWIDTH 0 0
BBX 4 6 -2 10
BITMAP
70
60
60
60
40
C0
ENDCHAR
STARTCHAR 0316
ENCODING 790
SWIDTH 0 0
DWIDTH 0 0
BBX 4 4 -2 -5
BITMAP
C0
60
30
10
ENDCHAR
STARTCHAR 0317
ENCODING 791
SWIDTH 0 0
DWIDTH 0 0
BBX 4 4 -2 -5
BITMAP
30
60
C0
80
ENDCHAR
STARTCHAR 0318
ENCODING 792
SWIDTH 0 0
DWIDTH 0 0
BBX 4 4 -2 -5
BITMAP
30
F0
30
30
ENDCHAR
STARTCHAR 0319
ENCODING 793
SWIDTH 0 0
DWIDTH 0 0
BBX 4 4 -2 -5
BITMAP
C0
F0
C0
C0
ENDCHAR
STARTCHAR 031A
ENCODING 794
SWIDTH 0 0
DWIDTH 0 0
BBX 6 5 -2 16
BITMAP
FC
0C
0C
0C
0C
ENDCHAR
STARTCHAR 031B
ENCODING 795
SWIDTH 0 0
DWIDTH 0 0
BBX 4 5 -2 12
BITMAP
30
30
70
E0
80
ENDCHAR
STARTCHAR 031C
ENCODING 796
SWIDTH 0 0
DWIDTH 0 0
BBX 2 5 -1 -5
BITMAP
40
C0
80
80
40
ENDCHAR
STARTCHAR 031D
ENCODING 797
SWIDTH 0 0
DWIDTH 0 0
BBX 4 4 -2 -5
BITMAP
60
60
F0
F0
ENDCHAR
STARTCHAR 031E
ENCODING 798
SWIDTH 0 0
DWIDTH 0 0
BBX 4 4 -2 -5
BITMAP
F0
60
60
60
ENDCHAR
STARTCHAR 031F
ENCODING 799
SWIDTH 0 0
DWIDTH 0 0
BBX 4 4 -2 -5
BITMAP
60
F0
F0
60
ENDCHAR
STARTCHAR 0320
ENCODING 800
SWIDTH 0 0
DWIDTH 0 0
BBX 6 2 -3 -4
BITMAP
FC
FC
ENDCHAR
STARTCHAR 0321
ENCODING 801
SWIDTH 0 0
DWIDTH 0 0
BBX 4 6 -4 -5
BITMAP
30
30
30
30
30
E0
ENDCHAR
STARTCHAR 0322
ENCODING 802
SWIDTH 0 0
DWIDTH 0 0
BBX 4 6 0 -5
BITMAP
C0
C0
C0
C0
C0
70
ENDCHAR
STARTCHAR 0323
ENCODING 803
SWIDTH 0 0
DWIDTH 0 0
BBX 3 3 -8 -4
BITMAP
40
E0
C0
ENDCHAR
STARTCHAR 0324
ENCODING 804
SWIDTH 0 0
DWIDTH 0 0
BBX 6 2 -3 -4
BITMAP
CC
CC
ENDCHAR
STARTCHAR 0325
ENCODING 805
SWIDTH 0 0
DWIDTH 0 0
BBX 4 5 -2 -5
BITMAP
60
F0
90
90
F0
ENDCHAR
STARTCHAR 0326
ENCODING 806
SWIDTH 0 0
DWIDTH 0 0
BBX 2 4 -1 -5
BITMAP
C0
C0
C0
80
ENDCHAR
STARTCHAR 0327
ENCODING 807
SWIDTH 0 0
DWIDTH 0 0
BBX 4 5 -2 -5
BITMAP
60
60
30
10
F0
ENDCHAR
STARTCHAR 0328
ENCODING 808
SWIDTH 0 0
DWIDTH 0 0
BBX 4 5 -2 -5
BITMAP
60
40
C0
C0
70
ENDCHAR
STARTCHAR 0329
ENCODING 809
SWIDTH 0 0
DWIDTH 0 0
BBX 2 4 -1 -5
BITMAP
C0
C0
C0
C0
ENDCHAR
STARTCHAR 032A
ENCODING 810
SWIDTH 0 0
DWIDTH 0 0
BBX 8 4 -4 -5
BITMAP
FF
C3
C3
C3
ENDCHAR
STARTCHAR 032B
ENCODING 811
SWIDTH 0 0
DWIDTH 0 0
BBX 8 3 -4 -4
BITMAP
99
99
7E
ENDCHAR
STARTCHAR 032C
ENCODING 812
SWIDTH 0 0
DWIDTH 0 0
BBX 6 3 -3 -4
BITMAP
84
78
78
ENDCHAR
STARTCHAR 032D
ENCODING 813
SWIDTH 0 0
DWIDTH 0 0
BBX 6 3 -3 -4
BITMAP
30
78
CC
ENDCHAR
STARTCHAR 032E
ENCODING 814
SWIDTH 0 0
DWIDTH 0 0
BBX 6 3 -3 -4
BITMAP
84
EC
78
ENDCHAR
STARTCHAR 032F
ENCODING 815
SWIDTH 0 0
DWIDTH 0 0
BBX 6 3 -3 -4
BITMAP
78
FC
84
ENDCHAR
STARTCHAR 0330
ENCODING 816
SWIDTH 0 0
DWIDTH 0 0
BBX 8 3 -4 -4
BITMAP
61
FF
8E
ENDCHAR
STARTCHAR 0331
ENCODING 817
SWIDTH 0 0
DWIDTH 0 0
BBX 6 1 -3 -3
BITMAP
FC
ENDCHAR
STARTCHAR 0332
ENCODING 818
SWIDTH 0 0
DWIDTH 0 0
BBX 10 1 -5 -3
BITMAP
FFC0
ENDCHAR
STARTCHAR 0333
ENCODING 819
SWIDTH 0 0
DWIDTH 0 0
BBX 10 4 -5 -5
BITMAP
FFC0
0000
0000
FFC0
ENDCHAR
STARTCHAR 0334
ENCODING 820
SWIDTH 0 0
DWIDTH 0 0
BBX 8 2 -4 5
BITMAP
79
CF
ENDCHAR
STARTCHAR 0335
ENCODING 821
SWIDTH 0 0
DWIDTH 0 0
BBX 10 1 -5 6
BITMAP
FFC0
ENDCHAR
STARTCHAR 0336
ENCODING 822
SWIDTH 0 0
DWIDTH 0 0
BBX 16 1 -8 6
BITMAP
FFFF
ENDCHAR
STARTCHAR 0337
ENCODING 823
SWIDTH 0 0
DWIDTH 0 0
BBX 6 5 -3 4
BITMAP
04
1C
38
E0
80
ENDCHAR
STARTCHAR 0338
ENCODING 824
SWIDTH 0 0
DWIDTH 0 0
BBX 8 18 -4 -1
BITMAP
01
03
02
06
06
04
0C
0C
18
18
10
30
30
60
60
40
C0
C0
ENDCHAR
STARTCHAR 0339
ENCODING 825
SWIDTH 0 0
DWIDTH 0 0
BBX 2 5 -1 -5
BITMAP
80
C0
40
40
80
ENDCHAR
STARTCHAR 033A
ENCODING 826
SWIDTH 0 0
DWIDTH 0 0
BBX 8 4 -4 -5
BITMAP
C3
C3
C3
FF
ENDCHAR
STARTCHAR 033B
ENCODING 827
SWIDTH 0 0
DWIDTH 0 0
BBX 8 4 -4 -5
BITMAP
FF
81
81
FF
ENDCHAR
STARTCHAR 033C
ENCODING 828
SWIDTH 0 0
DWIDTH 0 0
BBX 8 3 -4 -4
BITMAP
66
DB
99
ENDCHAR
STARTCHAR 033D
ENCODING 829
SWIDTH 0 0
DWIDTH 0 0
BBX 4 4 -2 13
BITMAP
90
E0
60
B0
ENDCHAR
STARTCHAR 033E
ENCODING 830
SWIDTH 0 0
DWIDTH 0 0
BBX 2 6 -1 13
BITMAP
C0
80
C0
40
40
C0
ENDCHAR
STARTCHAR 033F
ENCODING 831
SWIDTH 0 0
DWIDTH 0 0
BBX 10 4 -5 17
BITMAP
FFC0
0000
0000
FFC0
ENDCHAR
STARTCHAR 0340
ENCODING 832
SWIDTH 0 0
DWIDTH 0 0
BBX 4 4 -3 13
BITMAP
C0
E0
60
10
ENDCHAR
STARTCHAR 0341
ENCODING 833
SWIDTH 0 0
DWIDTH 0 0
BBX 4 4 -1 13
BITMAP
30
70
60
80
ENDCHAR
STARTCHAR 0342
ENCODING 834
SWIDTH 0 0
DWIDTH 0 0
BBX 8 3 -4 13
BITMAP
71
DE
84
ENDCHAR
STARTCHAR 0343
ENCODING 835
SWIDTH 0 0
DWIDTH 0 0
BBX 3 4 -2 13
BITMAP
E0
20
20
40
ENDCHAR
STARTCHAR 0344
ENCODING 836
SWIDTH 0 0
DWIDTH 0 0
BBX 7 4 -3 13
BITMAP
18
DE
F6
20
ENDCHAR
STARTCHAR 0345
ENCODING 837
SWIDTH 0 0
DWIDTH 0 0
BBX 3 3 -1 -5
BITMAP
C0
C0
E0
ENDCHAR
STARTCHAR 0346
ENCODING 838
SWIDTH 0 0
DWIDTH 0 0
BBX 10 4 -5 13
BITMAP
FFC0
C0C0
C0C0
C0C0
ENDCHAR
STARTCHAR 0347
ENCODING 839
SWIDTH 0 0
DWIDTH 0 0
BBX 10 4 -5 -5
BITMAP
FFC0
0000
0000
FFC0
ENDCHAR
STARTCHAR 0348
ENCODING 840
SWIDTH 0 0
DWIDTH 0 0
BBX 6 4 -3 -5
BITMAP
CC
CC
CC
CC
ENDCHAR
STARTCHAR 0349
ENCODING 841
SWIDTH 0 0
DWIDTH 0 0
BBX 4 4 -2 -5
BITMAP
F0
F0
10
10
ENDCHAR
STARTCHAR 034A
ENCODING 842
SWIDTH 0 0
DWIDTH 0 0
BBX 8 4 -4 13
BITMAP
0C
79
DE
B4
ENDCHAR
STARTCHAR 034B
ENCODING 843
SWIDTH 0 0
DWIDTH 0 0
BBX 8 7 -4 14
BITMAP
18
18
71
DF
86
18
18
ENDCHAR
STARTCHAR 034C
ENCODING 844
SWIDTH 0 0
DWIDTH 0 0
BBX 8 6 -4 13
BITMAP
73
DE
00
73
DE
84
ENDCHAR
STARTCHAR 034D
ENCODING 845
SWIDTH 0 0
DWIDTH 0 0
BBX 6 4 -3 -5
BITMAP
48
FC
CC
48
ENDCHAR
STARTCHAR 034E
ENCODING 846
SWIDTH 0 0
DWIDTH 0 0
BBX 4 4 -2 -5
BITMAP
60
F0
60
60
ENDCHAR
STARTCHAR 034F
ENCODING 847
SWIDTH 0 0
DWIDTH 0 0
BBX 16 16 -8 0
BITMAP
F3CF
8001
8001
87E1
0810
0000
9009
8001
9009
9009
1008
0810
0660
8001
8001
F3CF
ENDCHAR
STARTCHAR 0350
ENCODING 848
SWIDTH 0 0
DWIDTH 0 0
BBX 4 4 -2 14
BITMAP
E0
30
70
80
ENDCHAR
STARTCHAR 0351
ENCODING 849
SWIDTH 0 0
DWIDTH 0 0
BBX 2 5 -1 13
BITMAP
40
C0
80
C0
40
ENDCHAR
STARTCHAR 0352
ENCODING 850
SWIDTH 0 0
DWIDTH 0 0
BBX 6 5 -3 13
BITMAP
30
FC
84
30
30
ENDCHAR
STARTCHAR 0353
ENCODING 851
SWIDTH 0 0
DWIDTH 0 0
BBX 4 4 -2 -5
BITMAP
F0
60
F0
10
ENDCHAR
STARTCHAR 0354
ENCODING 852
SWIDTH 0 0
DWIDTH 0 0
BBX 4 4 -2 -5
BITMAP
30
E0
E0
30
ENDCHAR
STARTCHAR 0355
ENCODING 853
SWIDTH 0 0
DWIDTH 0 0
BBX 4 4 -2 -5
BITMAP
C0
70
70
C0
ENDCHAR
STARTCHAR 0356
ENCODING 854
SWIDTH 0 0
DWIDTH 0 0
BBX 8 4 -4 -5
BITMAP
86
76
77
C9
ENDCHAR
STARTCHAR 0357
ENCODING 855
SWIDTH 0 0
DWIDTH 0 0
BBX 2 5 -1 13
BITMAP
80
40
40
40
80
ENDCHAR
STARTCHAR 0358
ENCODING 856
SWIDTH 0 0
DWIDTH 0 0
BBX 2 2 3 14
BITMAP
C0
C0
ENDCHAR
STARTCHAR 0359
ENCODING 857
SWIDTH 0 0
DWIDTH 0 0
BBX 4 4 -2 -5
BITMAP
60
F0
60
F0
ENDCHAR
STARTCHAR 035A
ENCODING 858
SWIDTH 0 0
DWIDTH 0 0
BBX 8 4 -4 -5
BITMAP
FF
99
99
FF
ENDCHAR
STARTCHAR 035B
ENCODING 859
SWIDTH 0 0
DWIDTH 0 0
BBX 4 4 -2 13
BITMAP
C0
F0
10
20
ENDCHAR
STARTCHAR 035C
ENCODING 860
SWIDTH 0 0
DWIDTH 0 0
BBX 16 4 -8 -5
BITMAP
8001
E007
3F7C
0FF0
ENDCHAR
STARTCHAR 035D
ENCODING 861
SWIDTH 0 0
DWIDTH 0 0
BBX 16 4 -8 13
BITMAP
C003
6006
3FFC
0FF0
ENDCHAR
STARTCHAR 035E
ENCODING 862
SWIDTH 0 0
DWIDTH 0 0
BBX 14 1 -7 14
BITMAP
FFFC
ENDCHAR
STARTCHAR 035F
ENCODING 863
SWIDTH 0 0
DWIDTH 0 0
BBX 14 1 -7 -3
BITMAP
FFFC
ENDCHAR
STARTCHAR 0360
ENCODING 864
SWIDTH 0 0
DWIDTH 0 0
BBX 17 3 -9 13
BITMAP
3FC080
41FF80
C00000
ENDCHAR
STARTCHAR 0361
ENCODING 865
SWIDTH 0 0
DWIDTH 0 0
BBX 16 4 -8 15
BITMAP
07E0
3FFC
6006
C003
ENDCHAR
STARTCHAR 0362
ENCODING 866
SWIDTH 0 0
DWIDTH 0 0
BBX 17 4 -8 -5
BITMAP
000200
FFFF80
000300
000200
ENDCHAR
STARTCHAR 0363
ENCODING 867
SWIDTH 0 0
DWIDTH 0 0
BBX 4 5 -2 14
BITMAP
60
10
70
90
F0
ENDCHAR
STARTCHAR 0364
ENCODING 868
SWIDTH 0 0
DWIDTH 0 0
BBX 5 5 -2 14
BITMAP
60
90
F8
80
F0
ENDCHAR
STARTCHAR 0365
ENCODING 869
SWIDTH 0 0
DWIDTH 0 0
BBX 1 6 0 14
BITMAP
80
80
80
80
80
80
ENDCHAR
STARTCHAR 0366
ENCODING 870
SWIDTH 0 0
DWIDTH 0 0
BBX 5 5 -2 14
BITMAP
60
90
88
88
F0
ENDCHAR
STARTCHAR 0367
ENCODING 871
SWIDTH 0 0
DWIDTH 0 0
BBX 4 5 -2 14
BITMAP
80
90
90
90
F0
ENDCHAR
STARTCHAR 0368
ENCODING 872
SWIDTH 0 0
DWIDTH 0 0
BBX 4 5 -2 14
BITMAP
30
40
80
80
70
ENDCHAR
STARTCHAR 0369
ENCODING 873
SWIDTH 0 0
DWIDTH 0 0
BBX 4 6 -2 15
BITMAP
10
70
90
90
90
F0
ENDCHAR
STARTCHAR 036A
ENCODING 874
SWIDTH 0 0
DWIDTH 0 0
BBX 5 7 -2 14
BITMAP
80
80
A0
D0
88
88
88
ENDCHAR
STARTCHAR 036B
ENCODING 875
SWIDTH 0 0
DWIDTH 0 0
BBX 8 5 -4 14
BITMAP
B6
C9
89
89
89
ENDCHAR
STARTCHAR 036C
ENCODING 876
SWIDTH 0 0
DWIDTH 0 0
BBX 3 5 -1 14
BITMAP
A0
C0
80
80
80
ENDCHAR
STARTCHAR 036D
ENCODING 877
SWIDTH 0 0
DWIDTH 0 0
BBX 3 5 -1 15
BITMAP
E0
80
80
80
C0
ENDCHAR
STARTCHAR 036E
ENCODING 878
SWIDTH 0 0
DWIDTH 0 0
BBX 5 5 -2 14
BITMAP
88
90
90
60
60
ENDCHAR
STARTCHAR 036F
ENCODING 879
SWIDTH 0 0
DWIDTH 0 0
BBX 5 5 -2 14
BITMAP
88
50
60
60
90
ENDCHAR
STARTCHAR 0370
ENCODING 880
SWIDTH 405 0
DWIDTH 9 0
BBX 7 16 2 0
BITMAP
C0
C0
C0
C0
C0
C0
C0
FE
FE
C0
C0
C0
C0
C0
C0
C0
ENDCHAR
STARTCHAR 0371
ENCODING 881
SWIDTH 360 0
DWIDTH 8 0
BBX 6 12 2 0
BITMAP
C0
C0
C0
C0
C0
FC
FC
C0
C0
C0
C0
C0
ENDCHAR
STARTCHAR 0372
ENCODING 882
SWIDTH 630 0
DWIDTH 14 0
BBX 12 16 1 0
BITMAP
FFF0
FFF0
C610
C610
C610
C610
C610
0600
0600
0600
0600
0600
0600
0600
0600
0600
ENDCHAR
STARTCHAR 0373
ENCODING 883
SWIDTH 630 0
DWIDTH 14 0
BBX 11 17 2 0
BITMAP
FFE0
FFE0
CC60
CC60
CC60
0C00
0C00
0C00
0C00
0C00
0C00
0C00
0C00
0C00
0C00
0C00
0C00
ENDCHAR
STARTCHAR 0374
ENCODING 884
SWIDTH 135 0
DWIDTH 3 0
BBX 3 4 1 13
BITMAP
60
60
C0
C0
ENDCHAR
STARTCHAR 0375
ENCODING 885
SWIDTH 135 0
DWIDTH 3 0
BBX 4 5 -1 -4
BITMAP
30
30
60
60
E0
ENDCHAR
STARTCHAR 0376
ENCODING 886
SWIDTH 765 0
DWIDTH 17 0
BBX 13 16 2 0
BITMAP
C038
C038
C078
C0F8
C0D8
C198
C398
C318
C618
CE18
CC18
D818
F818
F018
E018
E018
ENDCHAR
STARTCHAR 0377
ENCODING 887
SWIDTH 630 0
DWIDTH 14 0
BBX 10 12 2 0
BITMAP
C0C0
C1C0
C340
C340
C640
C440
CC40
D840
D840
F040
E040
E040
ENDCHAR
STARTCHAR 037A
ENCODING 890
SWIDTH 225 0
DWIDTH 5 0
BBX 3 3 2 -5
BITMAP
C0
C0
E0
ENDCHAR
STARTCHAR 037B
ENCODING 891
SWIDTH 450 0
DWIDTH 10 0
BBX 8 12 1 0
BITMAP
FC
FE
07
03
03
03
03
03
03
07
DE
FC
ENDCHAR
STARTCHAR 037C
ENCODING 892
SWIDTH 450 0
DWIDTH 10 0
BBX 9 12 1 0
BITMAP
1F80
3F80
6000
6000
C000
C600
C600
C000
6000
6000
3B80
1F80
ENDCHAR
STARTCHAR 037D
ENCODING 893
SWIDTH 450 0
DWIDTH 10 0
BBX 8 12 1 0
BITMAP
FC
FE
07
03
03
33
33
03
03
07
DE
FC
ENDCHAR
STARTCHAR 037E
ENCODING 894
SWIDTH 225 0
DWIDTH 5 0
BBX 3 15 1 -3
BITMAP
60
60
60
00
00
00
00
00
00
60
60
E0
C0
C0
80
ENDCHAR
STARTCHAR 037F
ENCODING 895
SWIDTH 270 0
DWIDTH 6 0
BBX 6 20 -2 -4
BITMAP
0C
0C
0C
0C
0C
0C
0C
0C
0C
0C
0C
0C
0C
0C
0C
0C
0C
0C
F8
F0
ENDCHAR
STARTCHAR 0384
ENCODING 900
SWIDTH 225 0
DWIDTH 5 0
BBX 3 4 1 13
BITMAP
60
C0
C0
80
ENDCHAR
STARTCHAR 0385
ENCODING 901
SWIDTH 630 0
DWIDTH 14 0
BBX 8 4 3 13
BITMAP
1C
DB
DB
10
ENDCHAR
STARTCHAR 0386
ENCODING 902
SWIDTH 675 0
DWIDTH 15 0
BBX 16 16 0 0
BITMAP
70C0
61C0
41C0
C360
0360
0330
0630
0630
0C18
0FF8
0FFC
180C
180C
1806
3006
3007
ENDCHAR
STARTCHAR 0387
ENCODING 903
SWIDTH 225 0
DWIDTH 5 0
BBX 2 3 2 9
BITMAP
C0
C0
C0
ENDCHAR
STARTCHAR 0388
ENCODING 904
SWIDTH 720 0
DWIDTH 16 0
BBX 15 16 0 0
BITMAP
73FE
63FE
4300
C300
0300
0300
0300
03FC
03FC
0300
0300
0300
0300
0300
03FE
03FE
ENDCHAR
STARTCHAR 0389
ENCODING 905
SWIDTH 900 0
DWIDTH 20 0
BBX 18 16 0 0
BITMAP
7300C0
6300C0
4300C0
C300C0
0300C0
0300C0
0300C0
03FFC0
03FFC0
0300C0
0300C0
0300C0
0300C0
0300C0
0300C0
0300C0
ENDCHAR
STARTCHAR 038A
ENCODING 906
SWIDTH 495 0
DWIDTH 11 0
BBX 11 16 0 0
BITMAP
77E0
63C0
4180
C180
0180
0180
0180
0180
0180
0180
0180
0180
0180
0180
0380
07E0
ENDCHAR
STARTCHAR 038C
ENCODING 908
SWIDTH 855 0
DWIDTH 19 0
BBX 19 16 0 0
BITMAP
70FC00
63FF00
470380
C601C0
0E00C0
0C00C0
0C00C0
0C00E0
0C00E0
0C00C0
0C00C0
0E00C0
0601C0
070380
03FF00
00FE00
ENDCHAR
STARTCHAR 038E
ENCODING 910
SWIDTH 765 0
DWIDTH 17 0
BBX 17 16 0 0
BITMAP
760180
670380
430300
C18600
018600
00CC00
00CC00
007800
007800
003000
003000
003000
003000
003000
003000
003000
ENDCHAR
STARTCHAR 038F
ENCODING 911
SWIDTH 810 0
DWIDTH 18 0
BBX 18 16 0 0
BITMAP
71FC00
63FF00
470300
CE0180
0C01C0
0C00C0
1C00C0
1C00C0
1C00C0
0C00C0
0C0180
0C0180
060300
030700
1F8FC0
1F8FC0
ENDCHAR
STARTCHAR 0390
ENCODING 912
SWIDTH 315 0
DWIDTH 7 0
BBX 8 17 0 0
BITMAP
18
DB
D3
30
00
30
30
30
30
30
30
30
30
30
30
3A
1E
ENDCHAR
STARTCHAR 0391
ENCODING 913
SWIDTH 630 0
DWIDTH 14 0
BBX 14 16 0 0
BITMAP
0300
0380
0780
0780
0CC0
0CC0
0C40
1860
1860
1FF0
3FF0
3030
6018
6018
600C
C00C
ENDCHAR
STARTCHAR 0392
ENCODING 914
SWIDTH 630 0
DWIDTH 14 0
BBX 11 16 2 0
BITMAP
FF00
FFC0
C0C0
C060
C060
C0C0
C1C0
FF00
FFC0
C0E0
C060
C060
C060
C0E0
FFC0
FF80
ENDCHAR
STARTCHAR 0393
ENCODING 915
SWIDTH 495 0
DWIDTH 11 0
BBX 9 16 2 0
BITMAP
FF80
FF80
C000
C000
C000
C000
C000
C000
C000
C000
C000
C000
C000
C000
C000
C000
ENDCHAR
STARTCHAR 0394
ENCODING 916
SWIDTH 630 0
DWIDTH 14 0
BBX 14 16 0 0
BITMAP
0300
0380
0780
0680
0CC0
0CC0
0C60
1860
1860
3030
3030
3018
6018
6018
FFFC
FFFC
ENDCHAR
STARTCHAR 0395
ENCODING 917
SWIDTH 540 0
DWIDTH 12 0
BBX 9 16 2 0
BITMAP
FF80
FF80
C000
C000
C000
C000
C000
FF80
FF80
C000
C000
C000
C000
C000
FF80
FF80
ENDCHAR
STARTCHAR 0396
ENCODING 918
SWIDTH 540 0
DWIDTH 12 0
BBX 11 16 1 0
BITMAP
FFE0
FFE0
00C0
0180
0380
0300
0600
0E00
0C00
1800
3800
3000
6000
E000
FFE0
FFE0
ENDCHAR
STARTCHAR 0397
ENCODING 919
SWIDTH 720 0
DWIDTH 16 0
BBX 12 16 2 0
BITMAP
C030
C030
C030
C030
C030
C030
C030
FFF0
FFF0
C030
C030
C030
C030
C030
C030
C030
ENDCHAR
STARTCHAR 0398
ENCODING 920
SWIDTH 765 0
DWIDTH 17 0
BBX 15 16 1 0
BITMAP
0FE0
1FF8
3818
700C
600C
6006
E006
CFE6
CFE6
E006
6006
600C
700C
301C
1FF8
0FE0
ENDCHAR
STARTCHAR 0399
ENCODING 921
SWIDTH 315 0
DWIDTH 7 0
BBX 6 16 1 0
BITMAP
FC
78
30
30
30
30
30
30
30
30
30
30
30
30
70
FC
ENDCHAR
STARTCHAR 039A
ENCODING 922
SWIDTH 585 0
DWIDTH 13 0
BBX 11 16 2 0
BITMAP
C060
C0C0
C180
C300
C700
CE00
DC00
DC00
FC00
E600
C700
C300
C180
C0C0
C0E0
C060
ENDCHAR
STARTCHAR 039B
ENCODING 923
SWIDTH 585 0
DWIDTH 13 0
BBX 13 16 0 0
BITMAP
0300
0700
0780
0580
0D80
0CC0
18C0
1840
1860
3060
3020
3030
6030
6018
6018
C018
ENDCHAR
STARTCHAR 039C
ENCODING 924
SWIDTH 900 0
DWIDTH 20 0
BBX 16 16 2 0
BITMAP
E007
F007
F00F
F00F
D81B
D81B
CC13
CC33
CC33
C663
C663
C663
C3C3
C3C3
C183
C183
ENDCHAR
STARTCHAR 039D
ENCODING 925
SWIDTH 720 0
DWIDTH 16 0
BBX 13 16 2 0
BITMAP
E018
E018
F018
F818
D818
CC18
CE18
C618
C318
C398
C198
C1D8
C0D8
C078
C078
C038
ENDCHAR
STARTCHAR 039E
ENCODING 926
SWIDTH 585 0
DWIDTH 13 0
BBX 12 16 1 0
BITMAP
7FE0
7FE0
0000
0000
0000
0000
0000
3FC0
3FC0
0000
0000
0000
0000
0000
FFF0
FFF0
ENDCHAR
STARTCHAR 039F
ENCODING 927
SWIDTH 765 0
DWIDTH 17 0
BBX 15 16 1 0
BITMAP
0FE0
1FF8
3818
700C
600C
6006
E006
C006
C006
E006
6006
600C
700C
301C
1FF8
0FE0
ENDCHAR
STARTCHAR 03A0
ENCODING 928
SWIDTH 720 0
DWIDTH 16 0
BBX 12 16 2 0
BITMAP
FFF0
FFF0
C030
C030
C030
C030
C030
C030
C030
C030
C030
C030
C030
C030
C030
C030
ENDCHAR
STARTCHAR 03A1
ENCODING 929
SWIDTH 585 0
DWIDTH 13 0
BBX 10 16 2 0
BITMAP
FE00
FF80
C1C0
C0C0
C0C0
C0C0
C0C0
C1C0
FF80
FE00
C000
C000
C000
C000
C000
C000
ENDCHAR
STARTCHAR 03A3
ENCODING 931
SWIDTH 540 0
DWIDTH 12 0
BBX 11 16 1 0
BITMAP
FFE0
FFE0
6000
7000
3800
1C00
0E00
0600
0600
0C00
1800
3000
7000
6000
FFE0
FFE0
ENDCHAR
STARTCHAR 03A4
ENCODING 932
SWIDTH 540 0
DWIDTH 12 0
BBX 12 16 0 0
BITMAP
FFF0
FFF0
0600
0600
0600
0600
0600
0600
0600
0600
0600
0600
0600
0600
0600
0600
ENDCHAR
STARTCHAR 03A5
ENCODING 933
SWIDTH 540 0
DWIDTH 12 0
BBX 12 16 0 0
BITMAP
C030
6030
6060
3060
30C0
18C0
1D80
0D80
0700
0600
0600
0600
0600
0600
0600
0600
ENDCHAR
STARTCHAR 03A6
ENCODING 934
SWIDTH 810 0
DWIDTH 18 0
BBX 17 16 1 0
BITMAP
018000
018000
1FFC00
3D9E00
618700
E18300
C18300
C18180
C18180
C18300
618300
718600
3FFE00
0FF800
018000
018000
ENDCHAR
STARTCHAR 03A7
ENCODING 935
SWIDTH 585 0
DWIDTH 13 0
BBX 13 16 0 0
BITMAP
6030
6030
3060
18C0
18C0
0D80
0700
0700
0700
0D80
0D80
18C0
3060
3060
6030
E038
ENDCHAR
STARTCHAR 03A8
ENCODING 936
SWIDTH 810 0
DWIDTH 18 0
BBX 14 16 2 0
BITMAP
C30C
C30C
C30C
C30C
C30C
C30C
C30C
C30C
631C
7318
3FF0
0FC0
0300
0300
0300
0300
ENDCHAR
STARTCHAR 03A9
ENCODING 937
SWIDTH 675 0
DWIDTH 15 0
BBX 14 16 1 0
BITMAP
0FC0
3FF0
7038
6018
C00C
C00C
C00C
C00C
C00C
C00C
C00C
6018
6018
3030
FCFC
FCFC
ENDCHAR
STARTCHAR 03AA
ENCODING 938
SWIDTH 315 0
DWIDTH 7 0
BBX 6 20 1 0
BITMAP
CC
CC
00
00
FC
78
30
30
30
30
30
30
30
30
30
30
30
30
70
FC
ENDCHAR
STARTCHAR 03AB
ENCODING 939
SWIDTH 540 0
DWIDTH 12 0
BBX 12 20 0 0
BITMAP
1980
1980
0000
0000
C030
6030
6060
3060
30C0
18C0
1D80
0D80
0700
0600
0600
0600
0600
0600
0600
0600
ENDCHAR
STARTCHAR 03AC
ENCODING 940
SWIDTH 585 0
DWIDTH 13 0
BBX 12 17 1 0
BITMAP
0300
0300
0600
0400
0000
1F60
3BE0
60E0
60E0
C060
C060
C060
C060
E060
60E0
7BE0
1F70
ENDCHAR
STARTCHAR 03AD
ENCODING 941
SWIDTH 450 0
DWIDTH 10 0
BBX 9 17 1 0
BITMAP
0600
0600
0400
0C00
0000
3F00
7700
C000
C000
6000
3E00
7E00
C000
C000
C000
7380
3F80
ENDCHAR
STARTCHAR 03AE
ENCODING 942
SWIDTH 585 0
DWIDTH 13 0
BBX 10 22 2 -5
BITMAP
0C00
0C00
1800
1000
0000
DF00
FF80
E1C0
C0C0
C0C0
C0C0
C0C0
C0C0
C0C0
C0C0
C0C0
C0C0
00C0
00C0
00C0
00C0
00C0
ENDCHAR
STARTCHAR 03AF
ENCODING 943
SWIDTH 315 0
DWIDTH 7 0
BBX 5 17 2 0
BITMAP
70
60
40
40
00
C0
C0
C0
C0
C0
C0
C0
C0
C0
C0
E8
78
ENDCHAR
STARTCHAR 03B0
ENCODING 944
SWIDTH 585 0
DWIDTH 13 0
BBX 10 17 2 0
BITMAP
0E00
6D80
6D80
0800
0000
C180
C180
C0C0
C0C0
C0C0
C0C0
C0C0
C0C0
C180
C180
E700
7E00
ENDCHAR
STARTCHAR 03B1
ENCODING 945
SWIDTH 585 0
DWIDTH 13 0
BBX 12 12 1 0
BITMAP
1F60
3BE0
60E0
60E0
C060
C060
C060
C060
E060
60E0
7BE0
1F70
ENDCHAR
STARTCHAR 03B2
ENCODING 946
SWIDTH 585 0
DWIDTH 13 0
BBX 10 22 2 -5
BITMAP
3F00
7F80
E180
C0C0
C0C0
C0C0
C180
DF00
DF00
C180
C0C0
C0C0
C0C0
C0C0
C0C0
F380
FF00
C000
C000
C000
C000
C000
ENDCHAR
STARTCHAR 03B3
ENCODING 947
SWIDTH 495 0
DWIDTH 11 0
BBX 11 17 0 -5
BITMAP
C060
C060
6060
6060
20C0
30C0
30C0
1980
1980
1B00
0F00
0E00
0C00
0C00
0C00
0C00
0C00
ENDCHAR
STARTCHAR 03B4
ENCODING 948
SWIDTH 585 0
DWIDTH 13 0
BBX 11 17 1 0
BITMAP
0F80
1FC0
3040
3000
3000
1C00
0F00
3B80
60C0
E0C0
C060
C060
C060
C060
60C0
71C0
1F00
ENDCHAR
STARTCHAR 03B5
ENCODING 949
SWIDTH 450 0
DWIDTH 10 0
BBX 9 12 1 0
BITMAP
3F00
7700
C000
C000
6000
3E00
7E00
C000
C000
C000
7380
3F80
ENDCHAR
STARTCHAR 03B6
ENCODING 950
SWIDTH 450 0
DWIDTH 10 0
BBX 9 21 1 -4
BITMAP
7F80
7F80
0300
0600
0600
0C00
1800
3800
3000
6000
6000
C000
C000
C000
6000
7C00
1F00
0380
0180
0180
0180
ENDCHAR
STARTCHAR 03B7
ENCODING 951
SWIDTH 585 0
DWIDTH 13 0
BBX 10 17 2 -5
BITMAP
DF00
FF80
E1C0
C0C0
C0C0
C0C0
C0C0
C0C0
C0C0
C0C0
C0C0
C0C0
00C0
00C0
00C0
00C0
00C0
ENDCHAR
STARTCHAR 03B8
ENCODING 952
SWIDTH 585 0
DWIDTH 13 0
BBX 11 17 1 0
BITMAP
1F00
3F80
70C0
60C0
6060
C060
C060
C060
FFE0
C060
C060
C060
6060
60C0
60C0
3B80
1F00
ENDCHAR
STARTCHAR 03B9
ENCODING 953
SWIDTH 315 0
DWIDTH 7 0
BBX 5 12 2 0
BITMAP
C0
C0
C0
C0
C0
C0
C0
C0
C0
C0
E8
78
ENDCHAR
STARTCHAR 03BA
ENCODING 954
SWIDTH 495 0
DWIDTH 11 0
BBX 9 12 2 0
BITMAP
C180
C300
C600
CC00
DC00
F800
FC00
CC00
C600
C300
C380
C180
ENDCHAR
STARTCHAR 03BB
ENCODING 955
SWIDTH 495 0
DWIDTH 11 0
BBX 12 17 0 0
BITMAP
F000
F800
1C00
0C00
0C00
0E00
0E00
0A00
1B00
1B00
1180
3180
3180
60C0
60C0
60E0
C070
ENDCHAR
STARTCHAR 03BC
ENCODING 956
SWIDTH 585 0
DWIDTH 13 0
BBX 11 17 2 -5
BITMAP
C0C0
C0C0
C0C0
C0C0
C0C0
C0C0
C0C0
C0C0
C0C0
C1C0
F3C0
FEE0
C000
C000
C000
C000
C000
ENDCHAR
STARTCHAR 03BD
ENCODING 957
SWIDTH 495 0
DWIDTH 11 0
BBX 11 12 0 0
BITMAP
C060
C060
6060
6060
20C0
30C0
30C0
1980
1980
1B00
0F00
0E00
ENDCHAR
STARTCHAR 03BE
ENCODING 958
SWIDTH 450 0
DWIDTH 10 0
BBX 9 21 1 -4
BITMAP
7F80
7F00
3000
6000
6000
6000
7000
3F80
1F80
7000
6000
C000
C000
C000
6000
7C00
1F00
0380
0180
0180
0180
ENDCHAR
STARTCHAR 03BF
ENCODING 959
SWIDTH 585 0
DWIDTH 13 0
BBX 11 12 1 0
BITMAP
1F00
3FC0
60C0
6060
C060
C060
C060
C060
6060
60E0
39C0
1F80
ENDCHAR
STARTCHAR 03C0
ENCODING 960
SWIDTH 630 0
DWIDTH 14 0
BBX 14 12 0 0
BITMAP
FFFC
FFFC
1830
1830
1830
1830
1830
1830
1830
1830
1834
183C
ENDCHAR
STARTCHAR 03C1
ENCODING 961
SWIDTH 585 0
DWIDTH 13 0
BBX 10 17 2 -5
BITMAP
3E00
7F80
C180
C0C0
C0C0
C0C0
C0C0
C0C0
C0C0
C180
F380
BF00
8000
C000
C000
C000
C000
ENDCHAR
STARTCHAR 03C2
ENCODING 962
SWIDTH 450 0
DWIDTH 10 0
BBX 9 16 1 -4
BITMAP
1F80
3F80
6000
6000
C000
C000
C000
C000
6000
6000
3C00
1F00
0380
0180
0180
0180
ENDCHAR
STARTCHAR 03C3
ENCODING 963
SWIDTH 585 0
DWIDTH 13 0
BBX 12 12 1 0
BITMAP
0FF0
3FF0
70C0
6060
C060
C060
C060
C060
E060
60C0
79C0
1F00
ENDCHAR
STARTCHAR 03C4
ENCODING 964
SWIDTH 450 0
DWIDTH 10 0
BBX 10 12 0 0
BITMAP
FFC0
FFC0
0C00
0C00
0C00
0C00
0C00
0C00
0C00
0C00
0E40
07C0
ENDCHAR
STARTCHAR 03C5
ENCODING 965
SWIDTH 585 0
DWIDTH 13 0
BBX 10 12 2 0
BITMAP
C180
C180
C0C0
C0C0
C0C0
C0C0
C0C0
C0C0
C180
C180
E700
7E00
ENDCHAR
STARTCHAR 03C6
ENCODING 966
SWIDTH 720 0
DWIDTH 16 0
BBX 14 22 1 -5
BITMAP
0300
0300
0300
0300
0300
0FC0
3FF0
6318
6318
C30C
C30C
C30C
C30C
631C
6318
3B70
0FE0
0300
0300
0300
0300
0300
ENDCHAR
STARTCHAR 03C7
ENCODING 967
SWIDTH 585 0
DWIDTH 13 0
BBX 12 17 1 -5
BITMAP
C030
E060
3060
30C0
1880
1980
1F00
0F00
0E00
0E00
0E00
1B00
3300
3180
6180
60C0
C0F0
ENDCHAR
STARTCHAR 03C8
ENCODING 968
SWIDTH 720 0
DWIDTH 16 0
BBX 13 22 2 -5
BITMAP
0600
0600
0600
0600
0600
C618
C618
C618
C618
C618
C618
C618
C618
C618
E630
7EF0
3FC0
0600
0600
0600
0600
0600
ENDCHAR
STARTCHAR 03C9
ENCODING 969
SWIDTH 765 0
DWIDTH 17 0
BBX 15 12 1 0
BITMAP
300C
600C
6006
6006
6186
C186
C186
4186
6186
6186
73CC
3E78
ENDCHAR
STARTCHAR 03CA
ENCODING 970
SWIDTH 315 0
DWIDTH 7 0
BBX 7 16 0 0
BITMAP
CC
CC
00
00
30
30
30
30
30
30
30
30
30
30
3A
1E
ENDCHAR
STARTCHAR 03CB
ENCODING 971
SWIDTH 585 0
DWIDTH 13 0
BBX 10 16 2 0
BITMAP
6600
6600
0000
0000
C180
C180
C0C0
C0C0
C0C0
C0C0
C0C0
C0C0
C180
C180
E700
7E00
ENDCHAR
STARTCHAR 03CC
ENCODING 972
SWIDTH 585 0
DWIDTH 13 0
BBX 11 17 1 0
BITMAP
0300
0300
0600
0600
0000
1F00
3FC0
60C0
6060
C060
C060
C060
C060
6060
60E0
39C0
1F80
ENDCHAR
STARTCHAR 03CD
ENCODING 973
SWIDTH 585 0
DWIDTH 13 0
BBX 10 17 2 0
BITMAP
0600
0C00
0C00
0800
0000
C180
C180
C0C0
C0C0
C0C0
C0C0
C0C0
C0C0
C180
C180
E700
7E00
ENDCHAR
STARTCHAR 03CE
ENCODING 974
SWIDTH 765 0
DWIDTH 17 0
BBX 15 17 1 0
BITMAP
00E0
00C0
0080
0180
0000
300C
600C
6006
6006
6186
C186
C186
4186
6186
6186
73CC
3E78
ENDCHAR
STARTCHAR 03CF
ENCODING 975
SWIDTH 585 0
DWIDTH 13 0
BBX 12 21 2 -5
BITMAP
C060
C0C0
C180
C300
C700
CE00
DC00
DC00
FC00
E600
C700
C300
C180
C0C0
C0E0
C060
0070
0060
00E0
E3C0
7F80
ENDCHAR
STARTCHAR 03D0
ENCODING 976
SWIDTH 630 0
DWIDTH 14 0
BBX 11 17 2 0
BITMAP
0F80
3FC0
30C0
60C0
7F80
CF00
C000
DF00
FBC0
E0E0
C060
C060
C060
C060
60C0
71C0
3F00
ENDCHAR
STARTCHAR 03D1
ENCODING 977
SWIDTH 585 0
DWIDTH 13 0
BBX 14 17 0 0
BITMAP
0F80
1FC0
18E0
1060
1830
1C30
0FFC
03FC
F030
3030
3030
3030
3030
3060
3060
39C0
1F80
ENDCHAR
STARTCHAR 03D2
ENCODING 978
SWIDTH 585 0
DWIDTH 13 0
BBX 13 16 0 0
BITMAP
C038
6038
6060
3060
30C0
18C0
1D80
0D80
0700
0600
0600
0600
0600
0600
0600
0600
ENDCHAR
STARTCHAR 03D3
ENCODING 979
SWIDTH 765 0
DWIDTH 17 0
BBX 18 16 0 0
BITMAP
7601C0
6703C0
430300
C38600
018600
00CC00
00CC00
007800
007800
003000
003000
003000
003000
003000
003000
003000
ENDCHAR
STARTCHAR 03D4
ENCODING 980
SWIDTH 585 0
DWIDTH 13 0
BBX 13 20 0 0
BITMAP
1980
1880
0000
0000
C038
6038
6060
3060
30C0
18C0
1D80
0D80
0700
0600
0600
0600
0600
0600
0600
0600
ENDCHAR
STARTCHAR 03D5
ENCODING 981
SWIDTH 720 0
DWIDTH 16 0
BBX 14 22 1 -5
BITMAP
0300
0300
0300
0300
0300
0FC0
3FF0
6318
6318
C30C
C30C
C30C
C30C
631C
6318
3B70
0FE0
0300
0300
0300
0300
0300
ENDCHAR
STARTCHAR 03D6
ENCODING 982
SWIDTH 855 0
DWIDTH 19 0
BBX 19 12 0 0
BITMAP
FFFFE0
FFFFE0
180300
300180
304180
304180
304180
304180
306180
18E300
1DB700
0F9E00
ENDCHAR
STARTCHAR 03D7
ENCODING 983
SWIDTH 495 0
DWIDTH 11 0
BBX 10 16 2 -4
BITMAP
C180
C300
C600
CC00
DC00
F800
FC00
CC00
C600
C300
C380
C180
01C0
0180
8380
FE00
ENDCHAR
STARTCHAR 03D8
ENCODING 984
SWIDTH 720 0
DWIDTH 16 0
BBX 15 16 1 0
BITMAP
0FE0
3FF0
3018
600C
600C
E00E
C00E
E00E
600C
600C
7018
3FF8
0FE0
0300
0300
0300
ENDCHAR
STARTCHAR 03D9
ENCODING 985
SWIDTH 585 0
DWIDTH 13 0
BBX 11 17 1 -5
BITMAP
1F00
3FC0
60C0
6060
C060
C060
C060
C060
6060
60C0
39C0
1F80
0600
0600
0600
0600
0600
ENDCHAR
STARTCHAR 03DA
ENCODING 986
SWIDTH 630 0
DWIDTH 14 0
BBX 12 16 1 0
BITMAP
0FE0
3FF0
7010
6000
6000
E000
C000
E000
6000
7000
3800
1F80
0780
0180
0180
0180
ENDCHAR
STARTCHAR 03DB
ENCODING 987
SWIDTH 450 0
DWIDTH 10 0
BBX 9 17 1 -5
BITMAP
1F80
3F80
6000
6000
C000
C000
C000
C000
E000
6000
3C00
1F00
0380
0180
0180
3F00
0C00
ENDCHAR
STARTCHAR 03DC
ENCODING 988
SWIDTH 495 0
DWIDTH 11 0
BBX 9 16 2 0
BITMAP
FF80
FF80
C000
C000
C000
C000
C000
C000
FF00
C300
C300
C300
C000
C000
C000
C000
ENDCHAR
STARTCHAR 03DD
ENCODING 989
SWIDTH 495 0
DWIDTH 11 0
BBX 9 17 2 -5
BITMAP
FF80
FF80
C000
C000
C000
C000
FF00
FF00
C300
C300
C300
C000
C000
C000
C000
C000
C000
ENDCHAR
STARTCHAR 03DE
ENCODING 990
SWIDTH 495 0
DWIDTH 11 0
BBX 11 16 0 0
BITMAP
E000
F000
3000
3000
3000
3000
6000
7FC0
7FC0
0180
0180
0180
0180
0300
01A0
01E0
ENDCHAR
STARTCHAR 03DF
ENCODING 991
SWIDTH 540 0
DWIDTH 12 0
BBX 10 22 1 -5
BITMAP
F000
7800
1800
1800
1800
3000
3000
6000
6040
6FC0
FFC0
F0C0
0180
0180
0180
0300
0300
0600
0600
0600
0700
03C0
ENDCHAR
STARTCHAR 03E0
ENCODING 992
SWIDTH 585 0
DWIDTH 13 0
BBX 12 16 0 0
BITMAP
7E00
FF80
01C0
07C0
0E60
3860
1060
01F0
07B0
0630
0030
0070
0060
0060
0060
00E0
ENDCHAR
STARTCHAR 03E1
ENCODING 993
SWIDTH 495 0
DWIDTH 11 0
BBX 12 22 -2 -5
BITMAP
C000
F800
1C00
0700
0380
0180
03C0
1FE0
1860
0060
0070
03F0
0F30
0030
0030
0030
0030
0030
0030
0030
0060
0060
ENDCHAR
STARTCHAR 03F0
ENCODING 1008
SWIDTH 675 0
DWIDTH 15 0
BBX 14 12 1 0
BITMAP
E030
F070
3060
18E0
19E0
1B60
1E60
1660
3C60
3860
3074
703C
ENDCHAR
STARTCHAR 03F1
ENCODING 1009
SWIDTH 585 0
DWIDTH 13 0
BBX 10 17 2 -5
BITMAP
3E00
7F80
C180
C0C0
C0C0
C0C0
C0C0
C0C0
C0C0
C180
FF00
9E00
C000
C000
7F00
1F00
0100
ENDCHAR
STARTCHAR 03F2
ENCODING 1010
SWIDTH 450 0
DWIDTH 10 0
BBX 9 12 1 0
BITMAP
1F80
3F80
6000
6000
C000
C000
C000
C000
6000
6000
3B80
1F80
ENDCHAR
STARTCHAR 03F3
ENCODING 1011
SWIDTH 225 0
DWIDTH 5 0
BBX 5 21 -1 -5
BITMAP
18
18
00
00
18
18
18
18
18
18
18
18
18
18
18
18
18
18
18
38
F0
ENDCHAR
STARTCHAR 03F4
ENCODING 1012
SWIDTH 765 0
DWIDTH 17 0
BBX 15 16 1 0
BITMAP
0FE0
1FF8
3818
700C
600C
6006
E006
FFFE
FFFE
E006
6006
600C
700C
301C
1FF8
0FE0
ENDCHAR
STARTCHAR 03F5
ENCODING 1013
SWIDTH 495 0
DWIDTH 11 0
BBX 9 12 1 0
BITMAP
1F80
3F80
6000
6000
C000
FF00
FF00
C000
6000
6000
3980
1F80
ENDCHAR
STARTCHAR 03F6
ENCODING 1014
SWIDTH 450 0
DWIDTH 10 0
BBX 9 12 1 0
BITMAP
FC00
FE00
0300
0300
0180
7F80
7F80
0180
0300
0300
CE00
FC00
ENDCHAR
STARTCHAR 03F7
ENCODING 1015
SWIDTH 585 0
DWIDTH 13 0
BBX 10 16 2 0
BITMAP
C000
C000
C000
FF00
FF80
C1C0
C0C0
C0C0
C0C0
C0C0
C380
FF00
F800
C000
C000
C000
ENDCHAR
STARTCHAR 03F8
ENCODING 1016
SWIDTH 585 0
DWIDTH 13 0
BBX 10 22 2 -5
BITMAP
C000
C000
C000
C000
C000
DF00
FF80
E0C0
C0C0
C0C0
C0C0
C0C0
C0C0
C0C0
E0C0
F380
DF00
C000
C000
C000
C000
C000
ENDCHAR
STARTCHAR 03F9
ENCODING 1017
SWIDTH 630 0
DWIDTH 14 0
BBX 12 16 1 0
BITMAP
07F0
1FF0
3810
7000
6000
6000
E000
C000
C000
E000
6000
6000
7000
3800
1FF0
0FF0
ENDCHAR
STARTCHAR 03FA
ENCODING 1018
SWIDTH 900 0
DWIDTH 20 0
BBX 16 16 2 0
BITMAP
E007
F00F
F00F
D81B
D81B
CC33
C663
C663
C3C3
C3C3
C183
C003
C003
C003
C003
C003
ENDCHAR
STARTCHAR 03FB
ENCODING 1019
SWIDTH 720 0
DWIDTH 16 0
BBX 12 17 2 -5
BITMAP
C030
E070
F0F0
F0F0
D9B0
CF30
CF30
C630
C030
C030
C030
C030
C000
C000
C000
C000
C000
ENDCHAR
STARTCHAR 03FC
ENCODING 1020
SWIDTH 585 0
DWIDTH 13 0
BBX 12 17 0 -5
BITMAP
0F80
1FE0
3060
3030
3030
3030
3030
3030
3030
3060
3CE0
2FC0
2000
3000
FF00
3000
3000
ENDCHAR
STARTCHAR 03FD
ENCODING 1021
SWIDTH 630 0
DWIDTH 14 0
BBX 12 16 1 0
BITMAP
7F00
FF80
81C0
00E0
0060
0060
0070
0030
0030
0070
0060
0060
00E0
01C0
FF80
FF00
ENDCHAR
STARTCHAR 03FE
ENCODING 1022
SWIDTH 630 0
DWIDTH 14 0
BBX 12 16 1 0
BITMAP
07F0
1FF0
3810
7000
6000
6000
E000
C380
C380
E100
6000
6000
7000
3800
1FF0
0FF0
ENDCHAR
STARTCHAR 03FF
ENCODING 1023
SWIDTH 630 0
DWIDTH 14 0
BBX 12 16 1 0
BITMAP
7F00
FF80
81C0
00E0
0060
0060
0070
1C30
1C30
0870
0060
0060
00E0
01C0
FF80
FF00
ENDCHAR
STARTCHAR 0400
ENCODING 1024
SWIDTH 540 0
DWIDTH 12 0
BBX 9 21 2 0
BITMAP
3000
1800
0C00
0400
0000
FF80
FF80
C000
C000
C000
C000
C000
FF80
FF80
C000
C000
C000
C000
C000
FF80
FF80
ENDCHAR
STARTCHAR 0401
ENCODING 1025
SWIDTH 540 0
DWIDTH 12 0
BBX 9 20 2 0
BITMAP
3300
3300
0000
0000
FF80
FF80
C000
C000
C000
C000
C000
FF80
FF80
C000
C000
C000
C000
C000
FF80
FF80
ENDCHAR
STARTCHAR 0402
ENCODING 1026
SWIDTH 720 0
DWIDTH 16 0
BBX 15 16 0 0
BITMAP
FFE0
FFE0
0C00
0C00
0C00
0C00
0FF0
0FFC
0C0C
0C06
0C06
0C06
0C06
0C06
0C7C
0C78
ENDCHAR
STARTCHAR 0403
ENCODING 1027
SWIDTH 495 0
DWIDTH 11 0
BBX 9 21 2 0
BITMAP
0700
0600
0C00
1800
0000
FF80
FF80
C000
C000
C000
C000
C000
C000
C000
C000
C000
C000
C000
C000
C000
C000
ENDCHAR
STARTCHAR 0404
ENCODING 1028
SWIDTH 630 0
DWIDTH 14 0
BBX 12 16 1 0
BITMAP
07F0
1FF0
3800
7000
6000
6000
E000
FFC0
FFC0
E000
6000
6000
7000
3800
1FF0
0FF0
ENDCHAR
STARTCHAR 0405
ENCODING 1029
SWIDTH 540 0
DWIDTH 12 0
BBX 10 16 1 0
BITMAP
1F80
7FC0
6000
C000
C000
6000
7000
3E00
0F80
03C0
00C0
00C0
00C0
00C0
FF80
FF00
ENDCHAR
STARTCHAR 0406
ENCODING 1030
SWIDTH 315 0
DWIDTH 7 0
BBX 6 16 1 0
BITMAP
FC
78
30
30
30
30
30
30
30
30
30
30
30
30
70
FC
ENDCHAR
STARTCHAR 0407
ENCODING 1031
SWIDTH 315 0
DWIDTH 7 0
BBX 6 20 1 0
BITMAP
CC
CC
00
00
FC
78
30
30
30
30
30
30
30
30
30
30
30
30
70
FC
ENDCHAR
STARTCHAR 0408
ENCODING 1032
SWIDTH 270 0
DWIDTH 6 0
BBX 6 20 -2 -4
BITMAP
0C
0C
0C
0C
0C
0C
0C
0C
0C
0C
0C
0C
0C
0C
0C
0C
0C
0C
F8
F0
ENDCHAR
STARTCHAR 0409
ENCODING 1033
SWIDTH 900 0
DWIDTH 20 0
BBX 20 16 0 0
BITMAP
07F000
07F000
063000
0C3000
0C3000
0C3000
0C3000
0C3FC0
0C3FE0
0C3070
183030
183030
183030
183060
B03FE0
F03F80
ENDCHAR
STARTCHAR 040A
ENCODING 1034
SWIDTH 945 0
DWIDTH 21 0
BBX 18 16 2 0
BITMAP
C06000
C06000
C06000
C06000
C06000
C06000
C06000
FFFF00
FFFF80
C060C0
C060C0
C060C0
C060C0
C061C0
C07F80
C07F00
ENDCHAR
STARTCHAR 040B
ENCODING 1035
SWIDTH 720 0
DWIDTH 16 0
BBX 15 16 0 0
BITMAP
FFE0
FFE0
0C00
0C00
0C00
0C00
0FF0
0FFC
0C0C
0C06
0C06
0C06
0C06
0C06
0C06
0C06
ENDCHAR
STARTCHAR 040C
ENCODING 1036
SWIDTH 585 0
DWIDTH 13 0
BBX 11 21 2 0
BITMAP
0300
0700
0600
0C00
0000
C060
C0C0
C180
C300
C700
CE00
DC00
F800
D800
CC00
CE00
C700
C380
C1C0
C0C0
C060
ENDCHAR
STARTCHAR 040D
ENCODING 1037
SWIDTH 765 0
DWIDTH 17 0
BBX 13 21 2 0
BITMAP
0C00
0600
0300
0100
0000
C038
C038
C078
C0F8
C0D8
C198
C398
C318
C618
CE18
CC18
D818
F818
F018
E018
E018
ENDCHAR
STARTCHAR 040E
ENCODING 1038
SWIDTH 585 0
DWIDTH 13 0
BBX 14 21 0 0
BITMAP
1860
1860
0FC0
0300
0000
E00C
6018
7018
3030
1830
1860
0C60
0C60
06C0
06C0
0380
0380
0300
0700
7E00
7C00
ENDCHAR
STARTCHAR 040F
ENCODING 1039
SWIDTH 720 0
DWIDTH 16 0
BBX 12 20 2 -4
BITMAP
C030
C030
C030
C030
C030
C030
C030
C030
C030
C030
C030
C030
C030
C030
FFF0
FFF0
0600
0600
0600
0600
ENDCHAR
STARTCHAR 0410
ENCODING 1040
SWIDTH 630 0
DWIDTH 14 0
BBX 14 16 0 0
BITMAP
0300
0380
0780
0780
0CC0
0CC0
0C40
1860
1860
1FF0
3FF0
3030
6018
6018
600C
C00C
ENDCHAR
STARTCHAR 0411
ENCODING 1041
SWIDTH 585 0
DWIDTH 13 0
BBX 11 16 2 0
BITMAP
FFC0
FFC0
C000
C000
C000
C000
C000
FF00
FFC0
C0C0
C0C0
C0E0
C0C0
C0C0
FF80
FF00
ENDCHAR
STARTCHAR 0412
ENCODING 1042
SWIDTH 630 0
DWIDTH 14 0
BBX 11 16 2 0
BITMAP
FF00
FFC0
C0C0
C060
C060
C0C0
C1C0
FF00
FFC0
C0E0
C060
C060
C060
C0E0
FFC0
FF80
ENDCHAR
STARTCHAR 0413
ENCODING 1043
SWIDTH 495 0
DWIDTH 11 0
BBX 9 16 2 0
BITMAP
FF80
FF80
C000
C000
C000
C000
C000
C000
C000
C000
C000
C000
C000
C000
C000
C000
ENDCHAR
STARTCHAR 0414
ENCODING 1044
SWIDTH 675 0
DWIDTH 15 0
BBX 15 20 0 -4
BITMAP
07F8
07F8
0618
0618
0618
0618
0C18
0C18
0C18
0C18
1818
1818
3018
3018
FFFE
FFFE
C006
C006
C006
C006
ENDCHAR
STARTCHAR 0415
ENCODING 1045
SWIDTH 540 0
DWIDTH 12 0
BBX 9 16 2 0
BITMAP
FF80
FF80
C000
C000
C000
C000
C000
FF80
FF80
C000
C000
C000
C000
C000
FF80
FF80
ENDCHAR
STARTCHAR 0416
ENCODING 1046
SWIDTH 810 0
DWIDTH 18 0
BBX 19 16 0 0
BITMAP
6040C0
7041C0
304180
184300
0C4600
064C00
065C00
035800
03F800
064C00
0E4E00
0C4600
184300
304180
6041C0
E040E0
ENDCHAR
STARTCHAR 0417
ENCODING 1047
SWIDTH 585 0
DWIDTH 13 0
BBX 11 16 1 0
BITMAP
3F00
FFC0
40C0
00E0
00C0
00C0
0180
3E00
3F80
00C0
0060
0060
0060
00C0
E3C0
FF00
ENDCHAR
STARTCHAR 0418
ENCODING 1048
SWIDTH 765 0
DWIDTH 17 0
BBX 13 16 2 0
BITMAP
C038
C038
C078
C0F8
C0D8
C198
C398
C318
C618
CE18
CC18
D818
F818
F018
E018
E018
ENDCHAR
STARTCHAR 0419
ENCODING 1049
SWIDTH 765 0
DWIDTH 17 0
BBX 13 21 2 0
BITMAP
1860
1860
1FC0
0300
0000
C038
C038
C078
C0F8
C0D8
C198
C398
C318
C618
CE18
CC18
D818
F818
F018
E018
E018
ENDCHAR
STARTCHAR 041A
ENCODING 1050
SWIDTH 585 0
DWIDTH 13 0
BBX 11 16 2 0
BITMAP
C060
C0C0
C180
C300
C700
CE00
DC00
F800
D800
CC00
CE00
C700
C380
C1C0
C0C0
C060
ENDCHAR
STARTCHAR 041B
ENCODING 1051
SWIDTH 675 0
DWIDTH 15 0
BBX 14 16 0 0
BITMAP
07FC
07FC
040C
0C0C
0C0C
0C0C
0C0C
0C0C
0C0C
0C0C
180C
180C
180C
180C
B00C
F00C
ENDCHAR
STARTCHAR 041C
ENCODING 1052
SWIDTH 900 0
DWIDTH 20 0
BBX 16 16 2 0
BITMAP
E007
F007
F00F
F00F
D81B
D81B
CC13
CC33
CC33
C663
C663
C663
C3C3
C3C3
C183
C183
ENDCHAR
STARTCHAR 041D
ENCODING 1053
SWIDTH 720 0
DWIDTH 16 0
BBX 12 16 2 0
BITMAP
C030
C030
C030
C030
C030
C030
C030
FFF0
FFF0
C030
C030
C030
C030
C030
C030
C030
ENDCHAR
STARTCHAR 041E
ENCODING 1054
SWIDTH 765 0
DWIDTH 17 0
BBX 15 16 1 0
BITMAP
0FE0
1FF8
3818
700C
600C
6006
E006
C006
C006
E006
6006
600C
700C
301C
1FF8
0FE0
ENDCHAR
STARTCHAR 041F
ENCODING 1055
SWIDTH 720 0
DWIDTH 16 0
BBX 12 16 2 0
BITMAP
FFF0
FFF0
C030
C030
C030
C030
C030
C030
C030
C030
C030
C030
C030
C030
C030
C030
ENDCHAR
STARTCHAR 0420
ENCODING 1056
SWIDTH 585 0
DWIDTH 13 0
BBX 10 16 2 0
BITMAP
FE00
FF80
C1C0
C0C0
C0C0
C0C0
C0C0
C1C0
FF80
FE00
C000
C000
C000
C000
C000
C000
ENDCHAR
STARTCHAR 0421
ENCODING 1057
SWIDTH 630 0
DWIDTH 14 0
BBX 12 16 1 0
BITMAP
07F0
1FF0
3810
7000
6000
6000
E000
C000
C000
E000
6000
6000
7000
3800
1FF0
0FF0
ENDCHAR
STARTCHAR 0422
ENCODING 1058
SWIDTH 540 0
DWIDTH 12 0
BBX 12 16 0 0
BITMAP
FFF0
FFF0
0600
0600
0600
0600
0600
0600
0600
0600
0600
0600
0600
0600
0600
0600
ENDCHAR
STARTCHAR 0423
ENCODING 1059
SWIDTH 585 0
DWIDTH 13 0
BBX 14 16 0 0
BITMAP
E00C
6018
7018
3030
1830
1860
0C60
0C60
06C0
06C0
0380
0380
0300
0700
7E00
7C00
ENDCHAR
STARTCHAR 0424
ENCODING 1060
SWIDTH 765 0
DWIDTH 17 0
BBX 16 16 1 0
BITMAP
0180
0180
1FF8
3FFC
718E
6186
C183
C183
C183
C186
6186
718E
3FFC
07E0
0180
0180
ENDCHAR
STARTCHAR 0425
ENCODING 1061
SWIDTH 585 0
DWIDTH 13 0
BBX 13 16 0 0
BITMAP
6030
6030
3060
18C0
18C0
0D80
0700
0700
0700
0D80
0D80
18C0
3060
3060
6030
E038
ENDCHAR
STARTCHAR 0426
ENCODING 1062
SWIDTH 720 0
DWIDTH 16 0
BBX 14 20 2 -4
BITMAP
C030
C030
C030
C030
C030
C030
C030
C030
C030
C030
C030
C030
C030
C030
FFFC
FFFC
000C
000C
000C
000C
ENDCHAR
STARTCHAR 0427
ENCODING 1063
SWIDTH 675 0
DWIDTH 15 0
BBX 11 16 2 0
BITMAP
C060
C060
C060
C060
C060
C060
C060
C060
E1E0
7FE0
0060
0060
0060
0060
0060
0060
ENDCHAR
STARTCHAR 0428
ENCODING 1064
SWIDTH 1035 0
DWIDTH 23 0
BBX 19 16 2 0
BITMAP
C0C060
C0C060
C0C060
C0C060
C0C060
C0C060
C0C060
C0C060
C0C060
C0C060
C0C060
C0C060
C0C060
C0C060
FFFFE0
FFFFE0
ENDCHAR
STARTCHAR 0429
ENCODING 1065
SWIDTH 1035 0
DWIDTH 23 0
BBX 20 20 2 -4
BITMAP
C0C060
C0C060
C0C060
C0C060
C0C060
C0C060
C0C060
C0C060
C0C060
C0C060
C0C060
C0C060
C0C060
C0C060
FFFFF0
FFFFF0
000010
000010
000010
000010
ENDCHAR
STARTCHAR 042A
ENCODING 1066
SWIDTH 675 0
DWIDTH 15 0
BBX 14 16 0 0
BITMAP
FC00
FC00
0C00
0C00
0C00
0C00
0C00
0FF0
0FF8
0C0C
0C0C
0C0C
0C0C
0C1C
0FF8
0FF0
ENDCHAR
STARTCHAR 042B
ENCODING 1067
SWIDTH 855 0
DWIDTH 19 0
BBX 15 16 2 0
BITMAP
C006
C006
C006
C006
C006
C006
C006
FF06
FFC6
C0C6
C0C6
C0C6
C0C6
C0C6
FF86
FF06
ENDCHAR
STARTCHAR 042C
ENCODING 1068
SWIDTH 630 0
DWIDTH 14 0
BBX 11 16 2 0
BITMAP
C000
C000
C000
C000
C000
C000
C000
FF80
FFC0
C0E0
C060
C060
C060
C0E0
FFC0
FF00
ENDCHAR
STARTCHAR 042D
ENCODING 1069
SWIDTH 630 0
DWIDTH 14 0
BBX 12 16 1 0
BITMAP
7F00
FF80
81C0
00E0
0060
0060
0030
3FF0
3FF0
0030
0060
0060
00E0
01C0
FF80
FF00
ENDCHAR
STARTCHAR 042E
ENCODING 1070
SWIDTH 1035 0
DWIDTH 23 0
BBX 20 16 2 0
BITMAP
C03F00
C0FFC0
C1C0C0
C18060
C38060
C30030
C30030
FF0030
FF0030
C30030
C30030
C38070
C18060
C1C0E0
C0FFC0
C03F00
ENDCHAR
STARTCHAR 042F
ENCODING 1071
SWIDTH 630 0
DWIDTH 14 0
BBX 11 16 1 0
BITMAP
0FE0
3FE0
7060
6060
6060
6060
6060
3860
1FE0
0C60
1860
3860
3060
6060
E060
C060
ENDCHAR
STARTCHAR 0430
ENCODING 1072
SWIDTH 540 0
DWIDTH 12 0
BBX 10 12 1 0
BITMAP
3F00
3B80
01C0
00C0
00C0
3FC0
70C0
C0C0
C0C0
C1C0
E7C0
7EC0
ENDCHAR
STARTCHAR 0431
ENCODING 1073
SWIDTH 585 0
DWIDTH 13 0
BBX 11 17 1 0
BITMAP
00E0
0FE0
3C00
3000
6000
6000
6F80
DFC0
F0E0
E060
C060
C060
6060
6060
60C0
39C0
1F80
ENDCHAR
STARTCHAR 0432
ENCODING 1074
SWIDTH 540 0
DWIDTH 12 0
BBX 10 12 2 0
BITMAP
FF00
FF80
C180
C180
C180
FF00
FF80
C0C0
C0C0
C0C0
FF80
FF00
ENDCHAR
STARTCHAR 0433
ENCODING 1075
SWIDTH 405 0
DWIDTH 9 0
BBX 7 12 2 0
BITMAP
FE
FE
C0
C0
C0
C0
C0
C0
C0
C0
C0
C0
ENDCHAR
STARTCHAR 0434
ENCODING 1076
SWIDTH 540 0
DWIDTH 12 0
BBX 12 16 0 -4
BITMAP
0FE0
0FE0
0C60
0C60
0C60
0C60
1860
1860
1060
3060
FFF0
FFF0
C010
C010
C010
C010
ENDCHAR
STARTCHAR 0435
ENCODING 1077
SWIDTH 540 0
DWIDTH 12 0
BBX 10 12 1 0
BITMAP
1F00
3B80
60C0
60C0
C0C0
FFC0
C000
C000
6000
6000
39C0
1FC0
ENDCHAR
STARTCHAR 0436
ENCODING 1078
SWIDTH 720 0
DWIDTH 16 0
BBX 16 12 0 0
BITMAP
6183
3186
398C
1998
0DB0
07B0
07F0
0D98
199C
318C
7186
E183
ENDCHAR
STARTCHAR 0437
ENCODING 1079
SWIDTH 450 0
DWIDTH 10 0
BBX 9 12 1 0
BITMAP
FE00
FF00
0300
0100
0300
3E00
3F00
0180
0180
0180
C700
FE00
ENDCHAR
STARTCHAR 0438
ENCODING 1080
SWIDTH 630 0
DWIDTH 14 0
BBX 10 12 2 0
BITMAP
C0C0
C1C0
C340
C340
C640
C440
CC40
D840
D840
F040
E040
E040
ENDCHAR
STARTCHAR 0439
ENCODING 1081
SWIDTH 630 0
DWIDTH 14 0
BBX 10 17 2 0
BITMAP
6080
2180
3F80
0400
0000
C0C0
C1C0
C340
C340
C640
C440
CC40
D840
D840
F040
E040
E040
ENDCHAR
STARTCHAR 043A
ENCODING 1082
SWIDTH 495 0
DWIDTH 11 0
BBX 9 12 2 0
BITMAP
C180
C300
C600
CC00
D800
F000
F800
D800
CC00
C600
C300
C180
ENDCHAR
STARTCHAR 043B
ENCODING 1083
SWIDTH 540 0
DWIDTH 12 0
BBX 11 12 0 0
BITMAP
0FE0
0FE0
0860
1860
1860
1860
1860
1860
1060
3060
7060
E060
ENDCHAR
STARTCHAR 043C
ENCODING 1084
SWIDTH 720 0
DWIDTH 16 0
BBX 13 12 2 0
BITMAP
E038
E038
E078
F078
F0D8
D8D8
D898
C998
CD18
CF18
C718
C618
ENDCHAR
STARTCHAR 043D
ENCODING 1085
SWIDTH 630 0
DWIDTH 14 0
BBX 10 12 2 0
BITMAP
C0C0
C0C0
C0C0
C0C0
C0C0
FFC0
FFC0
C0C0
C0C0
C0C0
C0C0
C0C0
ENDCHAR
STARTCHAR 043E
ENCODING 1086
SWIDTH 585 0
DWIDTH 13 0
BBX 11 12 1 0
BITMAP
1F00
3FC0
60C0
6060
C060
C060
C060
C060
6060
60E0
39C0
1F80
ENDCHAR
STARTCHAR 043F
ENCODING 1087
SWIDTH 585 0
DWIDTH 13 0
BBX 10 12 2 0
BITMAP
FFC0
FFC0
C0C0
C0C0
C0C0
C0C0
C0C0
C0C0
C0C0
C0C0
C0C0
C0C0
ENDCHAR
STARTCHAR 0440
ENCODING 1088
SWIDTH 585 0
DWIDTH 13 0
BBX 10 17 2 -5
BITMAP
DF00
FF80
E1C0
C0C0
C0C0
C0C0
C0C0
C0C0
C0C0
E0C0
F380
DF00
C000
C000
C000
C000
C000
ENDCHAR
STARTCHAR 0441
ENCODING 1089
SWIDTH 450 0
DWIDTH 10 0
BBX 9 12 1 0
BITMAP
1F80
3F80
6000
6000
C000
C000
C000
C000
6000
6000
3B80
1F80
ENDCHAR
STARTCHAR 0442
ENCODING 1090
SWIDTH 450 0
DWIDTH 10 0
BBX 10 12 0 0
BITMAP
FFC0
FFC0
0C00
0C00
0C00
0C00
0C00
0C00
0C00
0C00
0C00
0C00
ENDCHAR
STARTCHAR 0443
ENCODING 1091
SWIDTH 495 0
DWIDTH 11 0
BBX 11 17 0 -5
BITMAP
C060
6060
60C0
60C0
30C0
3180
1980
1980
1B00
0F00
0E00
0600
0600
0C00
0C00
1800
F000
ENDCHAR
STARTCHAR 0444
ENCODING 1092
SWIDTH 720 0
DWIDTH 16 0
BBX 14 22 1 -5
BITMAP
0300
0300
0300
0300
0300
0FC0
3FF0
7338
6318
C30C
C30C
C30C
C30C
6318
6318
3F70
1FE0
0300
0300
0300
0300
0300
ENDCHAR
STARTCHAR 0445
ENCODING 1093
SWIDTH 495 0
DWIDTH 11 0
BBX 10 12 1 0
BITMAP
C0C0
6180
6300
3300
1E00
1C00
1C00
1E00
3300
6380
E180
C0C0
ENDCHAR
STARTCHAR 0446
ENCODING 1094
SWIDTH 630 0
DWIDTH 14 0
BBX 12 16 2 -4
BITMAP
C0C0
C0C0
C0C0
C0C0
C0C0
C0C0
C0C0
C0C0
C0C0
C0C0
FFF0
FFF0
0030
0030
0030
0030
ENDCHAR
STARTCHAR 0447
ENCODING 1095
SWIDTH 585 0
DWIDTH 13 0
BBX 10 12 2 0
BITMAP
C0C0
C0C0
C0C0
C0C0
C0C0
C1C0
FFC0
7CC0
00C0
00C0
00C0
00C0
ENDCHAR
STARTCHAR 0448
ENCODING 1096
SWIDTH 855 0
DWIDTH 19 0
BBX 16 12 2 0
BITMAP
C183
C183
C183
C183
C183
C183
C183
C183
C183
C183
FFFF
FFFF
ENDCHAR
STARTCHAR 0449
ENCODING 1097
SWIDTH 900 0
DWIDTH 20 0
BBX 18 16 2 -4
BITMAP
C18300
C18300
C18300
C18300
C18300
C18300
C18300
C18300
C18300
C18300
FFFFC0
FFFFC0
0000C0
0000C0
0000C0
0000C0
ENDCHAR
STARTCHAR 044A
ENCODING 1098
SWIDTH 675 0
DWIDTH 15 0
BBX 14 12 0 0
BITMAP
FC00
FC00
0C00
0C00
0C00
0FF0
0FFC
0C0C
0C0C
0C0C
0FFC
0FF0
ENDCHAR
STARTCHAR 044B
ENCODING 1099
SWIDTH 765 0
DWIDTH 17 0
BBX 13 12 2 0
BITMAP
C018
C018
C018
C018
C018
FF18
FF98
C198
C098
C198
FF98
FF18
ENDCHAR
STARTCHAR 044C
ENCODING 1100
SWIDTH 585 0
DWIDTH 13 0
BBX 10 12 2 0
BITMAP
C000
C000
C000
C000
C000
FF00
FFC0
C0C0
C0C0
C0C0
FF80
FF00
ENDCHAR
STARTCHAR 044D
ENCODING 1101
SWIDTH 450 0
DWIDTH 10 0
BBX 9 12 1 0
BITMAP
FC00
FE00
0300
0300
0180
7F80
7F80
0180
0300
0300
CE00
FC00
ENDCHAR
STARTCHAR 044E
ENCODING 1102
SWIDTH 810 0
DWIDTH 18 0
BBX 15 12 2 0
BITMAP
C1F8
C3FC
C30E
C606
C606
FE06
FE06
C606
C606
C306
C39C
C1F8
ENDCHAR
STARTCHAR 044F
ENCODING 1103
SWIDTH 540 0
DWIDTH 12 0
BBX 10 12 1 0
BITMAP
3FC0
7FC0
C0C0
C0C0
C0C0
E0C0
3FC0
38C0
30C0
60C0
E0C0
C0C0
ENDCHAR
STARTCHAR 0450
ENCODING 1104
SWIDTH 540 0
DWIDTH 12 0
BBX 10 17 1 0
BITMAP
1800
1C00
0C00
0200
0000
1F00
3B80
60C0
60C0
C0C0
FFC0
C000
C000
6000
6000
39C0
1FC0
ENDCHAR
STARTCHAR 0451
ENCODING 1105
SWIDTH 540 0
DWIDTH 12 0
BBX 10 16 1 0
BITMAP
3300
3100
0000
0000
1F00
3B80
60C0
60C0
C0C0
FFC0
C000
C000
6000
6000
39C0
1FC0
ENDCHAR
STARTCHAR 0452
ENCODING 1106
SWIDTH 585 0
DWIDTH 13 0
BBX 12 22 0 -5
BITMAP
3000
3000
FF00
FF00
3000
3380
3FE0
3870
3030
3030
3030
3030
3030
3030
3030
3030
3030
0030
0030
0030
0070
01E0
ENDCHAR
STARTCHAR 0453
ENCODING 1107
SWIDTH 405 0
DWIDTH 9 0
BBX 7 17 2 0
BITMAP
0C
1C
18
30
00
FE
FE
C0
C0
C0
C0
C0
C0
C0
C0
C0
C0
ENDCHAR
STARTCHAR 0454
ENCODING 1108
SWIDTH 495 0
DWIDTH 11 0
BBX 9 12 1 0
BITMAP
1F80
3F80
6000
6000
C000
FF00
FF00
C000
6000
6000
3980
1F80
ENDCHAR
STARTCHAR 0455
ENCODING 1109
SWIDTH 450 0
DWIDTH 10 0
BBX 9 12 1 0
BITMAP
3F00
7700
C000
C000
E000
3C00
0F00
0300
0180
0180
E700
FE00
ENDCHAR
STARTCHAR 0456
ENCODING 1110
SWIDTH 225 0
DWIDTH 5 0
BBX 2 16 2 0
BITMAP
C0
C0
00
00
C0
C0
C0
C0
C0
C0
C0
C0
C0
C0
C0
C0
ENDCHAR
STARTCHAR 0457
ENCODING 1111
SWIDTH 225 0
DWIDTH 5 0
BBX 6 16 0 0
BITMAP
CC
CC
00
00
30
30
30
30
30
30
30
30
30
30
30
30
ENDCHAR
STARTCHAR 0458
ENCODING 1112
SWIDTH 225 0
DWIDTH 5 0
BBX 5 21 -1 -5
BITMAP
18
18
00
00
18
18
18
18
18
18
18
18
18
18
18
18
18
18
18
38
F0
ENDCHAR
STARTCHAR 0459
ENCODING 1113
SWIDTH 810 0
DWIDTH 18 0
BBX 18 12 0 0
BITMAP
0FC000
0FC000
08C000
18C000
18C000
18FF00
18FF80
18C180
10C0C0
30C180
70FF80
E0FF00
ENDCHAR
STARTCHAR 045A
ENCODING 1114
SWIDTH 855 0
DWIDTH 19 0
BBX 16 12 2 0
BITMAP
C180
C180
C180
C180
C180
FFFE
FFFF
C183
C181
C183
C1FF
C1FE
ENDCHAR
STARTCHAR 045B
ENCODING 1115
SWIDTH 585 0
DWIDTH 13 0
BBX 12 17 0 0
BITMAP
3000
3000
FF80
FF80
3000
3380
3FE0
3870
3030
3030
3030
3030
3030
3030
3030
3030
3030
ENDCHAR
STARTCHAR 045C
ENCODING 1116
SWIDTH 495 0
DWIDTH 11 0
BBX 9 17 2 0
BITMAP
0600
0C00
1800
1000
0000
C180
C300
C600
CC00
D800
F000
F800
D800
CC00
C600
C300
C180
ENDCHAR
STARTCHAR 045D
ENCODING 1117
SWIDTH 630 0
DWIDTH 14 0
BBX 10 17 2 0
BITMAP
1800
1C00
0C00
0200
0000
C0C0
C1C0
C340
C340
C640
C440
CC40
D840
D840
F040
E040
E040
ENDCHAR
STARTCHAR 045E
ENCODING 1118
SWIDTH 495 0
DWIDTH 11 0
BBX 11 22 0 -5
BITMAP
20C0
30C0
3F80
0400
0000
C060
6060
60C0
60C0
30C0
3180
1980
1980
1B00
0F00
0E00
0600
0600
0C00
0C00
1800
F000
ENDCHAR
STARTCHAR 045F
ENCODING 1119
SWIDTH 585 0
DWIDTH 13 0
BBX 10 16 2 -4
BITMAP
C0C0
C0C0
C0C0
C0C0
C0C0
C0C0
C0C0
C0C0
C0C0
C0C0
FFC0
FFC0
0C00
0C00
0C00
0C00
ENDCHAR
STARTCHAR 0460
ENCODING 1120
SWIDTH 900 0
DWIDTH 20 0
BBX 19 16 1 0
BITMAP
C0C060
C0C060
C0C060
C0C060
C0C060
C0E0C0
E0E0C0
61E0C0
61F0C0
61B1C0
333180
331980
3A1B00
1E1B00
1E0F00
0C0E00
ENDCHAR
STARTCHAR 0461
ENCODING 1121
SWIDTH 765 0
DWIDTH 17 0
BBX 17 12 0 0
BITMAP
C18180
408180
60C180
60C180
60C300
60C300
31E300
316600
336600
1A3400
1E3C00
0C1800
ENDCHAR
STARTCHAR 0462
ENCODING 1122
SWIDTH 675 0
DWIDTH 15 0
BBX 14 16 0 0
BITMAP
0C00
0C00
FFC0
FFC0
0C00
0C00
0C00
0FF0
0FF8
0C18
0C0C
0C0C
0C0C
0C18
0FF8
0FE0
ENDCHAR
STARTCHAR 0463
ENCODING 1123
SWIDTH 630 0
DWIDTH 14 0
BBX 13 14 0 0
BITMAP
1800
1800
FF00
FF00
1800
1800
1800
1FE0
1FF0
1818
1818
1818
1FF0
1FE0
ENDCHAR
STARTCHAR 0464
ENCODING 1124
SWIDTH 900 0
DWIDTH 20 0
BBX 18 16 2 0
BITMAP
C03F80
C0FFC0
C0C000
C18000
C38000
C30000
C30000
FFFE00
FFFE00
C30000
C30000
C38000
C18000
C1C000
C0FF80
C03F80
ENDCHAR
STARTCHAR 0465
ENCODING 1125
SWIDTH 720 0
DWIDTH 16 0
BBX 14 12 2 0
BITMAP
C0FC
C3F8
C300
C600
C600
FFF8
FFF8
C600
C600
C300
C3DC
C1FC
ENDCHAR
STARTCHAR 0466
ENCODING 1126
SWIDTH 675 0
DWIDTH 15 0
BBX 15 16 0 0
BITMAP
0380
0380
02C0
06C0
06C0
0C60
0C60
0FF0
1FF0
1930
3118
3118
710C
610C
610E
C106
ENDCHAR
STARTCHAR 0467
ENCODING 1127
SWIDTH 540 0
DWIDTH 12 0
BBX 12 12 0 0
BITMAP
0700
0700
0D80
0D80
1880
1FC0
3FC0
3660
3660
6630
6630
C630
ENDCHAR
STARTCHAR 0468
ENCODING 1128
SWIDTH 900 0
DWIDTH 20 0
BBX 18 16 2 0
BITMAP
C03000
C03800
C07800
C07800
C0CC00
C0CC00
C18600
FFFE00
FFFF00
C33300
C33300
C63180
C63180
C631C0
CC30C0
CC30C0
ENDCHAR
STARTCHAR 0469
ENCODING 1129
SWIDTH 765 0
DWIDTH 17 0
BBX 15 12 2 0
BITMAP
C0C0
C1E0
C1E0
C330
C330
FFF0
FFF8
C6D8
CCCC
CCCC
D8C6
D8C6
ENDCHAR
STARTCHAR 046A
ENCODING 1130
SWIDTH 720 0
DWIDTH 16 0
BBX 16 16 0 0
BITMAP
3FFC
3FFC
380C
1818
0C30
0660
03C0
0FF0
1FB8
318C
318C
3186
6186
6186
6186
E183
ENDCHAR
STARTCHAR 046B
ENCODING 1131
SWIDTH 630 0
DWIDTH 14 0
BBX 14 12 0 0
BITMAP
3FF8
3FF0
1860
0C40
06C0
1FE0
3B70
3330
6318
6318
6308
C30C
ENDCHAR
STARTCHAR 046C
ENCODING 1132
SWIDTH 945 0
DWIDTH 21 0
BBX 20 16 2 0
BITMAP
C3FFC0
C3FFC0
C301C0
C18180
C0C300
C06600
C03C00
FFFF00
FFDF80
C318C0
C318C0
C618C0
C61860
C61860
C61860
CC1830
ENDCHAR
STARTCHAR 046D
ENCODING 1133
SWIDTH 810 0
DWIDTH 18 0
BBX 17 12 2 0
BITMAP
CFFE00
C7FE00
C60C00
C31800
C1B000
FFF800
FF7C00
C66600
CC6600
CC6300
D86300
D86180
ENDCHAR
STARTCHAR 046E
ENCODING 1134
SWIDTH 585 0
DWIDTH 13 0
BBX 11 23 1 -5
BITMAP
6180
3300
1E00
3F00
FFC0
40C0
00C0
00C0
00C0
0180
3E00
3F80
00C0
0060
0060
0060
00C0
0FC0
7F00
C000
C000
E380
7FC0
ENDCHAR
STARTCHAR 046F
ENCODING 1135
SWIDTH 450 0
DWIDTH 10 0
BBX 10 19 0 -4
BITMAP
6180
3380
1E00
7F00
7F80
0180
0080
0180
1F00
1F80
00C0
00C0
00C0
0380
7F00
E000
C000
7F80
7FC0
ENDCHAR
STARTCHAR 0470
ENCODING 1136
SWIDTH 765 0
DWIDTH 17 0
BBX 14 16 2 0
BITMAP
C30C
C30C
C30C
C30C
C30C
C30C
C30C
C30C
631C
7318
3FF0
0FC0
0300
0300
0300
0300
ENDCHAR
STARTCHAR 0471
ENCODING 1137
SWIDTH 720 0
DWIDTH 16 0
BBX 13 22 2 -5
BITMAP
0600
0600
0600
0600
0600
C618
C618
C618
C618
C618
C618
C618
C618
C618
E630
7EF0
3FC0
0600
0600
0600
0600
0600
ENDCHAR
STARTCHAR 0472
ENCODING 1138
SWIDTH 765 0
DWIDTH 17 0
BBX 15 16 1 0
BITMAP
0FE0
1FF8
3818
700C
600C
6006
E006
FFFE
FFFE
E006
6006
600C
700C
301C
1FF8
0FE0
ENDCHAR
STARTCHAR 0473
ENCODING 1139
SWIDTH 585 0
DWIDTH 13 0
BBX 11 12 1 0
BITMAP
1F00
3FC0
60C0
6060
C060
FFE0
FFE0
C060
6060
60E0
39C0
1F80
ENDCHAR
STARTCHAR 0474
ENCODING 1140
SWIDTH 630 0
DWIDTH 14 0
BBX 15 16 0 0
BITMAP
C00E
E01E
6030
6030
3030
3060
3060
1860
18C0
18C0
0CC0
0D80
0D80
0780
0700
0300
ENDCHAR
STARTCHAR 0475
ENCODING 1141
SWIDTH 495 0
DWIDTH 11 0
BBX 12 12 0 0
BITMAP
C070
6070
60C0
60C0
3080
3180
3180
1900
1B00
1B00
0E00
0E00
ENDCHAR
STARTCHAR 0476
ENCODING 1142
SWIDTH 630 0
DWIDTH 14 0
BBX 15 21 0 0
BITMAP
3300
1980
0880
0440
0000
C00E
E01E
6030
6030
3030
3060
3060
1860
18C0
18C0
0CC0
0D80
0D80
0780
0700
0300
ENDCHAR
STARTCHAR 0477
ENCODING 1143
SWIDTH 495 0
DWIDTH 11 0
BBX 12 17 0 0
BITMAP
6600
3300
1100
0880
0000
C070
6070
60C0
60C0
3080
3180
3180
1900
1B00
1B00
0E00
0E00
ENDCHAR
STARTCHAR 0478
ENCODING 1144
SWIDTH 1215 0
DWIDTH 27 0
BBX 26 21 1 -5
BITMAP
0FC00000
1FF00000
30300000
60180000
601980C0
600D8180
E00CC180
C00CC180
C00C6300
E00C6300
600C6300
60183600
60183600
30301400
3FF01C00
0FC01C00
00001800
00001800
00003800
00007000
0001E000
ENDCHAR
STARTCHAR 0479
ENCODING 1145
SWIDTH 1080 0
DWIDTH 24 0
BBX 23 17 1 -5
BITMAP
1F0C06
3FC606
60C60C
60660C
C0630C
C06318
C06198
C06198
6061B0
60E0F0
39C0E0
1F8060
000060
0000C0
0000C0
000180
000F00
ENDCHAR
STARTCHAR 047A
ENCODING 1146
SWIDTH 810 0
DWIDTH 18 0
BBX 16 18 1 -1
BITMAP
0180
07E0
1FF8
399C
700E
6006
6007
E003
C003
C003
E003
6007
6006
7006
398C
1FF8
0FF0
01C0
ENDCHAR
STARTCHAR 047B
ENCODING 1147
SWIDTH 630 0
DWIDTH 14 0
BBX 12 14 1 -1
BITMAP
0700
1F80
3FE0
6070
6030
C030
C030
C030
C030
6030
6070
3FE0
1FC0
0700
ENDCHAR
STARTCHAR 047C
ENCODING 1148
SWIDTH 990 0
DWIDTH 22 0
BBX 20 23 1 0
BITMAP
01E000
01FE00
030E00
006000
002000
006000
000000
0F8F80
3F8FC0
300060
600030
600030
600030
C00030
C00030
C00030
C06030
606030
606030
606070
306060
3FFFC0
0F9F80
ENDCHAR
STARTCHAR 047D
ENCODING 1149
SWIDTH 900 0
DWIDTH 20 0
BBX 18 20 1 0
BITMAP
010000
07E000
063800
00C000
004000
00C000
010000
000000
1F1E00
3E1F80
600180
600180
C000C0
C000C0
C0C0C0
C0C0C0
60C1C0
60C180
3BF780
1F3E00
ENDCHAR
STARTCHAR 047E
ENCODING 1150
SWIDTH 900 0
DWIDTH 20 0
BBX 19 20 1 0
BITMAP
07FC00
064800
004000
000000
C0C060
C0C060
C0C060
C0C060
C0C060
C0E0C0
E0E0C0
61E0C0
61F0C0
61B1C0
333180
331980
3A1B00
1E1B00
1E0F00
0C0E00
ENDCHAR
STARTCHAR 047F
ENCODING 1151
SWIDTH 765 0
DWIDTH 17 0
BBX 17 16 0 0
BITMAP
0FF800
0C9800
008000
000000
C18180
408180
60C180
60C180
60C300
60C300
31E300
316600
336600
1A3400
1E3C00
0C1800
ENDCHAR
STARTCHAR 0480
ENCODING 1152
SWIDTH 630 0
DWIDTH 14 0
BBX 12 21 1 -5
BITMAP
07F0
1FF0
3800
7000
6000
6000
E000
C000
C000
E000
6000
6000
7000
3800
1FC0
0FC0
00C0
00C0
00C0
00C0
00C0
ENDCHAR
STARTCHAR 0481
ENCODING 1153
SWIDTH 450 0
DWIDTH 10 0
BBX 9 17 1 -5
BITMAP
1F80
3F80
6000
6000
C000
C000
C000
C000
E000
6000
7900
1F00
0300
0300
0300
0300
0300
ENDCHAR
STARTCHAR 0482
ENCODING 1154
SWIDTH 585 0
DWIDTH 13 0
BBX 11 14 1 0
BITMAP
0040
00C0
1880
0F80
0380
03C0
0660
C400
7C00
1C00
1E00
3300
2000
2000
ENDCHAR
STARTCHAR 0483
ENCODING 1155
SWIDTH 0 0
DWIDTH 0 0
BBX 8 3 -10 13
BITMAP
03
FF
C0
ENDCHAR
STARTCHAR 0484
ENCODING 1156
SWIDTH 0 0
DWIDTH 0 0
BBX 8 2 -10 14
BITMAP
1E
F3
ENDCHAR
STARTCHAR 0485
ENCODING 1157
SWIDTH 0 0
DWIDTH 0 0
BBX 3 4 -8 13
BITMAP
E0
C0
40
20
ENDCHAR
STARTCHAR 0486
ENCODING 1158
SWIDTH 0 0
DWIDTH 0 0
BBX 3 4 -8 13
BITMAP
60
20
40
80
ENDCHAR
STARTCHAR 0487
ENCODING 1159
SWIDTH 0 0
DWIDTH 0 0
BBX 8 3 -4 17
BITMAP
20
FC
87
ENDCHAR
STARTCHAR 0488
ENCODING 1160
SWIDTH 0 0
DWIDTH 0 0
BBX 26 22 -13 -5
BITMAP
001E0000
00230000
00000000
0C001800
1F003E00
11002200
00000000
00000000
00000000
00000000
78000780
C40008C0
00000000
00000000
00000000
00000000
0E001C00
1F003E00
11002200
00000000
001E0000
00220000
ENDCHAR
STARTCHAR 0489
ENCODING 1161
SWIDTH 0 0
DWIDTH 0 0
BBX 24 24 -12 -6
BITMAP
000800
001800
001800
081800
0C001C
0C0070
060060
040000
000000
000000
000000
F0000E
70000F
000000
000000
000000
000000
000020
060060
1C0030
101810
001810
001800
001000
ENDCHAR
STARTCHAR 048A
ENCODING 1162
SWIDTH 765 0
DWIDTH 17 0
BBX 15 25 2 -4
BITMAP
3060
1060
1DC0
0F80
0000
C038
C038
C078
C0F8
C0D8
C198
C398
C318
C618
CE18
CC18
D818
F818
F018
E01E
E01E
0004
000C
000C
001C
ENDCHAR
STARTCHAR 048B
ENCODING 1163
SWIDTH 630 0
DWIDTH 14 0
BBX 12 21 2 -4
BITMAP
6080
2180
3F80
0400
0000
C0C0
C1C0
C340
C340
C640
C440
CC40
D840
D840
F040
E070
E070
0030
0030
0020
0060
ENDCHAR
STARTCHAR 048C
ENCODING 1164
SWIDTH 585 0
DWIDTH 13 0
BBX 12 16 1 0
BITMAP
6000
6000
FE00
FE00
6000
6000
6000
7F80
7FE0
6060
6060
6070
6060
6060
7FC0
7F80
ENDCHAR
STARTCHAR 048D
ENCODING 1165
SWIDTH 585 0
DWIDTH 13 0
BBX 12 17 0 0
BITMAP
3000
3000
3000
FE00
3000
3000
3000
3000
3000
3000
3FC0
3FE0
3030
3030
3030
3FE0
3FC0
ENDCHAR
STARTCHAR 048E
ENCODING 1166
SWIDTH 585 0
DWIDTH 13 0
BBX 10 16 2 0
BITMAP
FE00
FF80
C1C0
C0C0
C0C0
C0C0
C4C0
C7C0
FF80
FF00
C180
C000
C000
C000
C000
C000
ENDCHAR
STARTCHAR 048F
ENCODING 1167
SWIDTH 585 0
DWIDTH 13 0
BBX 10 17 2 -5
BITMAP
DF00
FF80
E0C0
C0C0
C0C0
C0C0
C0C0
C0C0
C6C0
E6C0
F380
DF80
C080
C080
C000
C000
C000
ENDCHAR
STARTCHAR 0490
ENCODING 1168
SWIDTH 495 0
DWIDTH 11 0
BBX 9 19 2 0
BITMAP
0180
0180
0180
FF80
FF80
C000
C000
C000
C000
C000
C000
C000
C000
C000
C000
C000
C000
C000
C000
ENDCHAR
STARTCHAR 0491
ENCODING 1169
SWIDTH 405 0
DWIDTH 9 0
BBX 7 15 2 0
BITMAP
06
06
06
FE
FE
C0
C0
C0
C0
C0
C0
C0
C0
C0
C0
ENDCHAR
STARTCHAR 0492
ENCODING 1170
SWIDTH 495 0
DWIDTH 11 0
BBX 10 16 1 0
BITMAP
7FC0
7FC0
6000
6000
6000
6000
6000
FF00
FF00
6000
6000
6000
6000
6000
6000
6000
ENDCHAR
STARTCHAR 0493
ENCODING 1171
SWIDTH 405 0
DWIDTH 9 0
BBX 9 12 0 0
BITMAP
3F80
3F80
3000
3000
3000
FF00
FF00
3000
3000
3000
3000
3000
ENDCHAR
STARTCHAR 0494
ENCODING 1172
SWIDTH 630 0
DWIDTH 14 0
BBX 12 22 2 -6
BITMAP
FF80
FF80
C000
C000
C000
C000
C000
FE00
FF80
C1C0
C0E0
C060
C070
C030
C030
C030
0060
0060
00E0
01C0
1F80
0600
ENDCHAR
STARTCHAR 0495
ENCODING 1173
SWIDTH 495 0
DWIDTH 11 0
BBX 9 17 2 -5
BITMAP
FE00
FE00
C000
C000
C000
FC00
FF00
C300
C180
C180
C180
C180
0180
0180
0180
2700
3E00
ENDCHAR
STARTCHAR 0496
ENCODING 1174
SWIDTH 900 0
DWIDTH 20 0
BBX 20 20 0 -4
BITMAP
6040C0
7041C0
304180
184300
0C4600
064C00
065C00
035800
03F800
064C00
0E4E00
0C4600
184300
304180
6041F0
E040F0
000030
000030
000030
000030
ENDCHAR
STARTCHAR 0497
ENCODING 1175
SWIDTH 765 0
DWIDTH 17 0
BBX 17 16 0 -4
BITMAP
618300
318600
398C00
199800
0DB000
07B000
07F000
0D9800
199C00
318C00
718780
E18380
000180
000180
000180
000180
ENDCHAR
STARTCHAR 0498
ENCODING 1176
SWIDTH 585 0
DWIDTH 13 0
BBX 11 21 1 -5
BITMAP
3F00
FFC0
40C0
00E0
00C0
00C0
0180
3E00
3F80
00C0
0060
0060
0060
00C0
E3C0
FF00
0C00
0400
0600
0600
1C00
ENDCHAR
STARTCHAR 0499
ENCODING 1177
SWIDTH 450 0
DWIDTH 10 0
BBX 9 17 1 -5
BITMAP
FE00
FF00
0300
0100
0300
3E00
3F00
0180
0180
0180
C700
FE00
1800
0C00
0C00
2C00
3800
ENDCHAR
STARTCHAR 049A
ENCODING 1178
SWIDTH 630 0
DWIDTH 14 0
BBX 13 20 2 -4
BITMAP
C060
C0C0
C180
C300
C700
CE00
DC00
F800
D800
CC00
CE00
C700
C380
C1C0
C0F8
C078
0018
0018
0018
0018
ENDCHAR
STARTCHAR 049B
ENCODING 1179
SWIDTH 540 0
DWIDTH 12 0
BBX 10 16 2 -4
BITMAP
C180
C300
C600
CC00
D800
F000
F800
D800
CC00
C600
C3C0
C1C0
00C0
00C0
00C0
00C0
ENDCHAR
STARTCHAR 049C
ENCODING 1180
SWIDTH 585 0
DWIDTH 13 0
BBX 11 16 2 0
BITMAP
C060
C0C0
C180
CB00
CF00
CE00
DC00
F800
D800
CC00
CE00
CF00
CB80
C1C0
C0C0
C060
ENDCHAR
STARTCHAR 049D
ENCODING 1181
SWIDTH 495 0
DWIDTH 11 0
BBX 9 12 2 0
BITMAP
C180
DB00
DE00
DC00
D800
F800
F800
D800
DC00
DE00
DB00
C180
ENDCHAR
STARTCHAR 049E
ENCODING 1182
SWIDTH 585 0
DWIDTH 13 0
BBX 13 16 0 0
BITMAP
3018
3030
FC60
FCC0
31C0
3380
3700
3E00
3600
3300
3380
31C0
30E0
3070
3030
3018
ENDCHAR
STARTCHAR 049F
ENCODING 1183
SWIDTH 495 0
DWIDTH 11 0
BBX 11 17 0 0
BITMAP
3000
3000
FF00
FF00
3000
3060
30C0
3180
3300
3600
3C00
3E00
3600
3300
3180
30C0
3060
ENDCHAR
STARTCHAR 04A0
ENCODING 1184
SWIDTH 675 0
DWIDTH 15 0
BBX 15 16 0 0
BITMAP
FC0E
FC0C
0C18
0C30
0C60
0CC0
0D80
0F00
0F80
0DC0
0CE0
0C60
0C30
0C18
0C0C
0C06
ENDCHAR
STARTCHAR 04A1
ENCODING 1185
SWIDTH 585 0
DWIDTH 13 0
BBX 13 12 0 0
BITMAP
FC18
FC30
0C60
0CC0
0D80
0F80
0D80
0DC0
0CE0
0C70
0C30
0C18
ENDCHAR
STARTCHAR 04A2
ENCODING 1186
SWIDTH 720 0
DWIDTH 16 0
BBX 14 20 2 -4
BITMAP
C030
C030
C030
C030
C030
C030
C030
FFF0
FFF0
C030
C030
C030
C030
C030
C03C
C03C
000C
000C
000C
000C
ENDCHAR
STARTCHAR 04A3
ENCODING 1187
SWIDTH 630 0
DWIDTH 14 0
BBX 12 16 2 -4
BITMAP
C0C0
C0C0
C0C0
C0C0
C0C0
FFC0
FFC0
C0C0
C0C0
C0C0
C0F0
C0F0
0030
0030
0030
0030
ENDCHAR
STARTCHAR 04A4
ENCODING 1188
SWIDTH 810 0
DWIDTH 18 0
BBX 16 16 2 0
BITMAP
C03F
C03F
C030
C030
C030
C030
C030
FFF0
FFF0
C030
C030
C030
C030
C030
C030
C030
ENDCHAR
STARTCHAR 04A5
ENCODING 1189
SWIDTH 720 0
DWIDTH 16 0
BBX 14 12 2 0
BITMAP
C0FC
C0FC
C0C0
C0C0
C0C0
FFC0
FFC0
C0C0
C0C0
C0C0
C0C0
C0C0
ENDCHAR
STARTCHAR 04A6
ENCODING 1190
SWIDTH 1035 0
DWIDTH 23 0
BBX 21 22 2 -6
BITMAP
FFF000
FFF000
C03000
C03000
C03000
C03000
C03000
C03F00
C03FC0
C030E0
C03070
C03030
C03030
C03018
C03018
C03018
000030
000030
000070
0008E0
000FC0
000300
ENDCHAR
STARTCHAR 04A7
ENCODING 1191
SWIDTH 855 0
DWIDTH 19 0
BBX 17 17 2 -5
BITMAP
FFC000
FFC000
C0C000
C0C000
C0C000
C0F800
C0FE00
C0C700
C0C300
C0C300
C0C380
C0C180
000300
000300
000300
002700
003E00
ENDCHAR
STARTCHAR 04A8
ENCODING 1192
SWIDTH 765 0
DWIDTH 17 0
BBX 15 17 1 -1
BITMAP
0FC0
1F80
3000
7078
60FC
618C
E186
C186
C186
E186
6186
618C
70CC
30D8
1FF8
0FFE
000E
ENDCHAR
STARTCHAR 04A9
ENCODING 1193
SWIDTH 630 0
DWIDTH 14 0
BBX 12 13 1 -1
BITMAP
1E00
3E00
6000
63E0
C330
C630
C630
C630
6330
6360
39C0
1FF0
0030
ENDCHAR
STARTCHAR 04AA
ENCODING 1194
SWIDTH 630 0
DWIDTH 14 0
BBX 12 21 1 -5
BITMAP
07F0
1FF0
3810
7000
6000
6000
E000
C000
C000
E000
6000
6000
7000
3800
1FF0
0FF0
0300
0180
0180
0580
0700
ENDCHAR
STARTCHAR 04AB
ENCODING 1195
SWIDTH 450 0
DWIDTH 10 0
BBX 9 17 1 -5
BITMAP
1F80
3F80
6000
6000
C000
C000
C000
C000
6000
6000
3B80
1F80
0400
0600
0200
0600
0C00
ENDCHAR
STARTCHAR 04AC
ENCODING 1196
SWIDTH 540 0
DWIDTH 12 0
BBX 12 20 0 -4
BITMAP
FFF0
FFF0
0600
0600
0600
0600
0600
0600
0600
0600
0600
0600
0600
0600
0780
0780
0180
0180
0180
0180
ENDCHAR
STARTCHAR 04AD
ENCODING 1197
SWIDTH 450 0
DWIDTH 10 0
BBX 10 16 0 -4
BITMAP
FFC0
FFC0
0C00
0C00
0C00
0C00
0C00
0C00
0C00
0C00
0F00
0F00
0300
0300
0300
0300
ENDCHAR
STARTCHAR 04AE
ENCODING 1198
SWIDTH 540 0
DWIDTH 12 0
BBX 12 16 0 0
BITMAP
C030
6030
6060
3060
30C0
18C0
1D80
0D80
0700
0600
0600
0600
0600
0600
0600
0600
ENDCHAR
STARTCHAR 04AF
ENCODING 1199
SWIDTH 495 0
DWIDTH 11 0
BBX 11 17 0 -5
BITMAP
C060
6060
60C0
60C0
30C0
3180
1180
1B00
1B00
0B00
0E00
0E00
0600
0600
0600
0600
0600
ENDCHAR
STARTCHAR 04B0
ENCODING 1200
SWIDTH 540 0
DWIDTH 12 0
BBX 12 16 0 0
BITMAP
C030
6030
6060
3060
30C0
18C0
1D80
0D80
0700
0600
3FE0
3FE0
0600
0600
0600
0600
ENDCHAR
STARTCHAR 04B1
ENCODING 1201
SWIDTH 495 0
DWIDTH 11 0
BBX 11 17 0 -5
BITMAP
C060
6060
60C0
60C0
30C0
3180
3180
1B00
1B00
0B00
0E00
0E00
3FC0
0600
0600
0600
0600
ENDCHAR
STARTCHAR 04B2
ENCODING 1202
SWIDTH 630 0
DWIDTH 14 0
BBX 14 20 0 -4
BITMAP
6030
6030
3060
18C0
18C0
0D80
0700
0700
0700
0D80
0D80
18C0
3060
3060
603C
E03C
000C
000C
000C
000C
ENDCHAR
STARTCHAR 04B3
ENCODING 1203
SWIDTH 540 0
DWIDTH 12 0
BBX 11 16 1 -4
BITMAP
C0C0
6180
6300
3300
1E00
1C00
1C00
1E00
3300
6380
E1E0
C0E0
0060
0060
0060
0060
ENDCHAR
STARTCHAR 04B4
ENCODING 1204
SWIDTH 855 0
DWIDTH 19 0
BBX 19 20 0 -4
BITMAP
FFF180
FFF180
060180
060180
060180
060180
060180
060180
060180
060180
060180
060180
060180
060180
07FFE0
07FFE0
000060
000060
000060
000060
ENDCHAR
STARTCHAR 04B5
ENCODING 1205
SWIDTH 720 0
DWIDTH 16 0
BBX 16 16 0 -4
BITMAP
FFCC
FFCC
0C0C
0C0C
0C0C
0C0C
0C0C
0C0C
0C0C
0C0C
0FFF
0FFF
0003
0003
0003
0003
ENDCHAR
STARTCHAR 04B6
ENCODING 1206
SWIDTH 675 0
DWIDTH 15 0
BBX 13 20 2 -4
BITMAP
C060
C060
C060
C060
C060
C060
C060
C060
E1E0
7FE0
0060
0060
0060
0060
0078
0078
0018
0018
0018
0018
ENDCHAR
STARTCHAR 04B7
ENCODING 1207
SWIDTH 585 0
DWIDTH 13 0
BBX 11 16 2 -4
BITMAP
C0C0
C0C0
C0C0
C0C0
C0C0
C1C0
FFC0
7CC0
00C0
00C0
00E0
00E0
0020
0020
0020
0020
ENDCHAR
STARTCHAR 04B8
ENCODING 1208
SWIDTH 675 0
DWIDTH 15 0
BBX 11 16 2 0
BITMAP
C060
C060
C060
C060
C060
C460
C460
C460
E5E0
7FE0
0460
0460
0460
0460
0060
0060
ENDCHAR
STARTCHAR 04B9
ENCODING 1209
SWIDTH 585 0
DWIDTH 13 0
BBX 10 12 2 0
BITMAP
C0C0
C0C0
C0C0
C8C0
C8C0
C9C0
FFC0
7CC0
08C0
08C0
08C0
00C0
ENDCHAR
STARTCHAR 04BA
ENCODING 1210
SWIDTH 675 0
DWIDTH 15 0
BBX 12 16 2 0
BITMAP
C000
C000
C000
C000
C000
C000
DFC0
F8E0
C070
C030
C030
C030
C030
C030
C030
C030
ENDCHAR
STARTCHAR 04BB
ENCODING 1211
SWIDTH 585 0
DWIDTH 13 0
BBX 10 17 2 0
BITMAP
C000
C000
C000
C000
C000
DF00
FF80
E0C0
C0C0
C0C0
C0C0
C0C0
C0C0
C0C0
C0C0
C0C0
C0C0
ENDCHAR
STARTCHAR 04BC
ENCODING 1212
SWIDTH 810 0
DWIDTH 18 0
BBX 17 16 1 0
BITMAP
01F800
07FE00
060600
0C0300
0C0300
980300
980300
FFFF80
7FFF80
180000
180000
1C0000
0C0000
0E0000
07FF00
01FE00
ENDCHAR
STARTCHAR 04BD
ENCODING 1213
SWIDTH 630 0
DWIDTH 14 0
BBX 13 12 1 0
BITMAP
07C0
0EE0
1830
9830
9818
FFF8
3000
1800
1800
1800
0E70
07F0
ENDCHAR
STARTCHAR 04BE
ENCODING 1214
SWIDTH 810 0
DWIDTH 18 0
BBX 17 20 1 -4
BITMAP
01F800
07FE00
0E0600
0C0300
1C0300
980300
980300
FFFF80
7FFF80
180000
180000
1C0000
0C0000
0E0000
07FF00
01FE00
006000
006000
006000
006000
ENDCHAR
STARTCHAR 04BF
ENCODING 1215
SWIDTH 630 0
DWIDTH 14 0
BBX 13 16 1 -4
BITMAP
07C0
0EE0
1830
9830
9818
FFF8
3000
1800
1800
1800
0E70
07F0
0180
0180
0180
0180
ENDCHAR
STARTCHAR 04C0
ENCODING 1216
SWIDTH 315 0
DWIDTH 7 0
BBX 6 16 1 0
BITMAP
FC
78
30
30
30
30
30
30
30
30
30
30
30
30
70
FC
ENDCHAR
STARTCHAR 04C1
ENCODING 1217
SWIDTH 810 0
DWIDTH 18 0
BBX 19 21 0 0
BITMAP
060C00
031800
03F800
00E000
000000
6040C0
7041C0
304180
184300
0C4600
064C00
065C00
035800
03F800
064C00
0E4E00
0C4600
184300
304180
6041C0
E040E0
ENDCHAR
STARTCHAR 04C2
ENCODING 1218
SWIDTH 720 0
DWIDTH 16 0
BBX 16 17 0 0
BITMAP
0C10
0C30
07F0
0080
0000
6183
3186
398C
1998
0DB0
07B0
07F0
0D98
199C
318C
7186
E183
ENDCHAR
STARTCHAR 04C3
ENCODING 1219
SWIDTH 675 0
DWIDTH 15 0
BBX 12 22 2 -6
BITMAP
C060
C0C0
C180
C300
C600
CE00
DC00
D800
FF80
C1E0
C060
C030
C030
C030
C030
C030
0030
0030
0060
10E0
1FC0
0600
ENDCHAR
STARTCHAR 04C4
ENCODING 1220
SWIDTH 540 0
DWIDTH 12 0
BBX 10 17 2 -5
BITMAP
C180
C300
C600
CC00
D800
FC00
FF00
C380
C180
C0C0
C0C0
C0C0
00C0
0180
0180
2380
3F00
ENDCHAR
STARTCHAR 04C5
ENCODING 1221
SWIDTH 675 0
DWIDTH 15 0
BBX 16 20 0 -4
BITMAP
07FC
07FC
040C
0C0C
0C0C
0C0C
0C0C
0C0C
0C0C
0C0C
180C
180C
180C
180C
B00F
F00E
0006
0006
0006
000C
ENDCHAR
STARTCHAR 04C6
ENCODING 1222
SWIDTH 585 0
DWIDTH 13 0
BBX 13 16 0 -4
BITMAP
0FE0
0FE0
0860
1860
1860
1860
1860
1860
1060
3060
7078
E078
0010
0030
0030
0030
ENDCHAR
STARTCHAR 04C7
ENCODING 1223
SWIDTH 720 0
DWIDTH 16 0
BBX 12 22 2 -6
BITMAP
C030
C030
C030
C030
C030
C030
C030
FFF0
FFF0
C030
C030
C030
C030
C030
C030
C030
0030
0030
0070
10E0
1FC0
0600
ENDCHAR
STARTCHAR 04C8
ENCODING 1224
SWIDTH 585 0
DWIDTH 13 0
BBX 10 17 2 -5
BITMAP
C0C0
C0C0
C0C0
C0C0
C0C0
FFC0
FFC0
C0C0
C0C0
C0C0
C0C0
C0C0
00C0
00C0
00C0
1180
1F80
ENDCHAR
STARTCHAR 04C9
ENCODING 1225
SWIDTH 720 0
DWIDTH 16 0
BBX 14 20 2 -4
BITMAP
C030
C030
C030
C030
C030
C030
C030
FFF0
FFF0
C030
C030
C030
C030
C030
C03C
C03C
000C
000C
0018
0018
ENDCHAR
STARTCHAR 04CA
ENCODING 1226
SWIDTH 630 0
DWIDTH 14 0
BBX 12 16 2 -4
BITMAP
C0C0
C0C0
C0C0
C0C0
C0C0
FFC0
FFC0
C0C0
C0C0
C0C0
C0F0
C0F0
0030
0030
0060
0060
ENDCHAR
STARTCHAR 04CB
ENCODING 1227
SWIDTH 675 0
DWIDTH 15 0
BBX 11 20 2 -4
BITMAP
C060
C060
C060
C060
C060
C060
C060
C060
E1E0
7FE0
0060
0060
0060
0060
00E0
00E0
0080
0080
0080
0080
ENDCHAR
STARTCHAR 04CC
ENCODING 1228
SWIDTH 585 0
DWIDTH 13 0
BBX 10 16 2 -4
BITMAP
C0C0
C0C0
C0C0
C0C0
C0C0
C1C0
FFC0
7CC0
00C0
00C0
03C0
03C0
0300
0300
0300
0300
ENDCHAR
STARTCHAR 04CD
ENCODING 1229
SWIDTH 900 0
DWIDTH 20 0
BBX 18 20 2 -4
BITMAP
E00700
F00700
F00F00
F00F00
D81B00
D81B00
CC1300
CC3300
CC3300
C66300
C66300
C66300
C3C300
C3C300
C183C0
C183C0
0000C0
000180
000180
000180
ENDCHAR
STARTCHAR 04CE
ENCODING 1230
SWIDTH 720 0
DWIDTH 16 0
BBX 15 16 2 -4
BITMAP
E038
E038
E078
F078
F0D8
D8D8
D898
C998
CD18
CF18
C71E
C61C
0004
000C
000C
0018
ENDCHAR
STARTCHAR 04CF
ENCODING 1231
SWIDTH 315 0
DWIDTH 7 0
BBX 6 16 1 0
BITMAP
FC
78
30
30
30
30
30
30
30
30
30
30
30
30
70
FC
ENDCHAR
STARTCHAR 04D0
ENCODING 1232
SWIDTH 630 0
DWIDTH 14 0
BBX 14 21 0 0
BITMAP
1860
1860
0FC0
0300
0000
0300
0380
0780
0780
0CC0
0CC0
0C40
1860
1860
1FF0
3FF0
3030
6018
6018
600C
C00C
ENDCHAR
STARTCHAR 04D1
ENCODING 1233
SWIDTH 540 0
DWIDTH 12 0
BBX 10 17 1 0
BITMAP
6080
6180
3F80
0400
0000
3F00
3B80
01C0
00C0
00C0
3FC0
70C0
C0C0
C0C0
C1C0
E7C0
7EC0
ENDCHAR
STARTCHAR 04D2
ENCODING 1234
SWIDTH 630 0
DWIDTH 14 0
BBX 14 20 0 0
BITMAP
0CC0
0CC0
0000
0000
0300
0380
0780
0780
0CC0
0CC0
0C40
1860
1860
1FF0
3FF0
3030
6018
6018
600C
C00C
ENDCHAR
STARTCHAR 04D3
ENCODING 1235
SWIDTH 540 0
DWIDTH 12 0
BBX 10 16 1 0
BITMAP
3300
3300
0000
0000
3F00
3B80
01C0
00C0
00C0
3FC0
70C0
C0C0
C0C0
C1C0
E7C0
7EC0
ENDCHAR
STARTCHAR 04D4
ENCODING 1236
SWIDTH 855 0
DWIDTH 19 0
BBX 18 16 0 0
BITMAP
01FFC0
01FFC0
033000
033000
063000
063000
0E3000
0C3FC0
0C3FC0
1FF000
1FF000
303000
303000
603000
603FC0
C03FC0
ENDCHAR
STARTCHAR 04D5
ENCODING 1237
SWIDTH 855 0
DWIDTH 19 0
BBX 17 12 1 0
BITMAP
3F3E00
77F700
01C380
01C180
01C180
3FFF80
718000
C1C000
C1C000
C1C000
E77380
7E3F00
ENDCHAR
STARTCHAR 04D6
ENCODING 1238
SWIDTH 540 0
DWIDTH 12 0
BBX 9 21 2 0
BITMAP
6180
6180
7F00
0C00
0000
FF80
FF80
C000
C000
C000
C000
C000
FF80
FF80
C000
C000
C000
C000
C000
FF80
FF80
ENDCHAR
STARTCHAR 04D7
ENCODING 1239
SWIDTH 540 0
DWIDTH 12 0
BBX 10 17 1 0
BITMAP
6080
2180
3F80
0400
0000
1F00
3B80
60C0
60C0
C0C0
FFC0
C000
C000
6000
6000
39C0
1FC0
ENDCHAR
STARTCHAR 04D8
ENCODING 1240
SWIDTH 720 0
DWIDTH 16 0
BBX 14 16 1 0
BITMAP
3FC0
7FE0
0030
0018
0018
000C
000C
FFFC
FFFC
C00C
E00C
601C
6018
7038
3FF0
0FC0
ENDCHAR
STARTCHAR 04D9
ENCODING 1241
SWIDTH 540 0
DWIDTH 12 0
BBX 10 12 1 0
BITMAP
7E00
7F80
01C0
00C0
00C0
00C0
FFC0
C0C0
C0C0
61C0
7380
3F00
ENDCHAR
STARTCHAR 04DA
ENCODING 1242
SWIDTH 720 0
DWIDTH 16 0
BBX 14 20 1 0
BITMAP
0CC0
0CC0
0000
0000
3FC0
7FE0
0030
0018
0018
000C
000C
FFFC
FFFC
C00C
E00C
601C
6018
7038
3FF0
0FC0
ENDCHAR
STARTCHAR 04DB
ENCODING 1243
SWIDTH 540 0
DWIDTH 12 0
BBX 10 16 1 0
BITMAP
3300
3300
0000
0000
7E00
7F80
01C0
00C0
00C0
00C0
FFC0
C0C0
C0C0
61C0
7380
3F00
ENDCHAR
STARTCHAR 04DC
ENCODING 1244
SWIDTH 810 0
DWIDTH 18 0
BBX 19 20 0 0
BITMAP
031800
031000
000000
000000
6040C0
7041C0
304180
184300
0C4600
064C00
065C00
035800
03F800
064C00
0E4E00
0C4600
184300
304180
6041C0
E040E0
ENDCHAR
STARTCHAR 04DD
ENCODING 1245
SWIDTH 720 0
DWIDTH 16 0
BBX 16 16 0 0
BITMAP
0660
0660
0000
0000
6183
3186
398C
1998
0DB0
07B0
07F0
0D98
199C
318C
7186
E183
ENDCHAR
STARTCHAR 04DE
ENCODING 1246
SWIDTH 585 0
DWIDTH 13 0
BBX 11 20 1 0
BITMAP
3300
3100
0000
0000
3F00
FFC0
40C0
00E0
00C0
00C0
0180
3E00
3F80
00C0
0060
0060
0060
00C0
E3C0
FF00
ENDCHAR
STARTCHAR 04DF
ENCODING 1247
SWIDTH 450 0
DWIDTH 10 0
BBX 9 16 1 0
BITMAP
6600
6600
0000
0000
FE00
FF00
0300
0100
0300
3E00
3F00
0180
0180
0180
C700
FE00
ENDCHAR
STARTCHAR 04E0
ENCODING 1248
SWIDTH 540 0
DWIDTH 12 0
BBX 11 16 1 0
BITMAP
FFC0
FFC0
0180
0300
0600
0C00
1800
3F00
3FC0
00C0
0060
0060
0060
00C0
E3C0
FF00
ENDCHAR
STARTCHAR 04E1
ENCODING 1249
SWIDTH 495 0
DWIDTH 11 0
BBX 10 17 0 -5
BITMAP
7FC0
7FC0
0180
0300
0600
0C00
1800
1E00
0F80
01C0
00C0
00C0
00C0
00C0
00C0
C380
FF00
ENDCHAR
STARTCHAR 04E2
ENCODING 1250
SWIDTH 765 0
DWIDTH 17 0
BBX 13 19 2 0
BITMAP
1FC0
1FC0
0000
C038
C038
C078
C0F8
C0D8
C198
C398
C318
C618
CE18
CC18
D818
F818
F018
E018
E018
ENDCHAR
STARTCHAR 04E3
ENCODING 1251
SWIDTH 630 0
DWIDTH 14 0
BBX 10 15 2 0
BITMAP
3F80
3F80
0000
C0C0
C1C0
C340
C340
C640
C440
CC40
D840
D840
F040
E040
E040
ENDCHAR
STARTCHAR 04E4
ENCODING 1252
SWIDTH 765 0
DWIDTH 17 0
BBX 13 20 2 0
BITMAP
0CC0
0CC0
0000
0000
C038
C038
C078
C0F8
C0D8
C198
C398
C318
C618
CE18
CC18
D818
F818
F018
E018
E018
ENDCHAR
STARTCHAR 04E5
ENCODING 1253
SWIDTH 630 0
DWIDTH 14 0
BBX 10 16 2 0
BITMAP
3300
3100
0000
0000
C0C0
C1C0
C340
C340
C640
C440
CC40
D840
D840
F040
E040
E040
ENDCHAR
STARTCHAR 04E6
ENCODING 1254
SWIDTH 765 0
DWIDTH 17 0
BBX 15 20 1 0
BITMAP
0660
0660
0000
0000
0FE0
1FF8
3818
700C
600C
6006
E006
C006
C006
E006
6006
600C
700C
301C
1FF8
0FE0
ENDCHAR
STARTCHAR 04E7
ENCODING 1255
SWIDTH 585 0
DWIDTH 13 0
BBX 11 16 1 0
BITMAP
1980
1980
0000
0000
1F00
3FC0
60C0
6060
C060
C060
C060
C060
6060
60E0
39C0
1F80
ENDCHAR
STARTCHAR 04E8
ENCODING 1256
SWIDTH 765 0
DWIDTH 17 0
BBX 15 16 1 0
BITMAP
0FE0
1FF8
3818
700C
600C
6006
E006
FFFE
FFFE
E006
6006
600C
700C
301C
1FF8
0FE0
ENDCHAR
STARTCHAR 04E9
ENCODING 1257
SWIDTH 585 0
DWIDTH 13 0
BBX 11 12 1 0
BITMAP
1F00
3FC0
60C0
6060
C060
FFE0
FFE0
C060
6060
60E0
39C0
1F80
ENDCHAR
STARTCHAR 04EA
ENCODING 1258
SWIDTH 765 0
DWIDTH 17 0
BBX 15 20 1 0
BITMAP
0460
0660
0000
0000
0FE0
1FF8
3818
700C
600C
6006
E006
FFFE
FFFE
E006
6006
600C
700C
301C
1FF8
0FE0
ENDCHAR
STARTCHAR 04EB
ENCODING 1259
SWIDTH 585 0
DWIDTH 13 0
BBX 11 16 1 0
BITMAP
1980
1980
0000
0000
1F00
3FC0
60C0
6060
C060
FFE0
FFE0
C060
6060
60E0
39C0
1F80
ENDCHAR
STARTCHAR 04EC
ENCODING 1260
SWIDTH 630 0
DWIDTH 14 0
BBX 12 20 1 0
BITMAP
6600
6600
0000
0000
7F00
FF80
81C0
00E0
0060
0060
0030
3FF0
3FF0
0030
0060
0060
00E0
01C0
FF80
FF00
ENDCHAR
STARTCHAR 04ED
ENCODING 1261
SWIDTH 450 0
DWIDTH 10 0
BBX 9 16 1 0
BITMAP
6600
4600
0000
0000
FC00
FE00
0300
0300
0180
7F80
7F80
0180
0300
0300
CE00
FC00
ENDCHAR
STARTCHAR 04EE
ENCODING 1262
SWIDTH 585 0
DWIDTH 13 0
BBX 14 19 0 0
BITMAP
0FE0
0FE0
0000
E00C
6018
7018
3030
1830
1860
0C60
0C60
06C0
06C0
0380
0380
0300
0700
7E00
7C00
ENDCHAR
STARTCHAR 04EF
ENCODING 1263
SWIDTH 495 0
DWIDTH 11 0
BBX 11 20 0 -5
BITMAP
3F80
3F80
0000
C060
6060
60C0
60C0
30C0
3180
1980
1980
1B00
0F00
0E00
0600
0600
0C00
0C00
1800
F000
ENDCHAR
STARTCHAR 04F0
ENCODING 1264
SWIDTH 585 0
DWIDTH 13 0
BBX 14 20 0 0
BITMAP
0CC0
0CC0
0000
0000
E00C
6018
7018
3030
1830
1860
0C60
0C60
06C0
06C0
0380
0380
0300
0700
7E00
7C00
ENDCHAR
STARTCHAR 04F1
ENCODING 1265
SWIDTH 495 0
DWIDTH 11 0
BBX 11 21 0 -5
BITMAP
1980
1180
0000
0000
C060
6060
60C0
60C0
30C0
3180
1980
1980
1B00
0F00
0E00
0600
0600
0C00
0C00
1800
F000
ENDCHAR
STARTCHAR 04F2
ENCODING 1266
SWIDTH 585 0
DWIDTH 13 0
BBX 14 21 0 0
BITMAP
0330
0330
0660
0CC0
0000
E00C
6018
7018
3030
1830
1860
0C60
0C60
06C0
06C0
0380
0380
0300
0700
7E00
7C00
ENDCHAR
STARTCHAR 04F3
ENCODING 1267
SWIDTH 495 0
DWIDTH 11 0
BBX 11 22 0 -5
BITMAP
06E0
0CC0
1980
1100
0000
C060
6060
60C0
60C0
30C0
3180
1980
1980
1B00
0F00
0E00
0600
0600
0C00
0C00
1800
F000
ENDCHAR
STARTCHAR 04F4
ENCODING 1268
SWIDTH 675 0
DWIDTH 15 0
BBX 11 20 2 0
BITMAP
3180
3100
0000
0000
C060
C060
C060
C060
C060
C060
C060
C060
E1E0
7FE0
0060
0060
0060
0060
0060
0060
ENDCHAR
STARTCHAR 04F5
ENCODING 1269
SWIDTH 585 0
DWIDTH 13 0
BBX 10 16 2 0
BITMAP
3300
2300
0000
0000
C0C0
C0C0
C0C0
C0C0
C0C0
C1C0
FFC0
7CC0
00C0
00C0
00C0
00C0
ENDCHAR
STARTCHAR 04F6
ENCODING 1270
SWIDTH 495 0
DWIDTH 11 0
BBX 9 20 2 -4
BITMAP
FF80
FF80
C000
C000
C000
C000
C000
C000
C000
C000
C000
C000
C000
C000
F000
F000
3000
3000
3000
3000
ENDCHAR
STARTCHAR 04F7
ENCODING 1271
SWIDTH 405 0
DWIDTH 9 0
BBX 7 16 2 -4
BITMAP
FE
FE
C0
C0
C0
C0
C0
C0
C0
C0
F0
F0
30
30
30
30
ENDCHAR
STARTCHAR 04F8
ENCODING 1272
SWIDTH 855 0
DWIDTH 19 0
BBX 15 20 2 0
BITMAP
0660
0460
0000
0000
C006
C006
C006
C006
C006
C006
C006
FF06
FFC6
C0C6
C0C6
C0C6
C0C6
C0C6
FF86
FF06
ENDCHAR
STARTCHAR 04F9
ENCODING 1273
SWIDTH 765 0
DWIDTH 17 0
BBX 13 16 2 0
BITMAP
18C0
08C0
0000
0000
C018
C018
C018
C018
C018
FF18
FF98
C198
C098
C198
FF98
FF18
ENDCHAR
STARTCHAR 04FA
ENCODING 1274
SWIDTH 495 0
DWIDTH 11 0
BBX 10 20 1 -4
BITMAP
7FC0
7FC0
6000
6000
6000
6000
6000
FF00
FF00
6000
6000
6000
6000
6000
7800
7800
1800
1800
1800
7000
ENDCHAR
STARTCHAR 04FB
ENCODING 1275
SWIDTH 405 0
DWIDTH 9 0
BBX 9 16 0 -4
BITMAP
3F80
3F80
3000
3000
3000
FF00
FF00
3000
3000
3000
3C00
3C00
0C00
0C00
1800
3800
ENDCHAR
STARTCHAR 04FC
ENCODING 1276
SWIDTH 630 0
DWIDTH 14 0
BBX 14 20 0 -4
BITMAP
6030
6030
3060
18C0
18C0
0D80
0700
0700
0700
0D80
0D80
18C0
3060
3060
603C
E03C
000C
000C
0018
0038
ENDCHAR
STARTCHAR 04FD
ENCODING 1277
SWIDTH 540 0
DWIDTH 12 0
BBX 11 16 1 -4
BITMAP
C0C0
6180
6300
3300
1E00
1C00
1C00
1E00
3300
6380
E1E0
C0E0
0060
0060
0060
01C0
ENDCHAR
STARTCHAR 04FE
ENCODING 1278
SWIDTH 585 0
DWIDTH 13 0
BBX 13 16 0 0
BITMAP
6030
6030
3060
18C0
18C0
0D80
0700
7FF0
0700
0D80
0D80
18C0
3060
3060
6030
E038
ENDCHAR
STARTCHAR 04FF
ENCODING 1279
SWIDTH 495 0
DWIDTH 11 0
BBX 10 12 1 0
BITMAP
C0C0
6180
6300
3300
1E00
FFC0
FFC0
1E00
3300
6380
E180
C0C0
ENDCHAR
STARTCHAR 0500
ENCODING 1280
SWIDTH 585 0
DWIDTH 13 0
BBX 11 16 1 0
BITMAP
0060
0060
0060
0060
0060
0060
0060
1FE0
7FE0
6060
E060
C060
E060
6060
7FE0
1FE0
ENDCHAR
STARTCHAR 0501
ENCODING 1281
SWIDTH 585 0
DWIDTH 13 0
BBX 11 17 1 0
BITMAP
0060
0060
0060
0060
0060
1F60
3BE0
60E0
60E0
C060
C060
C060
C060
E060
60E0
7BE0
3F60
ENDCHAR
STARTCHAR 0502
ENCODING 1282
SWIDTH 900 0
DWIDTH 20 0
BBX 17 16 1 0
BITMAP
00C000
00C000
00C000
00C000
00C000
00C000
00C000
1FC180
7FC180
60C180
E0C180
C0C180
E0C180
60E180
7FFF00
3F3E00
ENDCHAR
STARTCHAR 0503
ENCODING 1283
SWIDTH 855 0
DWIDTH 19 0
BBX 17 17 1 0
BITMAP
00C000
00C000
00C000
00C000
00C000
1E4000
7F4000
60C000
60C000
C0C180
C04180
C04180
C0C180
E0C180
60E180
73F380
3F3F00
ENDCHAR
STARTCHAR 0504
ENCODING 1284
SWIDTH 900 0
DWIDTH 20 0
BBX 17 16 1 0
BITMAP
3F0000
FF8000
81C000
00C000
00C000
01C000
038000
7E0180
7F8180
01C180
00C180
00C180
00C180
00E180
007F00
003E00
ENDCHAR
STARTCHAR 0505
ENCODING 1285
SWIDTH 765 0
DWIDTH 17 0
BBX 15 12 1 0
BITMAP
FE00
EF00
0300
0300
0306
3C06
3F06
0306
0186
0186
01CE
00FC
ENDCHAR
STARTCHAR 0506
ENCODING 1286
SWIDTH 630 0
DWIDTH 14 0
BBX 13 20 1 -4
BITMAP
3F00
FF80
80C0
00C0
00C0
00C0
0180
7E00
7F80
00C0
00C0
0060
0060
0060
0078
0078
0018
0018
0018
0018
ENDCHAR
STARTCHAR 0507
ENCODING 1287
SWIDTH 495 0
DWIDTH 11 0
BBX 11 16 1 -4
BITMAP
FE00
FF00
0300
0100
0300
3E00
3F00
0380
0180
0180
01E0
01E0
0060
0060
0060
0060
ENDCHAR
STARTCHAR 0508
ENCODING 1288
SWIDTH 945 0
DWIDTH 21 0
BBX 20 16 0 0
BITMAP
07F800
07F800
041800
0C1800
0C1800
0C1800
0C1800
0C1830
0C1830
0C1830
181830
181830
181830
181C30
B00FE0
F007C0
ENDCHAR
STARTCHAR 0509
ENCODING 1289
SWIDTH 855 0
DWIDTH 19 0
BBX 17 12 0 0
BITMAP
0FE000
0FE000
086000
186000
186180
186180
186180
186180
106180
306180
707380
E03F00
ENDCHAR
STARTCHAR 050A
ENCODING 1290
SWIDTH 990 0
DWIDTH 22 0
BBX 19 16 2 0
BITMAP
C03000
C03000
C03000
C03000
C03000
C03000
C03000
FFF060
FFF060
C03060
C03060
C03060
C03060
C030C0
C03FC0
C01F80
ENDCHAR
STARTCHAR 050B
ENCODING 1291
SWIDTH 900 0
DWIDTH 20 0
BBX 17 12 2 0
BITMAP
C0C000
C0C000
C0C000
C0C000
C0C180
FFC180
FFC180
C0C180
C0C180
C0C300
C07700
C03E00
ENDCHAR
STARTCHAR 050C
ENCODING 1292
SWIDTH 720 0
DWIDTH 16 0
BBX 15 16 1 0
BITMAP
07F0
1FF8
3808
7000
6000
6000
E000
C000
C0FE
E0FE
600E
600C
700C
381C
1FF8
0FF0
ENDCHAR
STARTCHAR 050D
ENCODING 1293
SWIDTH 630 0
DWIDTH 14 0
BBX 12 12 1 0
BITMAP
1FE0
3DE0
7000
6000
C000
C000
C3F0
C030
6030
6070
38E0
1FC0
ENDCHAR
STARTCHAR 050E
ENCODING 1294
SWIDTH 675 0
DWIDTH 15 0
BBX 14 16 0 0
BITMAP
FFF0
FFF0
0600
0600
0600
0600
0600
060C
060C
060C
060C
060C
060C
060C
03F8
01F0
ENDCHAR
STARTCHAR 050F
ENCODING 1295
SWIDTH 630 0
DWIDTH 14 0
BBX 13 12 0 0
BITMAP
FFC0
FFC0
0C00
0C00
0C18
0C18
0C18
0C18
0C18
0C18
0770
03E0
ENDCHAR
STARTCHAR 0510
ENCODING 1296
SWIDTH 585 0
DWIDTH 13 0
BBX 11 16 1 0
BITMAP
1F80
3FE0
6040
6000
6000
6000
3000
0F80
3F80
6000
C000
C000
C000
6000
7DE0
1FE0
ENDCHAR
STARTCHAR 0511
ENCODING 1297
SWIDTH 450 0
DWIDTH 10 0
BBX 9 12 1 0
BITMAP
3F00
7F80
C000
C000
6000
3E00
7E00
C000
C000
C000
F180
3F80
ENDCHAR
STARTCHAR 0512
ENCODING 1298
SWIDTH 675 0
DWIDTH 15 0
BBX 15 20 0 -4
BITMAP
07FC
07FC
040C
0C0C
0C0C
0C0C
0C0C
0C0C
0C0C
0C0C
180C
180C
180C
180C
B00E
F00E
0002
0002
0006
001E
ENDCHAR
STARTCHAR 0513
ENCODING 1299
SWIDTH 585 0
DWIDTH 13 0
BBX 13 16 0 -4
BITMAP
0FE0
0FE0
0860
1860
1860
1860
1860
1860
1060
3060
7078
E078
0018
0018
0018
0070
ENDCHAR
STARTCHAR 0514
ENCODING 1300
SWIDTH 945 0
DWIDTH 21 0
BBX 21 16 0 0
BITMAP
07E030
07E030
043060
0C18C0
0C18C0
0C0D80
0C0700
0C0700
0C0700
0C0D80
180D80
1818C0
183060
183060
B06030
F0E038
ENDCHAR
STARTCHAR 0515
ENCODING 1301
SWIDTH 765 0
DWIDTH 17 0
BBX 17 12 0 0
BITMAP
0F8180
0FC300
086300
186600
183C00
181C00
181C00
183C00
106600
30E300
70C380
E18180
ENDCHAR
STARTCHAR 0516
ENCODING 1302
SWIDTH 765 0
DWIDTH 17 0
BBX 15 16 2 0
BITMAP
FE06
FF86
C1CC
C0D8
C0D8
C0F0
C0E0
C1E0
FFE0
FE30
C030
C018
C01C
C00C
C006
C006
ENDCHAR
STARTCHAR 0517
ENCODING 1303
SWIDTH 810 0
DWIDTH 18 0
BBX 15 17 2 -5
BITMAP
DF06
FF8E
E1CC
C0D8
C0F0
C0F0
C0F0
C0F8
C0D8
E0CC
F386
DF06
C000
C000
C000
C000
C000
ENDCHAR
STARTCHAR 0518
ENCODING 1304
SWIDTH 900 0
DWIDTH 20 0
BBX 18 16 1 0
BITMAP
0FFFC0
3FFFC0
706000
606000
606000
606000
606000
387F80
1FFF80
0C6000
186000
386000
306000
606000
E07FC0
C07FC0
ENDCHAR
STARTCHAR 0519
ENCODING 1305
SWIDTH 855 0
DWIDTH 19 0
BBX 17 12 1 0
BITMAP
3FBE00
7FF700
C1C180
C1C180
C18180
E1FF80
3F8000
398000
30C000
60C000
E07380
C03F80
ENDCHAR
STARTCHAR 051A
ENCODING 1306
SWIDTH 765 0
DWIDTH 17 0
BBX 15 20 1 -4
BITMAP
0FE0
1FF8
3818
700C
600C
6006
E006
C006
C006
E006
6006
600C
700C
301C
1FF8
0FE0
0060
0070
0038
001C
ENDCHAR
STARTCHAR 051B
ENCODING 1307
SWIDTH 585 0
DWIDTH 13 0
BBX 11 17 1 -5
BITMAP
1F60
3BE0
60E0
60E0
C060
C060
C060
C060
E060
60E0
7BE0
3F60
0060
0060
0060
0060
0060
ENDCHAR
STARTCHAR 051C
ENCODING 1308
SWIDTH 900 0
DWIDTH 20 0
BBX 20 16 0 0
BITMAP
C06030
607030
607030
60F060
60D860
30D860
319860
318CC0
318CC0
1B0CC0
1B0CC0
1B0780
0B0780
0E0780
0E0380
0E0300
ENDCHAR
STARTCHAR 051D
ENCODING 1309
SWIDTH 765 0
DWIDTH 17 0
BBX 17 12 0 0
BITMAP
C0C180
61C180
61E180
616300
636300
332300
323200
363600
161600
1E1E00
1C1C00
1C1C00
ENDCHAR
STARTCHAR 051E
ENCODING 1310
SWIDTH 585 0
DWIDTH 13 0
BBX 11 16 2 0
BITMAP
C060
CCC0
C780
C300
C780
CEC0
DC00
F800
D800
CC00
CE00
C700
C380
C1C0
C0C0
C060
ENDCHAR
STARTCHAR 051F
ENCODING 1311
SWIDTH 495 0
DWIDTH 11 0
BBX 9 12 2 0
BITMAP
C180
CB00
C600
CE00
D900
F000
F800
D800
CC00
C600
C300
C180
ENDCHAR
STARTCHAR 0520
ENCODING 1312
SWIDTH 990 0
DWIDTH 22 0
BBX 22 22 0 -6
BITMAP
07F000
07F000
063000
0C3000
0C3000
0C3000
0C3000
0C3F80
0C3FE0
0C3070
183038
183018
183018
18301C
B0300C
F0301C
000018
000018
000038
000070
0007E0
000180
ENDCHAR
STARTCHAR 0521
ENCODING 1313
SWIDTH 810 0
DWIDTH 18 0
BBX 18 17 0 -5
BITMAP
0FC000
0FC000
08C000
18C000
18C000
18FC00
18FF00
18C380
10C180
30C180
70C1C0
E0C0C0
000180
000180
000180
002380
003F00
ENDCHAR
STARTCHAR 0522
ENCODING 1314
SWIDTH 1080 0
DWIDTH 24 0
BBX 21 22 2 -6
BITMAP
C03000
C03000
C03000
C03000
C03000
C03000
C03000
FFFF80
FFFFE0
C03070
C03038
C03018
C03018
C03018
C03018
C03018
000018
000018
000038
000870
000FE0
000100
ENDCHAR
STARTCHAR 0523
ENCODING 1315
SWIDTH 855 0
DWIDTH 19 0
BBX 17 17 2 -5
BITMAP
C18000
C18000
C18000
C18000
C18000
FFF800
FFFE00
C18700
C18300
C18180
C18180
C18180
000180
000380
000300
004700
007E00
ENDCHAR
STARTCHAR 0524
ENCODING 1316
SWIDTH 720 0
DWIDTH 16 0
BBX 14 20 2 -4
BITMAP
FFF0
FFF0
C030
C030
C030
C030
C030
C030
C030
C030
C030
C030
C030
C030
C03C
C03C
000C
000C
000C
000C
ENDCHAR
STARTCHAR 0525
ENCODING 1317
SWIDTH 630 0
DWIDTH 14 0
BBX 12 16 2 -4
BITMAP
FFC0
FFC0
C0C0
C0C0
C0C0
C0C0
C0C0
C0C0
C0C0
C0C0
C0F0
C0F0
0030
0030
0030
0030
ENDCHAR
STARTCHAR 0526
ENCODING 1318
SWIDTH 720 0
DWIDTH 16 0
BBX 14 20 2 -4
BITMAP
C000
C000
C000
C000
C000
C000
DFC0
F8E0
C070
C030
C030
C030
C030
C030
C03C
C03C
000C
000C
000C
000C
ENDCHAR
STARTCHAR 0527
ENCODING 1319
SWIDTH 630 0
DWIDTH 14 0
BBX 12 21 2 -4
BITMAP
C000
C000
C000
C000
C000
DF00
FF80
E0C0
C0C0
C0C0
C0C0
C0C0
C0C0
C0C0
C0C0
C0F0
C0F0
0030
0030
0030
0030
ENDCHAR
STARTCHAR 0528
ENCODING 1320
SWIDTH 720 0
DWIDTH 16 0
BBX 14 21 0 -5
BITMAP
300C
300C
300C
300C
300C
300C
300C
3FFC
3FFC
300C
300C
300C
300C
300C
300C
300C
3000
3000
3000
E000
8000
ENDCHAR
STARTCHAR 0529
ENCODING 1321
SWIDTH 585 0
DWIDTH 13 0
BBX 13 17 -1 -5
BITMAP
1818
1818
1818
1818
1818
1FF8
1FF8
1818
1818
1818
1818
1818
1800
1800
1800
3000
F000
ENDCHAR
STARTCHAR 052A
ENCODING 1322
SWIDTH 1395 0
DWIDTH 31 0
BBX 31 20 0 -4
BITMAP
07F80C0E
07F80C1C
06180C38
06180C30
06180C60
06180CC0
0C180D80
0C1FFF00
0C1FFF80
0C180D80
18180CC0
18180C60
30180C30
30180C18
FFFE0C1C
FFFE0C0E
C0060000
C0060000
C0060000
C0060000
ENDCHAR
STARTCHAR 052B
ENCODING 1323
SWIDTH 1125 0
DWIDTH 25 0
BBX 25 16 0 -4
BITMAP
0FE0C180
0FE0C300
0C60C600
0C60CC00
0C60D800
0C7FF000
1860F800
1860DC00
1060CC00
3060C600
FFF0C300
FFF0C180
C0100000
C0100000
C0100000
C0100000
ENDCHAR
STARTCHAR 052C
ENCODING 1324
SWIDTH 675 0
DWIDTH 15 0
BBX 15 20 0 -4
BITMAP
61F8
63F8
6318
6318
6318
6318
6218
6618
3E78
3FF8
0C18
0C18
1818
1818
FFFE
FFFE
C006
C006
C006
C006
ENDCHAR
STARTCHAR 052D
ENCODING 1325
SWIDTH 585 0
DWIDTH 13 0
BBX 13 16 0 -4
BITMAP
47E0
47E0
4460
4460
4460
6C60
7FE0
3F60
1860
1860
FFF8
FFF8
C018
C018
C018
C018
ENDCHAR
STARTCHAR 052E
ENCODING 1326
SWIDTH 675 0
DWIDTH 15 0
BBX 15 20 0 -4
BITMAP
07FC
07FC
040C
0C0C
0C0C
0C0C
0C0C
0C0C
0C0C
0C0C
180C
180C
180C
180C
B00E
F00E
0006
0006
0006
0006
ENDCHAR
STARTCHAR 052F
ENCODING 1327
SWIDTH 585 0
DWIDTH 13 0
BBX 13 16 0 -4
BITMAP
0FE0
0FE0
0860
1860
1860
1860
1860
1860
1060
3060
7078
E078
0018
0018
0018
0018
ENDCHAR
STARTCHAR 0900
ENCODING 2304
SWIDTH 0 0
DWIDTH 0 0
BBX 9 5 -8 15
BITMAP
1E00
7F00
6180
CD80
4C80
ENDCHAR
STARTCHAR 0901
ENCODING 2305
SWIDTH 0 0
DWIDTH 0 0
BBX 9 5 -8 15
BITMAP
4C80
CD80
6180
3F00
1E00
ENDCHAR
STARTCHAR 0902
ENCODING 2306
SWIDTH 0 0
DWIDTH 0 0
BBX 2 2 -4 16
BITMAP
C0
C0
ENDCHAR
STARTCHAR 0903
ENCODING 2307
SWIDTH 270 0
DWIDTH 6 0
BBX 2 10 2 1
BITMAP
C0
C0
C0
00
00
00
00
C0
C0
C0
ENDCHAR
STARTCHAR 0904
ENCODING 2308
SWIDTH 720 0
DWIDTH 16 0
BBX 16 20 1 0
BITMAP
0200
0300
03F0
00F8
0008
000C
1F1F
1F9F
018C
018C
018C
070C
C3FC
C1FC
608C
708C
398C
1F0C
000C
000C
ENDCHAR
STARTCHAR 0905
ENCODING 2309
SWIDTH 720 0
DWIDTH 16 0
BBX 16 14 1 0
BITMAP
1F1F
1F9F
018C
018C
018C
070C
C3FC
C1FC
608C
708C
398C
1F0C
000C
000C
ENDCHAR
STARTCHAR 0906
ENCODING 2310
SWIDTH 990 0
DWIDTH 22 0
BBX 22 14 1 0
BITMAP
1F1FFC
1F9FFC
018C30
018C30
018C30
070C30
C3FC30
C1FC30
608C30
708C30
398C30
1F0C30
000C30
000C30
ENDCHAR
STARTCHAR 0907
ENCODING 2311
SWIDTH 450 0
DWIDTH 10 0
BBX 11 16 0 -2
BITMAP
FFE0
FFE0
0180
0180
3F80
6000
6000
6600
3F80
10C0
00C0
20C0
7F80
3F00
0700
0180
ENDCHAR
STARTCHAR 0908
ENCODING 2312
SWIDTH 450 0
DWIDTH 10 0
BBX 11 22 0 -2
BITMAP
01E0
03E0
0600
0600
0200
0300
FFE0
FFE0
0180
0180
3F80
6000
6000
6600
3F80
10C0
00C0
20C0
7F80
3F00
0700
0180
ENDCHAR
STARTCHAR 0909
ENCODING 2313
SWIDTH 540 0
DWIDTH 12 0
BBX 13 14 0 0
BITMAP
FFF8
FFF8
0060
0060
0060
00C0
0380
60C0
6060
3060
3060
1860
0FE0
0780
ENDCHAR
STARTCHAR 090A
ENCODING 2314
SWIDTH 765 0
DWIDTH 17 0
BBX 17 14 0 0
BITMAP
FFFF80
FFFF80
006000
006000
006000
00C000
038000
60FE00
606300
306300
306300
186300
0FE600
078200
ENDCHAR
STARTCHAR 090B
ENCODING 2315
SWIDTH 810 0
DWIDTH 18 0
BBX 19 15 0 -1
BITMAP
FFFFE0
FFFFE0
00C000
00C000
7CC700
7EC700
03CF00
01FE00
03C300
0EC700
1CCC00
30CC00
00CC00
00C7C0
000380
ENDCHAR
STARTCHAR 090C
ENCODING 2316
SWIDTH 675 0
DWIDTH 15 0
BBX 16 16 0 -2
BITMAP
FFFF
FFFF
0030
0030
0030
3EFC
63CC
6186
6306
6004
301C
1838
0C60
0460
0020
003F
ENDCHAR
STARTCHAR 090D
ENCODING 2317
SWIDTH 540 0
DWIDTH 12 0
BBX 13 24 0 -4
BITMAP
1020
1830
1860
0FE0
0780
0000
FFF8
FFF8
3060
3060
3060
3060
3040
30C0
31C0
3100
1C00
0F00
0380
00C0
0060
0060
0060
0040
ENDCHAR
STARTCHAR 090E
ENCODING 2318
SWIDTH 540 0
DWIDTH 12 0
BBX 13 24 0 -4
BITMAP
3000
3000
1F80
0F80
00C0
0040
FFF8
FFF8
3060
3060
3060
3060
3040
30C0
31C0
3100
1C00
0F00
0380
00C0
0060
0060
0060
0040
ENDCHAR
STARTCHAR 090F
ENCODING 2319
SWIDTH 540 0
DWIDTH 12 0
BBX 13 18 0 -4
BITMAP
FFF8
FFF8
3060
3060
3060
3060
3040
30C0
31C0
3100
1C00
0F00
0380
00C0
0060
0060
0060
0040
ENDCHAR
STARTCHAR 0910
ENCODING 2320
SWIDTH 540 0
DWIDTH 12 0
BBX 13 24 0 -4
BITMAP
1E00
0F00
0180
00C0
00C0
0040
FFF8
FFF8
3060
3060
3060
3060
3040
30C0
31C0
3100
1C00
0F00
0380
00C0
0060
0060
0060
0040
ENDCHAR
STARTCHAR 0911
ENCODING 2321
SWIDTH 990 0
DWIDTH 22 0
BBX 22 20 1 0
BITMAP
000204
000204
00030C
0001F8
0000F0
000000
1F1FFC
1F9FFC
018C30
018C30
018C30
070C30
C3FC30
C1FC30
608C30
708C30
398C30
1F0C30
000C30
000C30
ENDCHAR
STARTCHAR 0912
ENCODING 2322
SWIDTH 990 0
DWIDTH 22 0
BBX 22 20 1 0
BITMAP
001800
000800
000FC0
0003E0
000060
000020
1F1FFC
1F9FFC
018C30
018C30
018C30
070C30
C3FC30
C1FC30
608C30
708C30
398C30
1F0C30
000C30
000C30
ENDCHAR
STARTCHAR 0913
ENCODING 2323
SWIDTH 990 0
DWIDTH 22 0
BBX 22 20 1 0
BITMAP
000700
0007C0
0000C0
000060
000060
000020
1F1FFC
1F9FFC
018C30
018C30
018C30
070C30
C3FC30
C1FC30
608C30
708C30
398C30
1F0C30
000C30
000C30
ENDCHAR
STARTCHAR 0914
ENCODING 2324
SWIDTH 990 0
DWIDTH 22 0
BBX 22 20 1 0
BITMAP
000700
0007C0
000040
000FE0
0004A0
000060
1F1FFC
1F9FFC
018C30
018C30
018C30
070C30
C3FC30
C1FC30
608C30
708C30
398C30
1F0C30
000C30
000C30
ENDCHAR
STARTCHAR 0915
ENCODING 2325
SWIDTH 720 0
DWIDTH 16 0
BBX 17 14 0 0
BITMAP
FFFF80
FFFF80
00C000
00C000
1EC000
30DC00
60FE00
60E300
60C300
71C300
3FC300
00C600
00C600
00C000
ENDCHAR
STARTCHAR 0916
ENCODING 2326
SWIDTH 810 0
DWIDTH 18 0
BBX 19 14 0 0
BITMAP
FFFFE0
FFFFE0
040300
060300
067F00
64C300
7CC300
78C300
30C700
187F00
1C0300
060300
03FF00
00FB00
ENDCHAR
STARTCHAR 0917
ENCODING 2327
SWIDTH 540 0
DWIDTH 12 0
BBX 13 14 0 0
BITMAP
FFF8
FFF8
1860
1860
1860
1860
7860
7860
7860
3060
0060
0060
0060
0060
ENDCHAR
STARTCHAR 0918
ENCODING 2328
SWIDTH 585 0
DWIDTH 13 0
BBX 13 14 0 0
BITMAP
FFF8
FFF8
6060
6060
6060
3E60
3860
3060
3060
38E0
1FE0
0060
0060
0060
ENDCHAR
STARTCHAR 0919
ENCODING 2329
SWIDTH 630 0
DWIDTH 14 0
BBX 15 14 0 0
BITMAP
FFFE
FFFE
0060
0060
0FE0
1808
181C
1988
0FE0
0430
6030
3030
1FE0
07C0
ENDCHAR
STARTCHAR 091A
ENCODING 2330
SWIDTH 630 0
DWIDTH 14 0
BBX 14 14 0 0
BITMAP
FFFC
FFFC
0030
0030
7FB0
7FB0
0830
1830
1830
0C70
0FF0
0030
0030
0030
ENDCHAR
STARTCHAR 091B
ENCODING 2331
SWIDTH 675 0
DWIDTH 15 0
BBX 16 14 0 0
BITMAP
FFFF
FFFF
0030
1C70
7CFC
60CC
6084
70C6
3E74
180C
3018
3038
1FF0
0FC0
ENDCHAR
STARTCHAR 091C
ENCODING 2332
SWIDTH 720 0
DWIDTH 16 0
BBX 17 14 0 0
BITMAP
FFFF80
FFFF80
000600
000600
01FE00
63FE00
618600
20C600
30C600
18C600
1DC600
078600
000600
000600
ENDCHAR
STARTCHAR 091D
ENCODING 2333
SWIDTH 720 0
DWIDTH 16 0
BBX 17 16 0 -2
BITMAP
FFFF80
FFFF80
018600
018600
3F8600
600600
600600
660600
3FFE00
10F600
00C600
20C600
7F8600
3F0600
070000
018000
ENDCHAR
STARTCHAR 091E
ENCODING 2334
SWIDTH 720 0
DWIDTH 16 0
BBX 17 14 0 0
BITMAP
FFFF80
FFFF80
000600
000600
078600
07C600
406600
607E00
307600
18C600
0FC600
000600
000600
000600
ENDCHAR
STARTCHAR 091F
ENCODING 2335
SWIDTH 495 0
DWIDTH 11 0
BBX 12 14 0 0
BITMAP
FFF0
FFF0
0300
0300
0300
1F00
3800
6000
6000
6000
6000
3000
3FE0
0F80
ENDCHAR
STARTCHAR 0920
ENCODING 2336
SWIDTH 585 0
DWIDTH 13 0
BBX 13 14 0 0
BITMAP
FFF8
FFF8
0300
0300
0300
1FC0
38E0
6060
6030
6030
6030
3070
3FE0
0F80
ENDCHAR
STARTCHAR 0921
ENCODING 2337
SWIDTH 540 0
DWIDTH 12 0
BBX 13 14 0 0
BITMAP
FFF8
FFF8
0060
0060
0FE0
1800
1800
1980
0FE0
0430
6030
3030
1FE0
07C0
ENDCHAR
STARTCHAR 0922
ENCODING 2338
SWIDTH 540 0
DWIDTH 12 0
BBX 13 14 0 0
BITMAP
FFF8
FFF8
0180
0180
0F80
1F80
3000
6000
63E0
6620
6630
3620
3FE0
0FC0
ENDCHAR
STARTCHAR 0923
ENCODING 2339
SWIDTH 720 0
DWIDTH 16 0
BBX 16 14 0 0
BITMAP
FFFF
FFFF
308C
308C
308C
308C
308C
318C
318C
1F8C
0E0C
000C
000C
000C
ENDCHAR
STARTCHAR 0924
ENCODING 2340
SWIDTH 540 0
DWIDTH 12 0
BBX 13 14 0 0
BITMAP
FFF8
FFF8
0060
0060
0060
1FE0
3FE0
6060
6060
6060
6060
3060
1860
0C60
ENDCHAR
STARTCHAR 0925
ENCODING 2341
SWIDTH 630 0
DWIDTH 14 0
BBX 14 14 1 0
BITMAP
78FC
DCFC
CC60
C460
6460
0C60
3860
7060
6060
3FE0
1FE0
0060
0060
0060
ENDCHAR
STARTCHAR 0926
ENCODING 2342
SWIDTH 495 0
DWIDTH 11 0
BBX 12 15 0 -1
BITMAP
FFF0
FFF0
0100
0100
1F00
3C00
6000
6000
6000
61C0
31C0
1FC0
0080
00C0
0060
ENDCHAR
STARTCHAR 0927
ENCODING 2343
SWIDTH 585 0
DWIDTH 13 0
BBX 13 14 1 0
BITMAP
78F8
ECF8
CC60
CC60
C060
7C60
3C60
2060
6060
30E0
3FE0
0E60
0060
0060
ENDCHAR
STARTCHAR 0928
ENCODING 2344
SWIDTH 540 0
DWIDTH 12 0
BBX 13 14 0 0
BITMAP
FFF8
FFF8
0040
0040
0040
0040
7FC0
7840
7840
3040
0040
0040
0040
0040
ENDCHAR
STARTCHAR 0929
ENCODING 2345
SWIDTH 540 0
DWIDTH 12 0
BBX 13 14 0 0
BITMAP
FFF8
FFF8
0040
0040
0040
0040
7FC0
7840
7840
3040
0040
0040
1840
1840
ENDCHAR
STARTCHAR 092A
ENCODING 2346
SWIDTH 540 0
DWIDTH 12 0
BBX 13 14 0 0
BITMAP
FFF8
FFF8
3060
3060
3060
3060
3060
3060
30E0
1FE0
0E60
0060
0060
0060
ENDCHAR
STARTCHAR 092B
ENCODING 2347
SWIDTH 765 0
DWIDTH 17 0
BBX 17 14 0 0
BITMAP
FFFF80
FFFF80
30C000
30C000
30C000
30DC00
30FF00
30E300
30C300
1FC300
0EC300
00C300
00C200
00C000
ENDCHAR
STARTCHAR 092C
ENCODING 2348
SWIDTH 540 0
DWIDTH 12 0
BBX 13 14 0 0
BITMAP
FFF8
FFF8
0060
0060
1F60
3860
6C60
6660
6360
31E0
3FE0
0060
0060
0060
ENDCHAR
STARTCHAR 092D
ENCODING 2349
SWIDTH 675 0
DWIDTH 15 0
BBX 15 14 1 0
BITMAP
78FE
DCFE
CC18
C418
7418
0418
0418
1FF8
1C18
1C18
0418
0018
0018
0018
ENDCHAR
STARTCHAR 092E
ENCODING 2350
SWIDTH 585 0
DWIDTH 13 0
BBX 14 14 0 0
BITMAP
FFFC
FFFC
1820
1820
1820
1820
1820
7FE0
7820
3820
1020
0020
0020
0020
ENDCHAR
STARTCHAR 092F
ENCODING 2351
SWIDTH 540 0
DWIDTH 12 0
BBX 13 14 0 0
BITMAP
FFF8
FFF8
1860
0860
1860
1860
7060
6060
30E0
3FE0
1F60
0060
0060
0060
ENDCHAR
STARTCHAR 0930
ENCODING 2352
SWIDTH 405 0
DWIDTH 9 0
BBX 9 14 0 0
BITMAP
FF80
FF80
0200
0200
0200
6600
7E00
7800
3000
1800
0C00
0600
0300
0100
ENDCHAR
STARTCHAR 0931
ENCODING 2353
SWIDTH 405 0
DWIDTH 9 0
BBX 9 14 0 0
BITMAP
FF80
FF80
0200
0200
0200
6600
7E00
7800
3000
1800
0C00
0600
6300
7100
ENDCHAR
STARTCHAR 0932
ENCODING 2354
SWIDTH 675 0
DWIDTH 15 0
BBX 15 14 0 0
BITMAP
FFFE
FFFE
0018
0018
0018
3EF8
63D8
6198
6318
6018
3018
1818
0C18
0418
ENDCHAR
ENDFONT
